<?xml version="1.0" standalone="no"?>
<!DOCTYPE svg PUBLIC "-//W3C//DTD SVG 1.1//EN" "http://www.w3.org/Graphics/SVG/1.1/DTD/svg11.dtd" >
<svg>
<metadata>
Created by FontForge 20090914 at Wed Apr 11 13:55:22 2012
 By www-data
Digitized data copyright &#194;&#169; 2006, Google Corporation.
</metadata>
<defs>
<font id="DroidSans" horiz-adv-x="1128" >
  <font-face 
    font-family="Droid Sans"
    font-weight="400"
    font-stretch="normal"
    units-per-em="2048"
    panose-1="2 11 6 6 3 8 4 2 2 4"
    ascent="1638"
    descent="-410"
    x-height="1098"
    cap-height="1462"
    bbox="-352 -555.004 2292 2009"
    underline-thickness="102"
    underline-position="-103"
    unicode-range="U+0020-U+FFFD"
  />
<missing-glyph horiz-adv-x="1229" 
d="M193 1462h841v-1462h-841v1462zM297 104h633v1254h-633v-1254z" />
    <glyph glyph-name=".notdef" horiz-adv-x="1229" 
d="M193 1462h841v-1462h-841v1462zM297 104h633v1254h-633v-1254z" />
    <glyph glyph-name="space" unicode=" " horiz-adv-x="532" 
 />
    <glyph glyph-name="exclam" unicode="!" horiz-adv-x="551" 
d="M336 414h-121l-51 1048h223zM147 111c0 25.333 3.33301 46.833 10 64.5s15.667 32 27 43s24.666 19 39.999 24s32 7.5 50 7.5c17.333 0 33.833 -2.5 49.5 -7.5s29.167 -13 40.5 -24s20.333 -25.333 27 -43s10 -39.167 10 -64.5c0 -24.667 -3.33301 -45.834 -10 -63.501
s-15.667 -32.167 -27 -43.5s-24.833 -19.666 -40.5 -24.999s-32.167 -8 -49.5 -8c-18 0 -34.667 2.66699 -50 8s-28.666 13.666 -39.999 24.999s-20.333 25.833 -27 43.5s-10 38.834 -10 63.501z" />
    <glyph glyph-name="quotedbl" unicode="&#x22;" horiz-adv-x="823" 
d="M330 1462l-41 -528h-115l-41 528h197zM690 1462l-41 -528h-114l-41 528h196z" />
    <glyph glyph-name="numbersign" unicode="#" horiz-adv-x="1323" 
d="M983 893l-63 -328h280v-137h-307l-82 -428h-147l84 428h-291l-82 -428h-144l78 428h-258v137h285l65 328h-274v137h299l82 432h147l-82 -432h293l84 432h144l-84 -432h262v-137h-289zM483 565h291l64 328h-291z" />
    <glyph glyph-name="dollar" unicode="$" 
d="M985 446c0 -46.667 -8.33008 -89 -24.9971 -127s-40.5 -71 -71.5 -99s-68.667 -51.167 -113 -69.5s-94.5 -31.5 -150.5 -39.5v-230h-138v221c-33.333 0 -67 1.5 -101 4.5s-67 7.5 -99 13.5s-62 13.333 -90 22s-52.667 18.667 -74 30v172
c22 -10.667 47.5 -21.5 76.5 -32.5s59.5 -20.833 91.5 -29.5s64.833 -15.834 98.5 -21.501s66.167 -8.5 97.5 -8.5v434c-59.333 20 -110.833 41 -154.5 63s-79.834 47.167 -108.501 75.5s-50 60.833 -64 97.5s-21 79.667 -21 129c0 44.667 8.16699 85.5 24.5 122.5
s39.666 69.333 69.999 97s67 50.334 110 68.001s90.833 29.5 143.5 35.5v180h138v-176c66.667 -3.33301 128.167 -12 184.5 -26s106.833 -31.333 151.5 -52l-66 -145c-37.333 16.667 -79.333 31.834 -126 45.501s-94.667 22.5 -144 26.5v-422
c58.667 -20.667 110.5 -42 155.5 -64s82.667 -46.833 113 -74.5s53.166 -59.334 68.499 -95.001s23 -77.5 23 -125.5zM809.003 446c0 22 -3.33398 42.167 -10.001 60.5s-17.167 35 -31.5 50s-33.166 28.833 -56.499 41.5s-52 25 -86 37v-373
c62 9.33301 108.167 30.333 138.5 63s45.5 73 45.5 121zM315.002 1049c0 -24 2.83301 -45.498 8.5 -64.498s15.167 -36.333 28.5 -52s31 -29.834 53 -42.501s49.333 -24.667 82 -36v369c-59.333 -10.667 -102.833 -30.834 -130.5 -60.501s-41.5 -67.5 -41.5 -113.5z" />
    <glyph glyph-name="percent" unicode="%" horiz-adv-x="1690" 
d="M250 1026c0 -110 11.833 -192.5 35.5 -247.5s62.167 -82.5 115.5 -82.5c104 0 156 110 156 330c0 218.667 -52 328 -156 328c-53.333 0 -91.833 -27.167 -115.5 -81.5s-35.5 -136.5 -35.5 -246.5zM705 1026c0 -72 -6.00195 -136.667 -18.002 -194
s-30.333 -105.666 -55 -144.999s-56.167 -69.5 -94.5 -90.5s-83.833 -31.5 -136.5 -31.5c-48.667 0 -91.667 10.5 -129 31.5s-68.666 51.167 -93.999 90.5s-44.333 87.666 -57 144.999s-19 122 -19 194s5.83301 136.333 17.5 193s29.667 104.5 54 143.5
s55.333 68.833 93 89.5s82.5 31 134.5 31c50 0 93.833 -10.333 131.5 -31s69.334 -50.5 95.001 -89.5s45 -86.833 58 -143.5s19.5 -121 19.5 -193zM1133 440c0 -110 11.833 -192.333 35.5 -247s62.167 -82 115.5 -82c104 0 156 109.667 156 329c0 218.667 -52 328 -156 328
c-53.333 0 -91.833 -27.167 -115.5 -81.5s-35.5 -136.5 -35.5 -246.5zM1587 440c0 -72 -5.83301 -136.5 -17.5 -193.5s-29.834 -105.167 -54.501 -144.5s-56.167 -69.5 -94.5 -90.5s-83.833 -31.5 -136.5 -31.5c-49.333 0 -92.666 10.5 -129.999 31.5
s-68.5 51.167 -93.5 90.5s-43.833 87.5 -56.5 144.5s-19 121.5 -19 193.5s5.83301 136.333 17.5 193s29.667 104.5 54 143.5s55.333 68.833 93 89.5s82.5 31 134.5 31c50 0 93.833 -10.333 131.5 -31s69.167 -50.5 94.5 -89.5s44.5 -86.833 57.5 -143.5s19.5 -121 19.5 -193
zM1331 1462l-811 -1462h-158l812 1462h157z" />
    <glyph glyph-name="ampersand" unicode="&#x26;" horiz-adv-x="1438" 
d="M422 1165c0 -22.667 2.66504 -44.8301 7.99805 -66.4971s13.5 -43.334 24.5 -65.001s25.167 -43.667 42.5 -66s38 -45.833 62 -70.5c39.333 23.333 73.333 45.333 102 66s52.334 41.667 71.001 63s32.667 43.666 42 66.999s14 48.666 14 75.999
c0 24 -4.16699 46.167 -12.5 66.5s-20.333 37.833 -36 52.5s-34.5 26.167 -56.5 34.5s-47 12.5 -75 12.5c-57.333 0 -102.666 -14.833 -135.999 -44.5s-50 -71.5 -50 -125.5zM556.998 141.004c38.667 0 74.333 3.83203 107 11.499s63 18.167 91 31.5s54 29 78 47
s46.667 37.333 68 58l-387 407c-34.667 -22 -65.334 -43.5 -92.001 -64.5s-49.167 -43.5 -67.5 -67.5s-32.166 -50.167 -41.499 -78.5s-14 -61.166 -14 -98.499c0 -36 5.83301 -69.167 17.5 -99.5s28.5 -56.333 50.5 -78s49 -38.5 81 -50.5s68.333 -18 109 -18z
M108.997 381.003c0 52 6.66895 98.332 20.002 138.999s32.833 77.667 58.5 111s57 64.333 94 93s79.167 57 126.5 85c-20.667 24 -41 48.833 -61 74.5s-37.5 53 -52.5 82s-27.167 60 -36.5 93s-14 68.5 -14 106.5c0 50 8.33301 94.833 25 134.5s40.667 73.334 72 101.001
s70 48.667 116 63s98.333 21.5 157 21.5c55.333 0 104.833 -7.16699 148.5 -21.5s80.667 -35.333 111 -63s53.5 -61.334 69.5 -101.001s24 -84.5 24 -134.5c0 -42.667 -8.33301 -82.167 -25 -118.5s-39 -70 -67 -101s-60.167 -59.667 -96.5 -86s-74.5 -51.5 -114.5 -75.5
l352 -372c18 19.333 34.167 39 48.5 59s27.166 41.333 38.499 64s21.5 47 30.5 73s16.833 54.667 23.5 86h184c-10 -44 -21.833 -84.5 -35.5 -121.5s-29.334 -71.833 -47.001 -104.5s-37.334 -63.167 -59.001 -91.5s-45.5 -56.166 -71.5 -83.499l277 -293h-225l-168 172
c-32.667 -30 -65 -56.833 -97 -80.5s-66 -43.667 -102 -60s-74.667 -29 -116 -38s-88 -13.5 -140 -13.5c-70 0 -132.833 8.83301 -188.5 26.5s-102.667 43.667 -141 78s-67.666 76.333 -87.999 126s-30.5 106.5 -30.5 170.5z" />
    <glyph glyph-name="quotesingle" unicode="'" horiz-adv-x="463" 
d="M330 1462l-41 -528h-115l-41 528h197z" />
    <glyph glyph-name="parenleft" unicode="(" horiz-adv-x="616" 
d="M82 561c0 83.333 5.99902 165.502 17.999 246.502s30.333 159.667 55 236s55.834 149.666 93.501 219.999s82.5 136.5 134.5 198.5h172c-93.333 -128.667 -164.166 -270 -212.499 -424s-72.5 -312.333 -72.5 -475c0 -79.333 6.16699 -158.333 18.5 -237
s30.333 -155.667 54 -231s53.167 -148.333 88.5 -219s76 -137.334 122 -200.001h-170c-52 60 -96.833 124.333 -134.5 193s-68.834 140.5 -93.501 215.5s-43 152.5 -55 232.5s-18 161.333 -18 244z" />
    <glyph glyph-name="parenright" unicode=")" horiz-adv-x="616" 
d="M535 561c0 -82.667 -6 -164.002 -18 -244.002s-30.5 -157.5 -55.5 -232.5s-56.333 -146.833 -94 -215.5s-82.5 -133 -134.5 -193h-170c46 62.667 86.667 129.334 122 200.001s65 143.667 89 219s42 152.333 54 231s18 157.667 18 237c0 162.667 -24 321 -72 475
s-119 295.333 -213 424h172c52 -62 96.833 -128.167 134.5 -198.5s69 -143.666 94 -219.999s43.5 -155 55.5 -236s18 -163.167 18 -246.5z" />
    <glyph glyph-name="asterisk" unicode="*" 
d="M664 1556l-43 -393l397 111l26 -193l-378 -28l245 -326l-178 -96l-176 358l-158 -358l-184 96l242 326l-375 28l29 193l391 -111l-43 393h205z" />
    <glyph glyph-name="plus" unicode="+" 
d="M489 647h-387v150h387v389h150v-389h387v-150h-387v-385h-150v385z" />
    <glyph glyph-name="comma" unicode="," horiz-adv-x="512" 
d="M362 238l15.001 -23.001c-9.33301 -36 -20.5 -74.333 -33.5 -115s-27.333 -81.667 -43 -123l-49 -123.5l-50.5 -117.5h-138c10 40.667 19.833 83 29.5 127l28 131.5c9 43.667 17.167 86.334 24.5 128.001s13.666 80.167 18.999 115.5h198z" />
    <glyph glyph-name="hyphen" unicode="-" horiz-adv-x="659" 
d="M82 465v168h496v-168h-496z" />
    <glyph glyph-name="period" unicode="." horiz-adv-x="549" 
d="M147 111c0 25.333 3.33301 46.833 10 64.5s15.667 32 27 43s24.666 19 39.999 24s32 7.5 50 7.5c17.333 0 33.833 -2.5 49.5 -7.5s29.167 -13 40.5 -24s20.333 -25.333 27 -43s10 -39.167 10 -64.5c0 -24.667 -3.33301 -45.834 -10 -63.501s-15.667 -32.167 -27 -43.5
s-24.833 -19.666 -40.5 -24.999s-32.167 -8 -49.5 -8c-18 0 -34.667 2.66699 -50 8s-28.666 13.666 -39.999 24.999s-20.333 25.833 -27 43.5s-10 38.834 -10 63.501z" />
    <glyph glyph-name="slash" unicode="/" horiz-adv-x="764" 
d="M743 1462l-544 -1462h-179l545 1462h178z" />
    <glyph glyph-name="zero" unicode="0" 
d="M1032 733c0 -118 -8.50195 -223.667 -25.502 -317s-44.333 -172.333 -82 -237s-86.167 -114 -145.5 -148s-131.333 -51 -216 -51c-78.667 0 -147.167 17 -205.5 51s-106.666 83.333 -144.999 148s-67 143.667 -86 237s-28.5 199 -28.5 317s8.5 223.667 25.5 317
s44 172.166 81 236.499s85 113.5 144 147.5s130.5 51 214.5 51c79.333 0 148.333 -16.833 207 -50.5s107.334 -82.667 146.001 -147s67.667 -143.166 87 -236.499s29 -199.333 29 -318zM282.998 733c0 -100 5 -187.332 15 -261.999s26 -136.834 48 -186.501
s50.833 -87 86.5 -112s79.167 -37.5 130.5 -37.5s95 12.333 131 37s65.5 61.667 88.5 111s39.667 111.5 50 186.5s15.5 162.833 15.5 263.5c0 100 -5.16699 187.333 -15.5 262s-27 136.667 -50 186s-52.5 86.333 -88.5 111s-79.667 37 -131 37s-94.833 -12.333 -130.5 -37
s-64.5 -61.667 -86.5 -111s-38 -111.333 -48 -186s-15 -162 -15 -262z" />
    <glyph glyph-name="one" unicode="1" 
d="M711 0l-176 -0.00195312v913c0 28.667 0.166992 59.334 0.5 92.001s1 65.167 2 97.5l3 93c1 29.667 1.83301 55.834 2.5 78.501l-30 -31c-8.66699 -8.66699 -17.5 -17 -26.5 -25l-28.5 -25.5l-36 -31.5l-148 -121l-96 123l383 299h150v-1462z" />
    <glyph glyph-name="two" unicode="2" 
d="M1008 0l-912 -0.000976562v156l350 381l134 148c39.333 44.667 72.833 88.334 100.5 131.001s48.834 85.5 63.501 128.5s22 89.833 22 140.5c0 39.333 -5.66699 74 -17 104s-27.5 55.5 -48.5 76.5s-45.833 36.833 -74.5 47.5s-60.667 16 -96 16
c-63.333 0 -120.5 -12.833 -171.5 -38.5s-99.5 -58.5 -145.5 -98.5l-102 119c26.667 24 55.334 46.5 86.001 67.5s63.667 39.167 99 54.5s72.666 27.5 111.999 36.5s80.666 13.5 123.999 13.5c64 0 121.833 -9 173.5 -27s95.5 -43.833 131.5 -77.5s63.833 -74.667 83.5 -123
s29.5 -102.833 29.5 -163.5c0 -56.667 -8.83301 -110.667 -26.5 -162s-42 -101.833 -73 -151.5s-68 -99.5 -111 -149.5l-139.5 -156l-281 -299v-8h689v-166z" />
    <glyph glyph-name="three" unicode="3" 
d="M961 1120c0 -48.667 -7.66992 -92.999 -23.0029 -132.999s-36.833 -74.667 -64.5 -104s-60.834 -53.5 -99.501 -72.5s-81.667 -32.5 -129 -40.5v-6c118 -14.667 207.667 -52.167 269 -112.5s92 -138.833 92 -235.5c0 -64 -10.833 -122.667 -32.5 -176
s-54.5 -99.333 -98.5 -138s-99.667 -68.667 -167 -90s-147 -32 -239 -32c-72.667 0 -141.167 5.66699 -205.5 17s-124.833 32 -181.5 62v170c58 -30.667 120.833 -54.334 188.5 -71.001s132.5 -25 194.5 -25c61.333 0 114.333 6.66699 159 20s81.5 32.333 110.5 57
s50.333 55 64 91s20.5 76.333 20.5 121c0 45.333 -8.83301 84.166 -26.5 116.499s-42.834 59 -75.501 80s-72.5 36.5 -119.5 46.5s-100.167 15 -159.5 15h-133v151h133c54 0 102 6.66699 144 20s77.167 32.333 105.5 57s49.833 54 64.5 88s22 71.333 22 112
c0 34.667 -6 65.667 -18 93s-29 50.5 -51 69.5s-48.333 33.5 -79 43.5s-64.667 15 -102 15c-71.333 0 -134.166 -11.167 -188.499 -33.5s-106.166 -51.5 -155.499 -87.5l-92 125c25.333 20.667 53.5 40 84.5 58s64.833 33.833 101.5 47.5s75.834 24.5 117.501 32.5
s85.834 12 132.501 12c72 0 135.167 -9 189.5 -27s99.833 -43.167 136.5 -75.5s64.334 -70.666 83.001 -114.999s28 -92.833 28 -145.5z" />
    <glyph glyph-name="four" unicode="4" 
d="M1087 328h-213v-328h-176v328h-675v159l663 983h188v-976h213v-166zM698 494l-0.000976562 355.997c0 37.333 0.5 76.5 1.5 117.5s2.16699 81 3.5 120s2.83301 75.5 4.5 109.5s2.83398 62.333 3.50098 85h-9c-4.66699 -13.333 -10.5 -28.166 -17.5 -44.499
s-14.667 -32.666 -23 -48.999s-16.833 -32.166 -25.5 -47.499s-16.667 -28.333 -24 -39l-411 -608h497z" />
    <glyph glyph-name="five" unicode="5" 
d="M545 897c66 0 127.5 -9.16406 184.5 -27.4971s106.667 -45.5 149 -81.5s75.5 -80.667 99.5 -134s36 -115 36 -185c0 -76 -11.333 -144.333 -34 -205s-56.334 -112 -101.001 -154s-99.834 -74.167 -165.501 -96.5s-141.167 -33.5 -226.5 -33.5
c-34 0 -67.5 1.66699 -100.5 5s-64.667 8.16602 -95 14.499s-59.166 14.5 -86.499 24.5s-52 21.667 -74 35v172c22 -15.333 47.833 -29 77.5 -41s60.834 -22 93.501 -30s65.5 -14.167 98.5 -18.5s63.5 -6.5 91.5 -6.5c52.667 0 99.667 6.16699 141 18.5
s76.333 31.5 105 57.5s50.667 58.667 66 98s23 86 23 140c0 95.333 -29.333 168.166 -88 218.499s-144 75.5 -256 75.5c-18 0 -37.5 -0.833008 -58.5 -2.5s-42 -3.83398 -63 -6.50098s-41 -5.5 -60 -8.5s-35.5 -5.83301 -49.5 -8.5l-90 57l55 688h690v-166h-532l-39 -419
c21.333 4 49.5 8.33301 84.5 13s76.5 7 124.5 7z" />
    <glyph glyph-name="six" unicode="6" 
d="M113 625c0 70 3.50195 139.665 10.502 208.998s19.333 135.833 37 199.5s41.834 122.834 72.501 177.501s69.667 102.167 117 142.5s104 72 170 95s143.333 34.5 232 34.5c12.667 0 26.667 -0.333008 42 -1s30.833 -1.83398 46.5 -3.50098s30.667 -3.66699 45 -6
s27.166 -5.16602 38.499 -8.49902v-155c-23.333 8 -49.666 14 -78.999 18s-58.333 6 -87 6c-60 0 -112.833 -7.16699 -158.5 -21.5s-85.167 -34.5 -118.5 -60.5s-61.166 -57 -83.499 -93s-40.5 -75.833 -54.5 -119.5s-24.333 -90.167 -31 -139.5s-11 -100.666 -13 -153.999
h12c13.333 24 29.5 46.5 48.5 67.5s41.167 39 66.5 54s53.833 26.833 85.5 35.5s67.167 13 106.5 13c63.333 0 120.666 -9.83301 171.999 -29.5s95 -48.5 131 -86.5s63.833 -84.5 83.5 -139.5s29.5 -117.833 29.5 -188.5c0 -76 -10.333 -144.333 -31 -205
s-50.334 -112.167 -89.001 -154.5s-85.334 -74.833 -140.001 -97.5s-116 -34 -184 -34c-66.667 0 -129.167 13 -187.5 39s-108.833 65.667 -151.5 119s-76.334 120.333 -101.001 201s-37 176 -37 286zM588.002 132.998c40 0 76.5 6.83008 109.5 20.4971
s61.5 34.334 85.5 62.001s42.5 62.667 55.5 105s19.5 92.5 19.5 150.5c0 46.667 -5.5 88.5 -16.5 125.5s-27.5 68.5 -49.5 94.5s-49.5 46 -82.5 60s-71.5 21 -115.5 21c-44.667 0 -85.5 -7.83301 -122.5 -23.5s-68.5 -36 -94.5 -61s-46.167 -53.5 -60.5 -85.5
s-21.5 -64 -21.5 -96c0 -44.667 6.16699 -89.167 18.5 -133.5s30.666 -84.166 54.999 -119.499s54.833 -64.166 91.5 -86.499s79.334 -33.5 128.001 -33.5z" />
    <glyph glyph-name="seven" unicode="7" 
d="M281 0l563 1296h-754v166h940v-145l-555 -1317h-194z" />
    <glyph glyph-name="eight" unicode="8" 
d="M565 1485c56 0 108.829 -7.33301 158.496 -22s93.334 -36.667 131.001 -66s67.5 -66 89.5 -110s33 -95.333 33 -154c0 -44.667 -6.66699 -85 -20 -121s-31.666 -68.5 -54.999 -97.5s-51 -55 -83 -78s-66.667 -43.833 -104 -62.5c38.667 -20.667 76.5 -43.667 113.5 -69
s70 -53.833 99 -85.5s52.333 -67.167 70 -106.5s26.5 -83.333 26.5 -132c0 -61.333 -11.167 -116.833 -33.5 -166.5s-53.666 -91.834 -93.999 -126.501s-88.666 -61.334 -144.999 -80.001s-118.5 -28 -186.5 -28c-73.333 0 -138.5 9 -195.5 27s-105 43.833 -144 77.5
s-68.667 74.834 -89 123.501s-30.5 103.667 -30.5 165c0 50 7.5 95 22.5 135s35.167 76 60.5 108s55.333 60.333 90 85s71.334 46.334 110.001 65.001c-32.667 20.667 -63.334 43.167 -92.001 67.5s-53.5 51.5 -74.5 81.5s-37.667 63.167 -50 99.5s-18.5 76.5 -18.5 120.5
c0 58 11.167 108.833 33.5 152.5s52.5 80.167 90.5 109.5s81.833 51.333 131.5 66s101.5 22 155.5 22zM284.996 371c0 -35.333 5.33008 -67.835 15.9971 -97.502s27.334 -55 50.001 -76s51.334 -37.333 86.001 -49s76 -17.5 124 -17.5c46.667 0 87.834 5.83301 123.501 17.5
s65.5 28.334 89.5 50.001s42 47.834 54 78.501s18 64.667 18 102c0 34.667 -6.5 66 -19.5 94s-31.667 54 -56 78s-53.5 46.667 -87.5 68s-72 42.333 -114 63l-30 14c-84 -40 -147.333 -85.833 -190 -137.5s-64 -114.167 -64 -187.5zM562.993 1333
c-70.667 0 -126.834 -17.668 -168.501 -53.001s-62.5 -86.666 -62.5 -153.999c0 -38 5.83301 -70.667 17.5 -98s27.834 -51.666 48.501 -72.999s45.5 -40.5 74.5 -57.5s60.5 -33.5 94.5 -49.5c32 14.667 62.167 30.667 90.5 48s53 37 74 59s37.5 47 49.5 75s18 60 18 96
c0 67.333 -21 118.666 -63 153.999s-99.667 53 -173 53z" />
    <glyph glyph-name="nine" unicode="9" 
d="M1028 838c0 -70 -3.5 -139.833 -10.5 -209.5s-19.333 -136.167 -37 -199.5s-41.834 -122.5 -72.501 -177.5s-69.667 -102.5 -117 -142.5s-104 -71.5 -170 -94.5s-143.333 -34.5 -232 -34.5c-12.667 0 -26.667 0.333008 -42 1s-30.666 1.83398 -45.999 3.50098
s-30.333 3.5 -45 5.5s-27.667 4.66699 -39 8v156c23.333 -8.66699 49.666 -15 78.999 -19s58.333 -6 87 -6c90 0 164 15.667 222 47s104 73.833 138 127.5s58.167 116.167 72.5 187.5s23.166 146.666 26.499 225.999h-13c-13.333 -24 -29.333 -46.333 -48 -67
s-40.667 -38.667 -66 -54s-54 -27.333 -86 -36s-67.667 -13 -107 -13c-63.333 0 -120.666 9.83301 -171.999 29.5s-95 48.5 -131 86.5s-63.833 84.5 -83.5 139.5s-29.5 117.833 -29.5 188.5c0 76 10.5 144.5 31.5 205.5s50.667 112.667 89 155s85 74.833 140 97.5
s116.5 34 184.5 34c67.333 0 130 -13 188 -39s108.333 -65.667 151 -119s76.334 -120.5 101.001 -201.5s37 -176.167 37 -285.5zM553 1329c-40 0 -76.5 -6.66699 -109.5 -20s-61.5 -34 -85.5 -62s-42.5 -63.167 -55.5 -105.5s-19.5 -92.5 -19.5 -150.5
c0 -46.667 5.5 -88.5 16.5 -125.5s27.5 -68.5 49.5 -94.5s49.5 -46 82.5 -60s71.5 -21 115.5 -21c45.333 0 86.333 7.83301 123 23.5s68 36 94 61s46.167 53.5 60.5 85.5s21.5 64 21.5 96c0 44.667 -6.16699 89.167 -18.5 133.5s-30.666 84.333 -54.999 120
s-54.833 64.5 -91.5 86.5s-79.334 33 -128.001 33z" />
    <glyph glyph-name="colon" unicode=":" horiz-adv-x="549" 
d="M147 111c0 25.333 3.33301 46.833 10 64.5s15.667 32 27 43s24.666 19 39.999 24s32 7.5 50 7.5c17.333 0 33.833 -2.5 49.5 -7.5s29.167 -13 40.5 -24s20.333 -25.333 27 -43s10 -39.167 10 -64.5c0 -24.667 -3.33301 -45.834 -10 -63.501s-15.667 -32.167 -27 -43.5
s-24.833 -19.666 -40.5 -24.999s-32.167 -8 -49.5 -8c-18 0 -34.667 2.66699 -50 8s-28.666 13.666 -39.999 24.999s-20.333 25.833 -27 43.5s-10 38.834 -10 63.501zM147 987c0 26 3.33301 47.833 10 65.5s15.667 32 27 43s24.666 18.833 39.999 23.5s32 7 50 7
c17.333 0 33.833 -2.33301 49.5 -7s29.167 -12.5 40.5 -23.5s20.333 -25.333 27 -43s10 -39.5 10 -65.5c0 -24.667 -3.33301 -45.667 -10 -63s-15.667 -31.666 -27 -42.999s-24.833 -19.666 -40.5 -24.999s-32.167 -8 -49.5 -8c-18 0 -34.667 2.66699 -50 8
s-28.666 13.666 -39.999 24.999s-20.333 25.666 -27 42.999s-10 38.333 -10 63z" />
    <glyph glyph-name="semicolon" unicode=";" horiz-adv-x="549" 
d="M362 238l15.001 -23.001c-9.33301 -36 -20.5 -74.333 -33.5 -115s-27.333 -81.667 -43 -123l-49 -123.5l-50.5 -117.5h-138c10 40.667 19.833 83 29.5 127l28 131.5c9 43.667 17.167 86.334 24.5 128.001s13.666 80.167 18.999 115.5h198zM147.001 986.999
c0 26 3.33301 47.833 10 65.5s15.667 32 27 43s24.666 18.833 39.999 23.5s32 7 50 7c17.333 0 33.833 -2.33301 49.5 -7s29.167 -12.5 40.5 -23.5s20.333 -25.333 27 -43s10 -39.5 10 -65.5c0 -24.667 -3.33301 -45.667 -10 -63s-15.667 -31.666 -27 -42.999
s-24.833 -19.666 -40.5 -24.999s-32.167 -8 -49.5 -8c-18 0 -34.667 2.66699 -50 8s-28.666 13.666 -39.999 24.999s-20.333 25.666 -27 42.999s-10 38.333 -10 63z" />
    <glyph glyph-name="less" unicode="&#x3c;" 
d="M1026 238l-924 424v102l924 481v-160l-735 -364l735 -322v-161z" />
    <glyph glyph-name="equal" unicode="=" 
d="M102 852v149h924v-149h-924zM102 442v150h924v-150h-924z" />
    <glyph glyph-name="greater" unicode="&#x3e;" 
d="M102 399l736 322l-736 364v160l924 -481v-102l-924 -424v161z" />
    <glyph glyph-name="question" unicode="?" horiz-adv-x="872" 
d="M281 414l-0.00292969 37c0 38 2.5 72.333 7.5 103s14 59.334 27 86.001s30.5 52.834 52.5 78.501s49.667 52.5 83 80.5c32 27.333 59.333 52.166 82 74.499s41.167 45 55.5 68s25 47.667 32 74s10.5 57.166 10.5 92.499c0 32 -5 61.167 -15 87.5s-24.5 49 -43.5 68
s-42.667 33.667 -71 44s-61.166 15.5 -98.499 15.5c-55.333 0 -108 -8.66699 -158 -26s-98.333 -37.333 -145 -60l-63 145c54 28 112.333 51.833 175 71.5s126.334 29.5 191.001 29.5c62 0 117.833 -8.5 167.5 -25.5s91.834 -41.5 126.501 -73.5
s61.334 -71.167 80.001 -117.5s28 -98.5 28 -156.5c0 -44.667 -4.5 -84.5 -13.5 -119.5s-22.5 -67.5 -40.5 -97.5s-40.333 -59 -67 -87s-58 -57.667 -94 -89c-34.667 -30 -63 -56.167 -85 -78.5s-39.333 -44 -52 -65s-21.334 -42.5 -26.001 -64.5s-7 -47.667 -7 -77v-18
h-139zM232.997 111c0 25.333 3.33301 46.833 10 64.5s15.667 32 27 43s24.666 19 39.999 24s32 7.5 50 7.5c17.333 0 33.833 -2.5 49.5 -7.5s29.167 -13 40.5 -24s20.333 -25.333 27 -43s10 -39.167 10 -64.5c0 -24.667 -3.33301 -45.834 -10 -63.501
s-15.667 -32.167 -27 -43.5s-24.833 -19.666 -40.5 -24.999s-32.167 -8 -49.5 -8c-18 0 -34.667 2.66699 -50 8s-28.666 13.666 -39.999 24.999s-20.333 25.833 -27 43.5s-10 38.834 -10 63.501z" />
    <glyph glyph-name="at" unicode="@" horiz-adv-x="1774" 
d="M1665 731c0 -41.333 -3.16797 -82.834 -9.50098 -124.501s-15.666 -81.334 -27.999 -119.001s-28 -72.667 -47 -105s-41.167 -60.5 -66.5 -84.5s-54.166 -42.833 -86.499 -56.5s-67.833 -20.5 -106.5 -20.5c-30 0 -57.167 5 -81.5 15s-45.166 23.333 -62.499 40
s-31.5 35.834 -42.5 57.501s-18.5 44.167 -22.5 67.5h-4c-12 -24.667 -27 -48 -45 -70s-38.833 -41.167 -62.5 -57.5s-50.334 -29.166 -80.001 -38.499s-62.167 -14 -97.5 -14c-51.333 0 -96.833 9.33301 -136.5 28s-73.167 44.834 -100.5 78.501
s-48.166 74.167 -62.499 121.5s-21.5 99.666 -21.5 156.999c0 67.333 9.83301 129 29.5 185s48 104.333 85 145s81.833 72.334 134.5 95.001s111.667 34 177 34c30 0 60 -1.33301 90 -4s58.667 -6.33398 86 -11.001s52.5 -9.83398 75.5 -15.501s42.167 -11.167 57.5 -16.5
l-23 -416c-0.666992 -14.667 -1.16699 -26.5 -1.5 -35.5s-0.5 -16.167 -0.5 -21.5v-12v-7c0 -35.333 3.5 -64.333 10.5 -87s16.167 -40.667 27.5 -54s24.166 -22.5 38.499 -27.5s29.166 -7.5 44.499 -7.5c30.667 0 57.667 10.167 81 30.5s42.833 47.833 58.5 82.5
s27.5 75.334 35.5 122.001s12 96 12 148c0 94.667 -14.333 178.834 -43 252.501s-68.334 135.834 -119.001 186.501s-110.834 89.167 -180.501 115.5s-145.5 39.5 -227.5 39.5c-112.667 0 -212 -18.5 -298 -55.5s-158.167 -88.667 -216.5 -155s-102.5 -145 -132.5 -236
s-45 -190.5 -45 -298.5c0 -100.667 13.167 -190 39.5 -268s65 -143.667 116 -197s114.333 -93.666 190 -120.999s162.5 -41 260.5 -41c40.667 0 80.834 2.33301 120.501 7s78 11 115 19s72.167 17.167 105.5 27.5s64.333 21.166 93 32.499v-141
c-57.333 -25.333 -122 -45.333 -194 -60s-151.333 -22 -238 -22c-119.333 0 -225.833 17 -319.5 51s-173 83.5 -238 148.5s-114.5 144.333 -148.5 238s-51 200.167 -51 319.5c0 125.333 19.667 242.166 59 350.499s95.5 202.166 168.5 281.499s161.333 141.666 265 186.999
s219.834 68 348.501 68c104 0 199.667 -16.833 287 -50.5s162.833 -82 226.5 -145s113.167 -139.667 148.5 -230s53 -192.166 53 -305.499zM661.999 601.999c0 -88.667 16.8311 -152.833 50.498 -192.5s78.834 -59.5 135.501 -59.5c36.667 0 68 7.5 94 22.5
s47.333 36.333 64 64s29.334 60.667 38.001 99s14.334 80.5 17.001 126.5l14 253c-18.667 5.33301 -40.834 10.166 -66.501 14.499s-52.5 6.5 -80.5 6.5c-49.333 0 -90.833 -9.66699 -124.5 -29s-61 -44.666 -82 -75.999s-36.167 -67 -45.5 -107s-14 -80.667 -14 -122z" />
    <glyph glyph-name="A" unicode="A" horiz-adv-x="1245" 
d="M1055 0l-160 453h-545l-162 -453h-188l537 1468h170l538 -1468h-190zM836 618l-148 424l-14.5 44l-17.5 56l-18 62.5l-17 63.5c-4.66699 -20.667 -10 -42 -16 -64l-18 -63.5c-6 -20.333 -11.833 -39 -17.5 -56l-14.5 -42.5l-145 -424h426z" />
    <glyph glyph-name="B" unicode="B" horiz-adv-x="1272" 
d="M199 1462l399 -0.00292969c85.333 0 160.5 -6.5 225.5 -19.5s119.333 -34 163 -63s76.5 -67 98.5 -114s33 -104.833 33 -173.5c0 -41.333 -6.5 -80 -19.5 -116s-31.833 -67.667 -56.5 -95s-55.167 -50.166 -91.5 -68.499s-77.5 -30.5 -123.5 -36.5v-10
c46 -8 89.167 -19.5 129.5 -34.5s75.5 -35.667 105.5 -62s53.667 -59.5 71 -99.5s26 -88.667 26 -146c0 -66.667 -10.833 -126.167 -32.5 -178.5s-53 -96.666 -94 -132.999s-90.833 -64.166 -149.5 -83.499s-125 -29 -199 -29h-485v1462zM385 841.997l244.001 -0.000976562
c56 0 103 5 141 15s68.667 24.833 92 44.5s40.166 44.334 50.499 74.001s15.5 64.167 15.5 103.5c0 80 -25.667 137.333 -77 172s-132.333 52 -243 52h-223v-461zM385.001 685.996l-0.00195312 -527.998h266c58.667 0 107.834 6.66699 147.501 20s71.667 32 96 56
s41.833 52.833 52.5 86.5s16 70.834 16 111.501c0 37.333 -5.5 71.666 -16.5 102.999s-29 58.166 -54 80.499s-58.167 39.666 -99.5 51.999s-92.666 18.5 -153.999 18.5h-254z" />
    <glyph glyph-name="C" unicode="C" horiz-adv-x="1235" 
d="M793 1319c-71.333 0 -136.002 -13.498 -194.002 -40.498s-107.5 -65.833 -148.5 -116.5s-72.667 -112.334 -95 -185.001s-33.5 -154.667 -33.5 -246c0 -94 9.83301 -177.5 29.5 -250.5s49.167 -134.5 88.5 -184.5s88.333 -88 147 -114s127.334 -39 206.001 -39
c59.333 0 115.666 5.83301 168.999 17.5s106 25.167 158 40.5v-162c-26 -10 -52 -18.833 -78 -26.5s-53.167 -13.834 -81.5 -18.501s-58.666 -8.16699 -90.999 -10.5s-68.166 -3.5 -107.499 -3.5c-109.333 0 -204 18 -284 54s-146.167 87 -198.5 153
s-91.166 145.333 -116.499 238s-38 195.334 -38 308.001c0 110.667 14.5 212 43.5 304s71.667 171 128 237s126.166 117.333 209.499 154s179 55 287 55c72 0 140.667 -7.33301 206 -22s124.333 -36 177 -64l-78 -156c-42 21.333 -87.667 39.666 -137 54.999
s-105.333 23 -168 23z" />
    <glyph glyph-name="D" unicode="D" horiz-adv-x="1401" 
d="M1276 745c0 -123.333 -16 -231.503 -48 -324.503s-78.333 -170.667 -139 -233s-135.167 -109.166 -223.5 -140.499s-188.5 -47 -300.5 -47h-366v1462h407c102 0 194.333 -15.333 277 -46s153 -76.167 211 -136.5s102.833 -135.166 134.5 -224.499
s47.5 -192.666 47.5 -309.999zM1079 738.997c0 97.333 -11 181.501 -33 252.501s-54 129.5 -96 175.5s-93.667 80.167 -155 102.5s-131 33.5 -209 33.5h-201v-1143h162c176 0 308.667 48.667 398 146s134 241.666 134 432.999z" />
    <glyph glyph-name="E" unicode="E" horiz-adv-x="1081" 
d="M958 0h-759v1462h759v-164h-573v-452h535v-162h-535v-520h573v-164z" />
    <glyph glyph-name="F" unicode="F" horiz-adv-x="1006" 
d="M385 0h-186v1462h759v-164h-573v-516h535v-164h-535v-618z" />
    <glyph glyph-name="G" unicode="G" horiz-adv-x="1413" 
d="M782 772l484 -0.00488281v-717c-36.667 -12 -73.667 -22.667 -111 -32s-75.666 -17.166 -114.999 -23.499s-80.666 -11.166 -123.999 -14.499s-90 -5 -140 -5c-104.667 0 -197.334 17.5 -278.001 52.5s-148.667 85 -204 150s-97.333 144 -126 237s-43 197.5 -43 313.5
c0 114.667 15.833 218.334 47.5 311.001s77.834 171.5 138.501 236.5s135.5 115 224.5 150s190.5 52.5 304.5 52.5c74 0 145 -7.33301 213 -22s131.333 -36 190 -64l-72 -162c-24 11.333 -49.833 22 -77.5 32s-56.167 18.833 -85.5 26.5s-59.5 13.834 -90.5 18.501
s-61.833 7 -92.5 7c-81.333 0 -153.333 -13.5 -216 -40.5s-115.167 -65.833 -157.5 -116.5s-74.5 -112.334 -96.5 -185.001s-33 -154.667 -33 -246c0 -86.667 9.16699 -166 27.5 -238s47.5 -134 87.5 -186s91.667 -92.333 155 -121s139.666 -43 228.999 -43
c29.333 0 56.166 0.833008 80.499 2.5s46.833 3.83398 67.5 6.50098s40.167 5.83398 58.5 9.50098l53.5 10.5v436h-299v164z" />
    <glyph glyph-name="H" unicode="H" horiz-adv-x="1436" 
d="M1237 0h-186v682h-666v-682h-186v1462h186v-616h666v616h186v-1462z" />
    <glyph glyph-name="I" unicode="I" horiz-adv-x="694" 
d="M612 0h-530v102l172 41v1176l-172 41v102h530v-102l-172 -41v-1176l172 -41v-102z" />
    <glyph glyph-name="J" unicode="J" horiz-adv-x="555" 
d="M-29 -389c-34 0 -63.667 2.16895 -89 6.50195s-47.333 10.166 -66 17.499v160c22.667 -6 47 -10.833 73 -14.5s54 -5.5 84 -5.5c24.667 0 49.5 3.16699 74.5 9.5s47.667 17.833 68 34.5s36.833 39.667 49.5 69s19 66.666 19 111.999v1462h187v-1442
c0 -70 -9.83301 -130.667 -29.5 -182s-47 -93.833 -82 -127.5s-77 -58.667 -126 -75s-103.167 -24.5 -162.5 -24.5z" />
    <glyph glyph-name="K" unicode="K" horiz-adv-x="1186" 
d="M1186 0h-211l-451 698l-139 -114v-584h-186v1462h186v-731l121 168l452 563h209l-520 -637z" />
    <glyph glyph-name="L" unicode="L" horiz-adv-x="1006" 
d="M199 0v1462h186v-1296h573v-166h-759z" />
    <glyph glyph-name="M" unicode="M" horiz-adv-x="1782" 
d="M803 0l-443.001 1280h-8c4 -49.333 7.33301 -98.333 10 -147c2.66699 -42 4.83398 -86.167 6.50098 -132.5s2.5 -88.5 2.5 -126.5v-874h-172v1462h276l412 -1192h6l414 1192h276v-1462h-186v887c0 34.667 0.666992 74.334 2 119.001s3 87.334 5 128.001
c2.66699 47.333 5 95.333 7 144h-8l-447 -1278h-153z" />
    <glyph glyph-name="N" unicode="N" horiz-adv-x="1493" 
d="M1294 0h-215.001l-719 1210h-8c4 -51.333 7.33301 -102.333 10 -153c2.66699 -43.333 4.83398 -88.666 6.50098 -135.999s2.5 -90 2.5 -128v-793h-172v1462h213l716 -1204h7c-2 50.667 -4.33301 100.667 -7 150c-0.666992 21.333 -1.5 43.166 -2.5 65.499l-3 67
c-1 22.333 -1.66699 43.833 -2 64.5s-0.5 39.667 -0.5 57v800h174v-1462z" />
    <glyph glyph-name="O" unicode="O" horiz-adv-x="1520" 
d="M1393 733c0 -112.667 -13.498 -215.33 -40.498 -307.997s-67.167 -172 -120.5 -238s-119.5 -117 -198.5 -153s-170.167 -54 -273.5 -54c-108.667 0 -202.834 18 -282.501 54s-145.667 87 -198 153s-91.166 145.5 -116.499 238.5s-38 196.167 -38 309.5
s12.667 216.166 38 308.499s64.333 171.166 117 236.499s119 115.833 199 151.5s174.333 53.5 283 53.5c103.333 0 194.166 -17.833 272.499 -53.5s144.166 -86.334 197.499 -152.001s93.5 -144.667 120.5 -237s40.5 -195.5 40.5 -309.5zM322.002 733.004
c0 -91.333 8.66602 -173.5 25.999 -246.5s43.833 -135 79.5 -186s81 -90 136 -117s120.5 -40.5 196.5 -40.5s141.5 13.5 196.5 40.5s100.333 66 136 117s61.834 113 78.501 186s25 155.167 25 246.5c0 92 -8.33301 174.333 -25 247s-42.667 134.167 -78 184.5
s-80.333 89 -135 116s-120 40.5 -196 40.5s-141.667 -13.5 -197 -40.5s-101 -65.667 -137 -116s-62.667 -111.833 -80 -184.5s-26 -155 -26 -247z" />
    <glyph glyph-name="P" unicode="P" horiz-adv-x="1180" 
d="M1075 1034c0 -60.667 -9.16699 -119.001 -27.5 -175.001s-48.5 -105.5 -90.5 -148.5s-97.5 -77.333 -166.5 -103s-154.167 -38.5 -255.5 -38.5h-150v-569h-186v1462h362c89.333 0 166.333 -9.5 231 -28.5s118 -46.667 160 -83s73 -81.166 93 -134.499s30 -114 30 -182z
M385 726.999l129.002 -0.00292969c62 0 116.167 5.33301 162.5 16s84.666 27.834 114.999 51.501s53.166 54.334 68.499 92.001s23 83.5 23 137.5c0 94.667 -27.333 164.834 -82 210.501s-140 68.5 -256 68.5h-160v-576z" />
    <glyph glyph-name="Q" unicode="Q" horiz-adv-x="1518" 
d="M1393 733c0 -87.333 -8.16504 -168.664 -24.498 -243.997s-40.333 -143.166 -72 -203.499s-71.167 -112.5 -118.5 -156.5s-102 -78.667 -164 -104c28.667 -62.667 65.834 -117.834 111.501 -165.501s98.5 -91.5 158.5 -131.5l-121 -142
c-68.667 48.667 -131.834 106 -189.501 172s-103.5 141.333 -137.5 226c-11.333 -1.33301 -23.833 -2.33301 -37.5 -3s-26.5 -1 -38.5 -1c-108.667 0 -202.834 18 -282.501 54s-145.667 87 -198 153s-91.166 145.5 -116.499 238.5s-38 196.167 -38 309.5
s12.667 216.166 38 308.499s64.333 171.166 117 236.499s119 115.833 199 151.5s174.333 53.5 283 53.5c103.333 0 194.166 -17.833 272.499 -53.5s144.166 -86.334 197.499 -152.001s93.5 -144.667 120.5 -237s40.5 -195.5 40.5 -309.5zM322.002 733.002
c0 -91.333 8.66602 -173.5 25.999 -246.5s43.833 -135 79.5 -186s81 -90 136 -117s120.5 -40.5 196.5 -40.5s141.5 13.5 196.5 40.5s100.333 66 136 117s61.834 113 78.501 186s25 155.167 25 246.5c0 92 -8.33301 174.333 -25 247s-42.667 134.167 -78 184.5
s-80.333 89 -135 116s-120 40.5 -196 40.5s-141.667 -13.5 -197 -40.5s-101 -65.667 -137 -116s-62.667 -111.833 -80 -184.5s-26 -155 -26 -247z" />
    <glyph glyph-name="R" unicode="R" horiz-adv-x="1208" 
d="M385 604l0.000976562 -604h-186v1462h356c177.333 0 308.333 -34.333 393 -103s127 -172.667 127 -312c0 -58 -8.16699 -108.667 -24.5 -152s-38 -80.5 -65 -111.5s-57.833 -56.833 -92.5 -77.5s-70.334 -37.667 -107.001 -51l398 -655h-219l-351 604h-229zM385.001 762
l164.001 0.000976562c60 0 111 5.83301 153 17.5s76.5 29 103.5 52s46.667 51.667 59 86s18.5 74.5 18.5 120.5c0 48 -6.83301 88.667 -20.5 122s-34.334 60.666 -62.001 81.999s-62.667 36.833 -105 46.5s-92.5 14.5 -150.5 14.5h-160v-541z" />
    <glyph glyph-name="S" unicode="S" horiz-adv-x="1063" 
d="M969 391c0 -64.667 -11.5029 -122.503 -34.5029 -173.503s-55.833 -94.167 -98.5 -129.5s-94.667 -62.166 -156 -80.499s-130.333 -27.5 -207 -27.5c-74 0 -143.167 5.83301 -207.5 17.5s-118.166 28.834 -161.499 51.501v178c22.667 -10.667 48.5 -21.167 77.5 -31.5
s59.5 -19.5 91.5 -27.5s65 -14.5 99 -19.5s67.667 -7.5 101 -7.5c106.667 0 185.5 20 236.5 60s76.5 97.333 76.5 172c0 36 -4.83301 67.333 -14.5 94s-26.667 51.167 -51 73.5s-56.833 44 -97.5 65s-92 43.833 -154 68.5c-59.333 23.333 -110.833 48.833 -154.5 76.5
s-79.667 58.834 -108 93.501s-49.333 74 -63 118s-20.5 94 -20.5 150c0 58.667 10.667 111 32 157s51.333 84.833 90 116.5s84.834 55.834 138.501 72.501s112.834 25 177.501 25c79.333 0 150.666 -7.5 213.999 -22.5s119.666 -34.167 168.999 -57.5l-67 -156
c-43.333 19.333 -92.5 36.166 -147.5 50.499s-111.833 21.5 -170.5 21.5c-81.333 0 -144.333 -18.833 -189 -56.5s-67 -88.5 -67 -152.5c0 -38 5 -70.833 15 -98.5s26.667 -52.667 50 -75s54.166 -43.333 92.499 -63s85.5 -40.5 141.5 -62.5
c60.667 -24 113.834 -48.667 159.501 -74s83.834 -54 114.501 -86s53.834 -69 69.501 -111s23.5 -91.667 23.5 -149z" />
    <glyph glyph-name="T" unicode="T" horiz-adv-x="1063" 
d="M625 0h-187v1298h-418v164h1022v-164h-417v-1298z" />
    <glyph glyph-name="U" unicode="U" horiz-adv-x="1430" 
d="M1245 1464l-0.00195312 -947.998c0 -76 -11 -146.667 -33 -212s-55.167 -122 -99.5 -170s-100 -85.667 -167 -113s-145.833 -41 -236.5 -41c-85.333 0 -160.666 12.833 -225.999 38.5s-120.166 62.167 -164.499 109.5s-77.833 104.166 -100.5 170.499
s-34 140.166 -34 221.499v942h187v-952c0 -116.667 28.833 -207 86.5 -271s144.834 -96 261.501 -96c59.333 0 110.333 9 153 27s77.667 43.333 105 76s47.666 71.667 60.999 117s20.333 95 21 149v952h186z" />
    <glyph glyph-name="V" unicode="V" horiz-adv-x="1163" 
d="M965 1462l198 0.000976562l-489 -1462h-187l-487 1462h197l295 -927c19.333 -60.667 36 -119.167 50 -175.5l38 -158.5c10 49.333 22.667 102.166 38 158.499s33.333 116.833 54 181.5z" />
    <glyph glyph-name="W" unicode="W" horiz-adv-x="1810" 
d="M809 1462l196.998 -0.00292969l229 -856l29.5 -112l27 -108.5c8.33301 -35 15.666 -68.167 21.999 -99.5s11.5 -59.666 15.5 -84.999c2.66699 25.333 6 53 10 83s8.66699 61.5 14 94.5s11.166 66.667 17.499 101s13.166 67.833 20.499 100.5l200 882h199l-367 -1462h-188
l-254 938c-9.33301 34 -18.333 69 -27 105l-24 101l-23 107l-22 -106l-22.5 -103c-8.33301 -37.333 -17.166 -74 -26.499 -110l-242 -932h-188l-386 1462h197l223 -889c8 -30.667 15.333 -62.5 22 -95.5s12.834 -65.833 18.501 -98.5s10.834 -64.167 15.501 -94.5
s8.66699 -58.166 12 -83.499c3.33301 24.667 7.5 53.334 12.5 86.001s10.833 67 17.5 103s13.834 72.5 21.501 109.5s15.834 71.833 24.501 104.5z" />
    <glyph glyph-name="X" unicode="X" horiz-adv-x="1120" 
d="M1120 0h-211l-354 635l-367 -635h-188l453 764l-422 698h198l332 -559l334 559h190l-421 -692z" />
    <glyph glyph-name="Y" unicode="Y" horiz-adv-x="1079" 
d="M539 723l340 739h200l-446 -893v-569h-187v559l-446 903h203z" />
    <glyph glyph-name="Z" unicode="Z" horiz-adv-x="1104" 
d="M1022 0h-940v145l711 1151h-691v166h899v-145l-710 -1151h731v-166z" />
    <glyph glyph-name="bracketleft" unicode="[" horiz-adv-x="621" 
d="M569 -324h-405v1786h405v-149h-223v-1487h223v-150z" />
    <glyph glyph-name="backslash" unicode="\" horiz-adv-x="764" 
d="M201 1462l544 -1462h-178l-544 1462h178z" />
    <glyph glyph-name="bracketright" unicode="]" horiz-adv-x="621" 
d="M51 -174h223v1487h-223v149h406v-1786h-406v150z" />
    <glyph glyph-name="asciicircum" unicode="^" horiz-adv-x="1090" 
d="M41 549l459 924h102l447 -924h-161l-337 735l-349 -735h-161z" />
    <glyph glyph-name="underscore" unicode="_" horiz-adv-x="842" 
d="M846 -324h-850v140h850v-140z" />
    <glyph glyph-name="grave" unicode="`" horiz-adv-x="1182" 
d="M786 1241l-120.001 -0.00195312c-23.333 18.667 -48.666 41.834 -75.999 69.501s-53.833 56.167 -79.5 85.5s-49 57.5 -70 84.5s-36.833 49.5 -47.5 67.5v21h219c10.667 -22.667 23.167 -47.5 37.5 -74.5l44.5 -81c15.333 -27 31 -53.167 47 -78.5s31 -47.666 45 -66.999
v-27z" />
    <glyph glyph-name="a" unicode="a" horiz-adv-x="1087" 
d="M793 0l-37.001 152h-8c-22 -30 -44 -55.833 -66 -77.5s-46 -39.5 -72 -53.5s-55 -24.333 -87 -31s-69 -10 -111 -10c-46 0 -88.333 6.5 -127 19.5s-72.167 33 -100.5 60s-50.5 61 -66.5 102s-24 89.5 -24 145.5c0 109.333 38.5 193.333 115.5 252
s194.167 90.667 351.5 96l184 7v69c0 44.667 -4.83301 82 -14.5 112s-23.667 54.167 -42 72.5s-41 31.5 -68 39.5s-57.833 12 -92.5 12c-55.333 0 -106.833 -8 -154.5 -24s-93.5 -35.333 -137.5 -58l-64 137c49.333 26.667 104.333 49.334 165 68.001s124.334 28 191.001 28
c68 0 126.833 -6.83301 176.5 -20.5s90.667 -35.334 123 -65.001s56.5 -67.5 72.5 -113.5s24 -101.667 24 -167v-752h-131zM458.999 127c40.667 0 78.334 6.33301 113.001 19s64.667 31.834 90 57.501s45.166 58 59.499 97s21.5 84.833 21.5 137.5v99l-143 -7
c-60 -2.66699 -110.333 -9.33398 -151 -20.001s-73.167 -25.5 -97.5 -44.5s-41.833 -42 -52.5 -69s-16 -57.5 -16 -91.5c0 -61.333 16.167 -106.333 48.5 -135s74.833 -43 127.5 -43z" />
    <glyph glyph-name="b" unicode="b" horiz-adv-x="1200" 
d="M670 1118c62.667 0 119.669 -11.998 171.002 -35.998s95.166 -59.833 131.499 -107.5s64.5 -106.834 84.5 -177.501s30 -152.667 30 -246c0 -94 -10 -176.5 -30 -247.5s-48.167 -130.5 -84.5 -178.5s-80.166 -84.167 -131.499 -108.5s-108.333 -36.5 -171 -36.5
c-39.333 0 -75 4.33301 -107 13s-60.833 20.167 -86.5 34.5s-48.334 31.166 -68.001 50.499s-37.167 39.666 -52.5 60.999h-12l-37 -139h-133v1556h182v-376c0 -23.333 -0.333008 -48.166 -1 -74.499s-1.66699 -50.833 -3 -73.5l-4 -78h8c15.333 23.333 32.666 45 51.999 65
s41.833 37.333 67.5 52s54.5 26.167 86.5 34.5s68 12.5 108 12.5zM635.002 967.002c-53.333 0 -97.833 -8.50195 -133.5 -25.502s-64.334 -42.833 -86.001 -77.5s-37 -78 -46 -130s-13.5 -113 -13.5 -183c0 -67.333 4.5 -127.166 13.5 -179.499s24.333 -96.333 46 -132
s50.5 -62.667 86.5 -81s81 -27.5 135 -27.5c90 0 156.167 36.333 198.5 109s63.5 177 63.5 313c0 138.667 -21.167 242.334 -63.5 311.001s-109.166 103 -200.499 103z" />
    <glyph glyph-name="c" unicode="c" horiz-adv-x="948" 
d="M594 -20c-67.333 0 -130.332 10.499 -188.999 31.499s-109.667 54.333 -153 100s-77.333 104 -102 175s-37 156.5 -37 256.5c0 104.667 12.667 193.5 38 266.5s60.166 132.333 104.499 178s96.166 78.834 155.499 99.501s123 31 191 31c52 0 102.833 -5.66699 152.5 -17
s91.167 -25.333 124.5 -42l-54 -154c-15.333 6.66699 -32.333 13.167 -51 19.5s-38 12 -58 17s-39.667 9 -59 12s-37.666 4.5 -54.999 4.5c-104.667 0 -181 -33.5 -229 -100.5s-72 -171.167 -72 -312.5c0 -140.667 24.167 -243.5 72.5 -308.5s121.833 -97.5 220.5 -97.5
c54 0 102.833 6.16699 146.5 18.5s83.5 26.833 119.5 43.5v-162c-36 -19.333 -74.5 -34 -115.5 -44s-91.167 -15 -150.5 -15z" />
    <glyph glyph-name="d" unicode="d" horiz-adv-x="1200" 
d="M852 147l-7.99805 -0.00195312c-14.667 -22.667 -31.834 -44.167 -51.501 -64.5s-42.334 -38.166 -68.001 -53.499s-54.5 -27.333 -86.5 -36s-68 -13 -108 -13c-62 0 -118.667 12 -170 36s-95.333 59.833 -132 107.5s-65 106.834 -85 177.501s-30 152.667 -30 246
c0 94 10 176.5 30 247.5s48.333 130.5 85 178.5s80.667 84.167 132 108.5s108 36.5 170 36.5c39.333 0 75 -4.33301 107 -13s60.833 -20.334 86.5 -35.001s48.5 -31.667 68.5 -51s37.333 -39.666 52 -60.999h12l-6 65l-4 53.5c-1.33301 18.333 -2 32.833 -2 43.5v436h182
v-1556h-147zM565.002 130.998c50.667 0 93.502 7.66797 128.502 23.001s63.333 38.666 85 69.999s37.667 70.5 48 117.5s16.166 101.833 17.499 164.5v41c0 67.333 -4.5 127.166 -13.5 179.499s-24.333 96.333 -46 132s-50.5 62.667 -86.5 81s-81 27.5 -135 27.5
c-90 0 -156.167 -36.333 -198.5 -109s-63.5 -177 -63.5 -313c0 -139.333 21.167 -243.166 63.5 -311.499s109.166 -102.5 200.499 -102.5z" />
    <glyph glyph-name="e" unicode="e" horiz-adv-x="1096" 
d="M608 -20c-73.333 0 -140.333 12.334 -201 37.001s-112.834 60.667 -156.501 108s-77.5 106 -101.5 176s-36 150 -36 240c0 90.667 11 171.667 33 243s53 131.833 93 181.5s87.833 87.5 143.5 113.5s117.167 39 184.5 39c66 0 125.333 -11.833 178 -35.5
s97.334 -57 134.001 -100s64.834 -94.667 84.501 -155s29.5 -127.166 29.5 -200.499v-113h-692c3.33301 -128.667 30.5 -223.334 81.5 -284.001s126.833 -91 227.5 -91c34 0 65.5 1.66699 94.5 5s57 8.16602 84 14.499s53.167 14.333 78.5 24s51 20.5 77 32.5v-162
c-26.667 -12.667 -52.834 -23.667 -78.501 -33s-52 -17 -79 -23s-55 -10.333 -84 -13s-60.5 -4 -94.5 -4zM563 967.001c-76 0 -136.169 -26.002 -180.502 -78.002s-70.166 -127.667 -77.499 -227h492c0 45.333 -4.5 86.833 -13.5 124.5s-23 69.834 -42 96.501
s-43.167 47.334 -72.5 62.001s-64.666 22 -105.999 22z" />
    <glyph glyph-name="f" unicode="f" horiz-adv-x="674" 
d="M651 961h-244.999v-961h-183v961h-194v75l194 68v96c0 71.333 7.5 130.5 22.5 177.5s36.667 84.5 65 112.5s63.166 47.833 104.499 59.5s88 17.5 140 17.5c39.333 0 75.5 -3.83301 108.5 -11.5s62.5 -16.167 88.5 -25.5l-47 -141
c-20.667 7.33301 -43.167 13.833 -67.5 19.5s-49.833 8.5 -76.5 8.5s-49.667 -3.16699 -69 -9.5s-35.333 -17.5 -48 -33.5s-22.167 -37.833 -28.5 -65.5s-9.5 -63.167 -9.5 -106.5v-104h245v-137z" />
    <glyph glyph-name="g" unicode="g" horiz-adv-x="1061" 
d="M1020 1098l-0.00292969 -113.002l-197 -27c18.667 -23.333 34.334 -53.166 47.001 -89.499s19 -77.5 19 -123.5c0 -50.667 -7.83301 -97.5 -23.5 -140.5s-39.334 -80.167 -71.001 -111.5s-70.834 -55.833 -117.501 -73.5s-101 -26.5 -163 -26.5
c-14.667 0 -29.334 0.166992 -44.001 0.5s-26.667 1.5 -36 3.5c-11.333 -6.66699 -22.5 -14.167 -33.5 -22.5s-21 -17.833 -30 -28.5s-16.333 -22.667 -22 -36s-8.5 -28 -8.5 -44c0 -18 4 -32.5 12 -43.5s18.833 -19.5 32.5 -25.5s29.834 -10 48.501 -12
s38.334 -3 59.001 -3h176c62 0 114.333 -7.83301 157 -23.5s77.5 -36.834 104.5 -63.501s46.5 -58.167 58.5 -94.5s18 -74.833 18 -115.5c0 -58.667 -10.833 -111.334 -32.5 -158.001s-54.834 -86.167 -99.501 -118.5s-101.167 -57.166 -169.5 -74.499
s-148.833 -26 -241.5 -26c-71.333 0 -133.666 7 -186.999 21s-97.666 34.333 -132.999 61s-61.833 58.834 -79.5 96.501s-26.5 80.167 -26.5 127.5c0 40 6.5 75.167 19.5 105.5s30.5 56.5 52.5 78.5s47.5 40 76.5 54s59.167 24.667 90.5 32c-28 12.667 -51 32.667 -69 60
s-27 58.666 -27 93.999c0 40.667 10.667 75.834 32 105.501s55 58.5 101 86.5c-28.667 12 -54.834 28.5 -78.501 49.5s-43.667 45 -60 72s-29 56.5 -38 88.5s-13.5 65 -13.5 99c0 59.333 8.33301 112.333 25 159s41.334 86.334 74.001 119.001s73.334 57.667 122.001 75
s105.334 26 170.001 26c24.667 0 50.167 -1.83301 76.5 -5.5s48.5 -8.5 66.5 -14.5h363zM208.997 -180.002c0 -24.667 4.33105 -47.666 12.998 -68.999s22.834 -39.666 42.501 -54.999s45.667 -27.5 78 -36.5s72.5 -13.5 120.5 -13.5c124 0 216.833 19.167 278.5 57.5
s92.5 93.5 92.5 165.5c0 30.667 -4 55.667 -12 75s-21.167 34.5 -39.5 45.5s-42.5 18.5 -72.5 22.5s-66.667 6 -110 6h-176c-23.333 0 -47.666 -2.66699 -72.999 -8s-48.5 -15.333 -69.5 -30s-38.333 -34.834 -52 -60.501s-20.5 -58.834 -20.5 -99.501zM300.995 744.999
c0 -76.667 18 -133.667 54 -171s87 -56 153 -56c66.667 0 117.167 18.5 151.5 55.5s51.5 95.167 51.5 174.5c0 82 -17.5 142.333 -52.5 181s-85.833 58 -152.5 58c-66 0 -116.667 -20 -152 -60s-53 -100.667 -53 -182z" />
    <glyph glyph-name="h" unicode="h" horiz-adv-x="1206" 
d="M860 0v707c0 86.667 -17.5 151.667 -52.5 195s-89.833 65 -164.5 65c-54 0 -99.333 -8.66699 -136 -26s-66.167 -43 -88.5 -77s-38.333 -75.667 -48 -125s-14.5 -106 -14.5 -170v-569h-182v1556h182v-462l-8 -144h10c16.667 28.667 36.5 53.5 59.5 74.5
s48.167 38.5 75.5 52.5s56.333 24.333 87 31s62 10 94 10c122 0 213.833 -31.833 275.5 -95.5s92.5 -165.5 92.5 -305.5v-717h-182z" />
    <glyph glyph-name="i" unicode="i" horiz-adv-x="530" 
d="M356 0h-182v1098h182v-1098zM160 1395c0 40 10.166 68.998 30.499 86.998s45.5 27 75.5 27c14.667 0 28.5 -2.16699 41.5 -6.5s24.333 -11.166 34 -20.499s17.334 -21.166 23.001 -35.499s8.5 -31.5 8.5 -51.5c0 -38.667 -10.5 -67.5 -31.5 -86.5
s-46.167 -28.5 -75.5 -28.5c-30 0 -55.167 9.33301 -75.5 28s-30.5 47.667 -30.5 87z" />
    <glyph glyph-name="j" unicode="j" horiz-adv-x="530" 
d="M66 -492c-32 0 -58.5 2.33398 -79.5 7.00098s-39.167 10.667 -54.5 18v148c17.333 -6.66699 35 -11.834 53 -15.501s38.667 -5.5 62 -5.5c18 0 34.667 2.5 50 7.5s28.833 14 40.5 27s20.667 30.333 27 52s9.5 49.5 9.5 83.5v1268h182v-1256
c0 -51.333 -5.66699 -97.5 -17 -138.5s-29 -76 -53 -105s-54.167 -51.333 -90.5 -67s-79.5 -23.5 -129.5 -23.5zM160 1395c0 40 10.166 68.998 30.499 86.998s45.5 27 75.5 27c14.667 0 28.5 -2.16699 41.5 -6.5s24.333 -11.166 34 -20.499s17.334 -21.166 23.001 -35.499
s8.5 -31.5 8.5 -51.5c0 -38.667 -10.5 -67.5 -31.5 -86.5s-46.167 -28.5 -75.5 -28.5c-30 0 -55.167 9.33301 -75.5 28s-30.5 47.667 -30.5 87z" />
    <glyph glyph-name="k" unicode="k" horiz-adv-x="1016" 
d="M342 567l135 170l293 361h211l-401 -475l428 -623h-209l-336 504l-109 -82v-422h-180v1556h180v-714l-16 -275h4z" />
    <glyph glyph-name="l" unicode="l" horiz-adv-x="530" 
d="M356 0h-182v1556h182v-1556z" />
    <glyph glyph-name="m" unicode="m" horiz-adv-x="1835" 
d="M1489 0v707c0 86.667 -16.667 151.667 -50 195s-85 65 -155 65c-48.667 0 -90 -7.83301 -124 -23.5s-61.833 -38.667 -83.5 -69s-37.5 -68 -47.5 -113s-15 -96.833 -15 -155.5v-606h-183v707c0 86.667 -16.5 151.667 -49.5 195s-84.5 65 -154.5 65
c-51.333 0 -94.333 -8.66699 -129 -26s-62.5 -43 -83.5 -77s-36 -75.667 -45 -125s-13.5 -106 -13.5 -170v-569h-182v1098h148l26 -148h10c16 28.667 35 53.5 57 74.5s46.167 38.5 72.5 52.5s54.333 24.333 84 31s59.834 10 90.501 10c80 0 146.5 -14.667 199.5 -44
s92.167 -75.333 117.5 -138h8c17.333 31.333 38.166 58.333 62.499 81s51 41.5 80 56.5s59.5 26.167 91.5 33.5s64.667 11 98 11c116.667 0 204.5 -31.833 263.5 -95.5s88.5 -165.5 88.5 -305.5v-717h-182z" />
    <glyph glyph-name="n" unicode="n" horiz-adv-x="1206" 
d="M860 0v707c0 86.667 -17.5 151.667 -52.5 195s-89.833 65 -164.5 65c-54 0 -99.333 -8.66699 -136 -26s-66.167 -43 -88.5 -77s-38.333 -75.667 -48 -125s-14.5 -106 -14.5 -170v-569h-182v1098h148l26 -148h10c16.667 28.667 36.5 53.5 59.5 74.5s48.167 38.5 75.5 52.5
s56.333 24.333 87 31s62 10 94 10c122 0 213.833 -31.833 275.5 -95.5s92.5 -165.5 92.5 -305.5v-717h-182z" />
    <glyph glyph-name="o" unicode="o" horiz-adv-x="1182" 
d="M1069 551c0 -91.333 -11.166 -172.5 -33.499 -243.5s-54.333 -130.667 -96 -179s-92.167 -85.166 -151.5 -110.499s-126 -38 -200 -38c-68.667 0 -132 12.667 -190 38s-108.167 62.166 -150.5 110.499s-75.333 108 -99 179s-35.5 152.167 -35.5 243.5
c0 90.667 11.167 171.167 33.5 241.5s54.166 129.666 95.499 177.999s91.833 85 151.5 110s126.5 37.5 200.5 37.5c68.667 0 132 -12.5 190 -37.5s108.167 -61.667 150.5 -110s75.333 -107.666 99 -177.999s35.5 -150.833 35.5 -241.5zM301.001 551
c0 -139.333 22.833 -244.166 68.5 -314.499s119.834 -105.5 222.501 -105.5s176.5 35.167 221.5 105.5s67.5 175.166 67.5 314.499s-22.833 243.5 -68.5 312.5s-119.834 103.5 -222.501 103.5s-176.5 -34.5 -221.5 -103.5s-67.5 -173.167 -67.5 -312.5z" />
    <glyph glyph-name="p" unicode="p" horiz-adv-x="1200" 
d="M670 -20c-39.333 0 -74.998 4.33691 -106.998 13.0039s-60.833 20.167 -86.5 34.5s-48.334 31.166 -68.001 50.499s-37.167 39.666 -52.5 60.999h-12l6 -65l4 -53.5c1.33301 -18.333 2 -32.833 2 -43.5v-469h-182v1590h148l26 -148h8
c15.333 23.333 32.666 45.166 51.999 65.499s41.833 38 67.5 53s54.5 27 86.5 36s68 13.5 108 13.5c62.667 0 119.667 -12 171 -36s95.166 -59.833 131.499 -107.5s64.5 -106.834 84.5 -177.501s30 -152.667 30 -246c0 -94 -10 -176.5 -30 -247.5
s-48.167 -130.5 -84.5 -178.5s-80.166 -84.167 -131.499 -108.5s-108.333 -36.5 -171 -36.5zM635.002 967.004c-50.667 0 -93.502 -7.66992 -128.502 -23.0029s-63.333 -38.666 -85 -69.999s-37.667 -70.333 -48 -117s-16.166 -101.667 -17.499 -165v-41
c0 -67.333 4.5 -127.166 13.5 -179.499s24.333 -96.333 46 -132s50.5 -62.667 86.5 -81s81 -27.5 135 -27.5c90 0 156.167 36.333 198.5 109s63.5 177 63.5 313c0 138.667 -21.167 242.334 -63.5 311.001s-109.166 103 -200.499 103z" />
    <glyph glyph-name="q" unicode="q" horiz-adv-x="1200" 
d="M565 131c50.667 0 93.502 7.66797 128.502 23.001s63.333 38.666 85 69.999s37.667 70.5 48 117.5s16.166 101.833 17.499 164.5v41c0 67.333 -4.5 127.166 -13.5 179.499s-24.333 96.333 -46 132s-50.5 62.667 -86.5 81s-81 27.5 -135 27.5
c-90 0 -156.167 -36.333 -198.5 -109s-63.5 -177 -63.5 -313c0 -139.333 21.167 -243.166 63.5 -311.499s109.166 -102.5 200.499 -102.5zM530.002 -19.999c-62 0 -118.665 11.9971 -169.998 35.9971s-95.333 59.833 -132 107.5s-65 106.834 -85 177.501
s-30 152.667 -30 246c0 94 10 176.5 30 247.5s48.333 130.5 85 178.5s80.667 84.167 132 108.5s108 36.5 170 36.5c39.333 0 75 -4.5 107 -13.5s60.667 -21 86 -36s48 -32.667 68 -53s37.667 -42.166 53 -65.499h8l27 148h147v-1590h-182v469c0 12.667 0.666992 28.667 2 48
l4 56l6 66h-12c-14.667 -22.667 -31.834 -44.167 -51.501 -64.5s-42.334 -38.166 -68.001 -53.499s-54.5 -27.333 -86.5 -36s-68 -13 -108 -13z" />
    <glyph glyph-name="r" unicode="r" horiz-adv-x="817" 
d="M649 1118c19.333 0 41.002 -0.832031 65.002 -2.49902s44.667 -4.16699 62 -7.5l-24 -168c-18.667 3.33301 -37.834 6.16602 -57.501 8.49902s-38.167 3.5 -55.5 3.5c-42 0 -80.333 -8.5 -115 -25.5s-64.5 -41.333 -89.5 -73s-44.333 -69.667 -58 -114
s-20.5 -93.5 -20.5 -147.5v-592h-182v1098h148l22 -201h8c16.667 28.667 34.5 56.334 53.5 83.001s40.333 50.167 64 70.5s50.167 36.666 79.5 48.999s62.666 18.5 99.999 18.5z" />
    <glyph glyph-name="s" unicode="s" horiz-adv-x="924" 
d="M831 301c0 -53.333 -9.66797 -100.007 -29.001 -140.007s-47.166 -73.5 -83.499 -100.5s-80.166 -47.167 -131.499 -60.5s-109 -20 -173 -20c-72.667 0 -135 5.83301 -187 17.5s-97.667 28.834 -137 51.501v166c20.667 -10.667 43.667 -21.167 69 -31.5
s52 -19.5 80 -27.5s56.833 -14.5 86.5 -19.5s59.167 -7.5 88.5 -7.5c43.333 0 80.166 3.66699 110.499 11s55 17.833 74 31.5s32.833 30.334 41.5 50.001s13 41.5 13 65.5c0 20.667 -3.33301 39.334 -10 56.001s-18.834 33.167 -36.501 49.5s-41.834 32.833 -72.501 49.5
s-70 35.334 -118 56.001s-91.167 41 -129.5 61s-70.833 42.333 -97.5 67s-47.167 53.167 -61.5 85.5s-21.5 70.833 -21.5 115.5c0 46.667 9.16699 88.167 27.5 124.5s44.166 66.833 77.499 91.5s73.333 43.334 120 56.001s98.667 19 156 19c64.667 0 123.834 -7 177.501 -21
s104.5 -32.333 152.5 -55l-63 -147c-43.333 19.333 -87.833 36.166 -133.5 50.499s-92.167 21.5 -139.5 21.5c-68 0 -118.333 -11.167 -151 -33.5s-49 -54.166 -49 -95.499c0 -23.333 3.83301 -43.666 11.5 -60.999s20.834 -33.666 39.501 -48.999s43.667 -30.833 75 -46.5
s70.333 -33.167 117 -52.5c48 -20 90.833 -40 128.5 -60s69.834 -42.5 96.501 -67.5s47 -53.5 61 -85.5s21 -70.333 21 -115z" />
    <glyph glyph-name="t" unicode="t" horiz-adv-x="694" 
d="M506 129c12 0 25.5 0.668945 40.5 2.00195s29.5 3 43.5 5s26.833 4.33301 38.5 7s20.5 5 26.5 7v-138c-8.66699 -4 -19.667 -8 -33 -12s-28 -7.5 -44 -10.5s-32.667 -5.33301 -50 -7s-34.333 -2.5 -51 -2.5c-41.333 0 -79.666 5.33301 -114.999 16s-65.833 29 -91.5 55
s-45.834 61.167 -60.501 105.5s-22 100.166 -22 167.499v637h-155v81l155 78l78 230h105v-252h276v-137h-276v-637c0 -64.667 10.5 -113.334 31.5 -146.001s55.5 -49 103.5 -49z" />
    <glyph glyph-name="u" unicode="u" horiz-adv-x="1206" 
d="M885 0l-26.999 147h-10c-16.667 -28.667 -36.5 -53.5 -59.5 -74.5s-48.167 -38.333 -75.5 -52s-56.333 -23.834 -87 -30.501s-62 -10 -94 -10c-60.667 0 -114 7.66699 -160 23s-84.333 39.333 -115 72s-53.834 74.334 -69.501 125.001s-23.5 111 -23.5 181v717h182v-707
c0 -86.667 17.667 -151.667 53 -195s90 -65 164 -65c54 0 99.333 8.66699 136 26s66.167 42.833 88.5 76.5s38.333 75.167 48 124.5s14.5 106 14.5 170v570h182v-1098h-147z" />
    <glyph glyph-name="v" unicode="v" horiz-adv-x="981" 
d="M375 0l-375 1098h188l199 -611c7.33301 -22 16 -50.333 26 -85l30 -106l27.5 -102c8.33301 -32 13.833 -56.333 16.5 -73h7c3.33301 16.667 9 41 17 73s17 66 27 102l30 106c10 34.667 18.667 63 26 85l199 611h188l-375 -1098h-231z" />
    <glyph glyph-name="w" unicode="w" horiz-adv-x="1528" 
d="M1008 0l-168.003 615.998c-2.66699 12 -6 25.5 -10 40.5s-8 30.833 -12 47.5l-12.5 51l-12.5 51l-29 120h-6l-27 -121l-23.5 -103c-8.33301 -35.333 -16.166 -65.333 -23.499 -90l-172 -612h-211l-281 1098h191l131 -584c6.66699 -30 13.334 -62.5 20.001 -97.5l19 -104
c6 -34.333 11.333 -66.666 16 -96.999s8.33398 -55.166 11.001 -74.499h6l13.5 69.5c5.66699 29 12 59.667 19 92l21.5 96c7.33301 31.667 14.333 58.5 21 80.5l179 619h196l172 -619l20.5 -80l22.5 -93.5c7.33301 -31.667 14 -62.167 20 -91.5s10.333 -53.666 13 -72.999h6
c2 17.333 5.16699 40.5 9.5 69.5s9.5 60.833 15.5 95.5s12.5 70.167 19.5 106.5s14.167 70.166 21.5 101.499l137 584h186l-284 -1098h-215z" />
    <glyph glyph-name="x" unicode="x" horiz-adv-x="1024" 
d="M408 563l-353 535h207l250 -410l250 410h207l-355 -535l373 -563h-207l-268 436l-270 -436h-207z" />
    <glyph glyph-name="y" unicode="y" horiz-adv-x="1001" 
d="M10 1098l189.007 -0.00390625l215 -613l28.5 -84c9.66699 -29.333 18.667 -58.666 27 -87.999s15.5 -57.666 21.5 -84.999s10.333 -52.666 13 -75.999h6c3.33301 16.667 8.66602 39.334 15.999 68.001l24.5 91.5c9 32.333 18.333 64.166 28 95.499l25.5 80l199 611h188
l-434 -1241c-18.667 -54 -38.834 -102.5 -60.501 -145.5s-46.834 -79.5 -75.501 -109.5s-62.334 -53.167 -101.001 -69.5s-84.667 -24.5 -138 -24.5c-34.667 0 -64.667 1.83301 -90 5.5s-47 7.5 -65 11.5v145c14 -3.33301 31.667 -6.16602 53 -8.49902
s43.666 -3.5 66.999 -3.5c32 0 59.667 3.83301 83 11.5s43.666 18.834 60.999 33.501s32.166 32.667 44.499 54s23.5 45.666 33.5 72.999l57 160z" />
    <glyph glyph-name="z" unicode="z" horiz-adv-x="903" 
d="M821 0h-739v125l536 836h-503v137h688v-146l-524 -815h542v-137z" />
    <glyph glyph-name="braceleft" unicode="{" horiz-adv-x="725" 
d="M500 -16c0 -32 4 -58.1699 12 -78.5029s19.5 -36.333 34.5 -48s33.333 -19.667 55 -24s45.834 -6.83301 72.501 -7.5v-150c-51.333 0.666992 -98.833 6.5 -142.5 17.5s-81.334 28.333 -113.001 52s-56.5 53.834 -74.5 90.501s-27 81 -27 133v334
c0 68.667 -21.833 117.334 -65.5 146.001s-107.167 43 -190.5 43v155c83.333 0 146.833 14.333 190.5 43s65.5 77.334 65.5 146.001v333c0 52 9 96.333 27 133s42.833 66.834 74.5 90.501s69.334 41 113.001 52s91.167 16.833 142.5 17.5v-149
c-26.667 -0.666992 -50.834 -3.16699 -72.501 -7.5s-40 -12.333 -55 -24s-26.5 -27.667 -34.5 -48s-12 -46.5 -12 -78.5v-332c0 -70 -19.833 -125.5 -59.5 -166.5s-97.834 -68.167 -174.501 -81.5v-12c76.667 -13.333 134.834 -40.333 174.501 -81
s59.5 -96.334 59.5 -167.001v-331z" />
    <glyph glyph-name="bar" unicode="|" 
d="M489 1556h150v-2048h-150v2048z" />
    <glyph glyph-name="braceright" unicode="}" horiz-adv-x="725" 
d="M225 315c0 70.667 19.833 126.336 59.5 167.003s97.834 67.667 174.501 81v12c-76.667 13.333 -134.834 40.5 -174.501 81.5s-59.5 96.5 -59.5 166.5v332c0 32 -4 58.167 -12 78.5s-19.5 36.333 -34.5 48s-33.333 19.667 -55 24s-45.834 6.83301 -72.501 7.5v149
c51.333 -0.666992 98.833 -6.5 142.5 -17.5s81.334 -28.333 113.001 -52s56.5 -53.834 74.5 -90.501s27 -81 27 -133v-333c0 -34.667 5.5 -64 16.5 -88s27.333 -43.5 49 -58.5s48.5 -25.833 80.5 -32.5s68.667 -10 110 -10v-155c-83.333 0 -146.833 -14.333 -190.5 -43
s-65.5 -77.334 -65.5 -146.001v-334c0 -52 -9 -96.333 -27 -133s-42.833 -66.834 -74.5 -90.501s-69.334 -41 -113.001 -52s-91.167 -16.833 -142.5 -17.5v150c26.667 0.666992 50.834 3.16699 72.501 7.5s40 12.333 55 24s26.5 27.667 34.5 48s12 46.5 12 78.5v331z" />
    <glyph glyph-name="asciitilde" unicode="~" 
d="M530 651l-64.499 27c-18.333 7.33301 -35 13.166 -50 17.499s-29.333 7.33301 -43 9s-27.834 2.5 -42.501 2.5c-18.667 0 -38 -3.16699 -58 -9.5s-39.833 -15 -59.5 -26s-38.834 -23.833 -57.501 -38.5s-36.334 -30.334 -53.001 -47.001v162
c66.667 72 149.334 108 248.001 108c19.333 0 37.333 -0.833008 54 -2.5s34.167 -4.66699 52.5 -9s38.666 -10.666 60.999 -18.999s49.166 -19.166 80.499 -32.499l64.5 -27c18.333 -7.33301 35.333 -13.166 51 -17.499s30.167 -7.33301 43.5 -9s27.333 -2.5 42 -2.5
c18.667 0 38 3.16699 58 9.5s39.833 15 59.5 26s38.834 23.833 57.501 38.5s36 30.334 52 47.001v-162c-66 -72 -148.667 -108 -248 -108c-19.333 0 -37.333 0.833008 -54 2.5s-34.167 4.66699 -52.5 9s-38.666 10.666 -60.999 18.999s-49.166 19.166 -80.499 32.499z" />
    <glyph glyph-name="nonbreakingspace" unicode="&#xa0;" horiz-adv-x="532" 
 />
    <glyph glyph-name="exclamdown" unicode="&#xa1;" horiz-adv-x="551" 
d="M213 676h121l51 -1049h-223zM401 979c0 -25.333 -3.16699 -46.833 -9.5 -64.5s-15.333 -32 -27 -43s-25.167 -19 -40.5 -24s-32 -7.5 -50 -7.5c-17.333 0 -33.666 2.5 -48.999 7.5s-28.833 13 -40.5 24s-20.834 25.333 -27.501 43s-10 39.167 -10 64.5
c0 24.667 3.33301 45.667 10 63s15.834 31.666 27.501 42.999s25.167 19.666 40.5 24.999s31.666 8 48.999 8c18 0 34.667 -2.66699 50 -8s28.833 -13.666 40.5 -24.999s20.667 -25.666 27 -42.999s9.5 -38.333 9.5 -63z" />
    <glyph glyph-name="cent" unicode="&#xa2;" 
d="M831 197c-36.667 -10 -80.3301 -15.666 -130.997 -16.999v-200h-137v206c-58 8.66699 -110 25.5 -156 50.5s-85.333 59.667 -118 104s-57.667 99.666 -75 165.999s-26 145.166 -26 236.499c0 94 8.83301 174.833 26.5 242.5s42.667 124.167 75 169.5
s71.666 80.5 117.999 105.5s98.166 41.833 155.499 50.5v172h137v-164c48 -2 94.667 -8.5 140 -19.5s83.333 -24.167 114 -39.5l-53 -154c-15.333 6.66699 -32.333 13.167 -51 19.5s-38 12 -58 17s-39.833 9 -59.5 12s-37.834 4.5 -54.501 4.5
c-104.667 0 -181 -33.667 -229 -101s-72 -171.666 -72 -312.999c0 -140 24.167 -242.5 72.5 -307.5s121.833 -97.5 220.5 -97.5c54 0 102.833 6.16699 146.5 18.5s83.5 26.5 119.5 42.5v-161c-33.333 -18.667 -68.333 -33 -105 -43z" />
    <glyph glyph-name="sterling" unicode="&#xa3;" 
d="M666 1481c70.667 0 135 -7.50293 193 -22.5029s109 -34.167 153 -57.5l-66 -144c-37.333 19.333 -79.5 36.166 -126.5 50.499s-95.5 21.5 -145.5 21.5c-32 0 -61.667 -4.5 -89 -13.5s-51 -23.333 -71 -43s-35.5 -45.167 -46.5 -76.5s-16.5 -69 -16.5 -113v-295h376v-137
h-376v-211c0 -41.333 -3.83301 -76.833 -11.5 -106.5s-18 -55.167 -31 -76.5s-28 -39.166 -45 -53.499s-34.5 -26.833 -52.5 -37.5h748v-166h-991v154c29.333 7.33301 56.166 17.833 80.499 31.5s45.333 31.834 63 54.501s31.5 50.167 41.5 82.5s15 70.833 15 115.5v213
h-198v137h198v324c0 58 9.83301 109.833 29.5 155.5s47 84.334 82 116.001s76.833 55.834 125.5 72.501s102.334 25 161.001 25z" />
    <glyph glyph-name="currency" unicode="&#xa4;" 
d="M186 723c0 39.333 5.83301 76.834 17.5 112.501s27.834 69.167 48.501 100.5l-129 129l98 98l127 -129c31.333 21.333 65 38 101 50s74 18 114 18s77.833 -6 113.5 -18s68.834 -28.667 99.501 -50l129 129l99 -96l-130 -129c20.667 -30.667 37.167 -64.167 49.5 -100.5
s18.5 -74.5 18.5 -114.5s-5.83301 -78.333 -17.5 -115s-28.5 -70 -50.5 -100l127 -127l-96 -96l-129 127c-30.667 -20.667 -63.834 -36.834 -99.501 -48.501s-73.5 -17.5 -113.5 -17.5s-78.333 6 -115 18s-70 28.667 -100 50l-127 -127l-96 96l127 127
c-20.667 30 -36.834 63 -48.501 99s-17.5 74 -17.5 114zM324 723.001c0 -33.333 6.16699 -64.5 18.5 -93.5s29.333 -54.333 51 -76s47 -38.834 76 -51.501s60.167 -19 93.5 -19c34 0 65.833 6.33301 95.5 19s55.5 29.834 77.5 51.501s39.333 47 52 76s19 60.167 19 93.5
c0 34 -6.33301 65.833 -19 95.5s-30 55.5 -52 77.5s-47.833 39.333 -77.5 52s-61.5 19 -95.5 19c-33.333 0 -64.5 -6.33301 -93.5 -19s-54.333 -30 -76 -52s-38.667 -47.833 -51 -77.5s-18.5 -61.5 -18.5 -95.5z" />
    <glyph glyph-name="yen" unicode="&#xa5;" 
d="M563 723l346 739h191l-385 -768h239v-137h-301v-158h301v-137h-301v-262h-178v262h-301v137h301v158h-301v137h234l-379 768h192z" />
    <glyph glyph-name="brokenbar" unicode="&#xa6;" 
d="M489 1556h150v-780h-150v780zM489 289h150v-781h-150v781z" />
    <glyph glyph-name="section" unicode="&#xa7;" horiz-adv-x="995" 
d="M137 809c0 34 4.33301 64.8301 13 92.4971s20.5 52.167 35.5 73.5s32.167 39.5 51.5 54.5s39.333 27.5 60 37.5c-50 25.333 -89.167 57 -117.5 95s-42.5 85 -42.5 141c0 40.667 9.16699 77.334 27.5 110.001s44.166 60.334 77.499 83.001s73.333 40.167 120 52.5
s98.667 18.5 156 18.5c64.667 0 123.167 -6.66699 175.5 -20s102.5 -30.666 150.5 -51.999l-56 -139c-43.333 18.667 -88.333 34.5 -135 47.5s-93.667 19.5 -141 19.5c-66 0 -116 -9.83301 -150 -29.5s-51 -48.5 -51 -86.5c0 -18 4 -34.667 12 -50s21.5 -30.333 40.5 -45
s44.333 -29.834 76 -45.501s70.834 -33.167 117.501 -52.5c48 -18.667 90.833 -38.834 128.5 -60.501s69.5 -45.5 95.5 -71.5s46 -55.167 60 -87.5s21 -69.166 21 -110.499c0 -34.667 -4 -66.167 -12 -94.5s-18.833 -53.833 -32.5 -76.5s-29.167 -42.167 -46.5 -58.5
s-35.333 -29.833 -54 -40.5c46 -25.333 81.667 -56.166 107 -92.499s38 -80.5 38 -132.5c0 -47.333 -9.83301 -89.5 -29.5 -126.5s-47.5 -68.333 -83.5 -94s-79.833 -45.167 -131.5 -58.5s-109.5 -20 -173.5 -20c-72 0 -134 5.5 -186 16.5s-97.667 27.167 -137 48.5v158
c20.667 -10 43.667 -20 69 -30s52 -18.833 80 -26.5s56.833 -13.834 86.5 -18.501s58.834 -7 87.501 -7c46 0 84.5 4 115.5 12s55.667 18.5 74 31.5s31.333 28 39 45s11.5 34.5 11.5 52.5c0 19.333 -2.83301 36.5 -8.5 51.5s-17 30 -34 45s-41.167 30.667 -72.5 47
s-72.333 34.833 -123 55.5c-48.667 20.667 -92.167 41.334 -130.5 62.001s-70.833 44 -97.5 70s-46.834 55.667 -60.501 89s-20.5 72.333 -20.5 117zM291 830.997c0 -24.667 4.6709 -47.502 14.0039 -68.502s24.5 -41.167 45.5 -60.5s48.333 -38.166 82 -56.499
s74.5 -37.5 122.5 -57.5l35 -15c13.333 8.66699 26.833 19 40.5 31s26 25.667 37 41s20 32.333 27 51s10.5 39.334 10.5 62.001c0 25.333 -4.33301 48.666 -13 69.999s-23.834 41.833 -45.501 61.5s-50.5 39 -86.5 58s-81.333 38.5 -136 58.5
c-16.667 -5.33301 -32.834 -13.166 -48.501 -23.499s-29.834 -23 -42.501 -38s-22.834 -32.167 -30.501 -51.5s-11.5 -40 -11.5 -62z" />
    <glyph glyph-name="dieresis" unicode="&#xa8;" horiz-adv-x="1182" 
d="M307 1395c0 36 9.33301 61.999 28 77.999s41.334 24 68.001 24c26 0 48.667 -8.16699 68 -24.5s29 -42.166 29 -77.499s-9.66699 -61.333 -29 -78s-42 -25 -68 -25c-26.667 0 -49.334 8.33301 -68.001 25s-28 42.667 -28 78zM682 1395c0 36 9.33008 62 27.9971 78
s41.334 24 68.001 24c12.667 0 24.834 -2 36.501 -6s21.834 -10.167 30.501 -18.5s15.667 -18.833 21 -31.5s8 -28 8 -46c0 -35.333 -9.66699 -61.333 -29 -78s-41.666 -25 -66.999 -25c-26.667 0 -49.334 8.33301 -68.001 25s-28 42.667 -28 78z" />
    <glyph glyph-name="copyright" unicode="&#xa9;" horiz-adv-x="1704" 
d="M891 1053c-40.667 0 -76.6689 -7.33398 -108.002 -22.001s-57.666 -35.834 -78.999 -63.501s-37.5 -61.5 -48.5 -101.5s-16.5 -85 -16.5 -135c0 -52 4.83301 -98 14.5 -138s24.667 -73.667 45 -101s46.333 -48.166 78 -62.499s69.834 -21.5 114.501 -21.5
c15.333 0 32 1.16699 50 3.5s36.5 5.5 55.5 9.5s37.833 8.83301 56.5 14.5s36.334 11.5 53.001 17.5v-131c-16 -7.33301 -32.167 -14 -48.5 -20s-33.333 -11.333 -51 -16s-36.5 -8.16699 -56.5 -10.5s-41.667 -3.5 -65 -3.5c-68 0 -127.333 11 -178 33
s-92.834 53.333 -126.501 94s-59 89.334 -76 146.001s-25.5 119.334 -25.5 188.001c0 67.333 9 128.833 27 184.5s44.5 103.5 79.5 143.5s78 71.167 129 93.5s109.833 33.5 176.5 33.5c42 0 85 -5.5 129 -16.5s85.667 -26.167 125 -45.5l-62 -127
c-34.667 17.333 -68.167 30.666 -100.5 39.999s-62.833 14 -91.5 14zM99.998 730.999c0 69.333 9 136 27 200s43.167 123.833 75.5 179.5s71.5 106.5 117.5 152.5s96.833 85.167 152.5 117.5s115.5 57.5 179.5 75.5s130.667 27 200 27s136 -9 200 -27
s123.833 -43.167 179.5 -75.5s106.5 -71.5 152.5 -117.5s85.167 -96.833 117.5 -152.5s57.5 -115.5 75.5 -179.5s27 -130.667 27 -200s-9 -136 -27 -200s-43.167 -123.833 -75.5 -179.5s-71.5 -106.334 -117.5 -152.001s-96.833 -84.834 -152.5 -117.501
s-115.5 -57.834 -179.5 -75.501s-130.667 -26.5 -200 -26.5s-136 8.83301 -200 26.5s-123.833 42.834 -179.5 75.501s-106.5 71.834 -152.5 117.501s-85.167 96.334 -117.5 152.001s-57.5 115.5 -75.5 179.5s-27 130.667 -27 200zM208.998 730.999
c0 -88.667 16.833 -172 50.5 -250s79.667 -146.167 138 -204.5s126.5 -104.333 204.5 -138s161.333 -50.5 250 -50.5s172 16.833 250 50.5s146.167 79.667 204.5 138s104.333 126.5 138 204.5s50.5 161.333 50.5 250s-16.833 172 -50.5 250s-79.667 146.167 -138 204.5
s-126.5 104.333 -204.5 138s-161.333 50.5 -250 50.5s-172 -16.833 -250 -50.5s-146.167 -79.667 -204.5 -138s-104.333 -126.5 -138 -204.5s-50.5 -161.333 -50.5 -250z" />
    <glyph glyph-name="ordfeminine" unicode="&#xaa;" horiz-adv-x="678" 
d="M487 797l-28 82c-12 -14.667 -24.5 -27.834 -37.5 -39.501s-27.333 -21.667 -43 -30s-32.834 -14.666 -51.501 -18.999s-39.667 -6.5 -63 -6.5c-28.667 0 -55 4.33301 -79 13s-44.667 21.5 -62 38.5s-30.833 38.333 -40.5 64s-14.5 55.5 -14.5 89.5
c0 68 23.5 120 70.5 156s118.167 55.667 213.5 59l99 4v31c0 48 -10.167 81.5 -30.5 100.5s-49.166 28.5 -86.499 28.5c-32 0 -63 -4.83301 -93 -14.5s-59 -21.834 -87 -36.501l-48 100c34 17.333 70.5 32 109.5 44s78.5 18 118.5 18c83.333 0 144.833 -17.667 184.5 -53
s59.5 -93.666 59.5 -174.999v-454h-91zM377 1110c-34 -2 -62.3301 -6.00195 -84.9971 -12.002s-40.834 -14 -54.501 -24s-23.5 -22.167 -29.5 -36.5s-9 -31.166 -9 -50.499c0 -34 8.33301 -58.5 25 -73.5s39 -22.5 67 -22.5c22.667 0 43.667 3.5 63 10.5
s36.166 17.833 50.499 32.5s25.666 32.834 33.999 54.501s12.5 47.167 12.5 76.5v49z" />
    <glyph glyph-name="guillemotleft" unicode="&#xab;" horiz-adv-x="997" 
d="M82 553l309 414l117 -78l-238 -348l238 -348l-117 -78l-309 411v27zM489 553l310 414l116 -78l-237 -348l237 -348l-116 -78l-310 411v27z" />
    <glyph glyph-name="logicalnot" unicode="&#xac;" 
d="M1026 797v-535h-149v385h-775v150h924z" />
    <glyph glyph-name="uni00AD" unicode="&#xad;" horiz-adv-x="659" 
d="M82 465v168h496v-168h-496z" />
    <glyph glyph-name="registered" unicode="&#xae;" horiz-adv-x="1704" 
d="M743 768h72c60.667 0 104.167 12 130.5 36s39.5 59 39.5 105c0 49.333 -13.833 83.833 -41.5 103.5s-71.167 29.5 -130.5 29.5h-70v-274zM1145 913c0 -32 -4.5 -60.5 -13.5 -85.5s-21 -47 -36 -66s-32 -35.167 -51 -48.5s-38.833 -24.333 -59.5 -33l120 -197l44 -72.5
l37.5 -63.5l26.5 -45l10 -17h-179l-206 352h-95v-352h-157v893h233c112 0 194.333 -21.667 247 -65s79 -110 79 -200zM100 731c0 69.333 9 136 27 200s43.167 123.833 75.5 179.5s71.5 106.5 117.5 152.5s96.833 85.167 152.5 117.5s115.5 57.5 179.5 75.5
s130.667 27 200 27s136 -9 200 -27s123.833 -43.167 179.5 -75.5s106.5 -71.5 152.5 -117.5s85.167 -96.833 117.5 -152.5s57.5 -115.5 75.5 -179.5s27 -130.667 27 -200s-9 -136 -27 -200s-43.167 -123.833 -75.5 -179.5s-71.5 -106.334 -117.5 -152.001
s-96.833 -84.834 -152.5 -117.501s-115.5 -57.834 -179.5 -75.501s-130.667 -26.5 -200 -26.5s-136 8.83301 -200 26.5s-123.833 42.834 -179.5 75.501s-106.5 71.834 -152.5 117.501s-85.167 96.334 -117.5 152.001s-57.5 115.5 -75.5 179.5s-27 130.667 -27 200zM209 731
c0 -88.667 16.833 -172 50.5 -250s79.667 -146.167 138 -204.5s126.5 -104.333 204.5 -138s161.333 -50.5 250 -50.5s172 16.833 250 50.5s146.167 79.667 204.5 138s104.333 126.5 138 204.5s50.5 161.333 50.5 250s-16.833 172 -50.5 250s-79.667 146.167 -138 204.5
s-126.5 104.333 -204.5 138s-161.333 50.5 -250 50.5s-172 -16.833 -250 -50.5s-146.167 -79.667 -204.5 -138s-104.333 -126.5 -138 -204.5s-50.5 -161.333 -50.5 -250z" />
    <glyph glyph-name="overscore" unicode="&#xaf;" horiz-adv-x="1024" 
d="M1030 1556h-1036v140h1036v-140z" />
    <glyph glyph-name="degree" unicode="&#xb0;" horiz-adv-x="877" 
d="M123 1167c0 43.333 8.33301 84.166 25 122.499s39.167 71.833 67.5 100.5s61.666 51.334 99.999 68.001s79.166 25 122.499 25s84.166 -8.33301 122.499 -25s71.833 -39.334 100.5 -68.001s51.334 -62.167 68.001 -100.5s25 -79.166 25 -122.499s-8.33301 -84 -25 -122
s-39.334 -71.167 -68.001 -99.5s-62.167 -50.666 -100.5 -66.999s-79.166 -24.5 -122.499 -24.5s-84.166 8.16699 -122.499 24.5s-71.666 38.666 -99.999 66.999s-50.833 61.5 -67.5 99.5s-25 78.667 -25 122zM246 1167c0 -26 5 -50.5 15 -73.5s23.667 -43.167 41 -60.5
s37.666 -31 60.999 -41s48.333 -15 75 -15s51.667 5 75 15s43.833 23.667 61.5 41s31.5 37.5 41.5 60.5s15 47.5 15 73.5c0 26.667 -5 51.834 -15 75.501s-23.833 44.334 -41.5 62.001s-38.167 31.667 -61.5 42s-48.333 15.5 -75 15.5s-51.667 -5.16699 -75 -15.5
s-43.666 -24.333 -60.999 -42s-31 -38.334 -41 -62.001s-15 -48.834 -15 -75.501z" />
    <glyph glyph-name="plusminus" unicode="&#xb1;" 
d="M489 647h-387v150h387v389h150v-389h387v-150h-387v-385h-150v385zM102 0v150h924v-150h-924z" />
    <glyph glyph-name="twosuperior" unicode="&#xb2;" horiz-adv-x="678" 
d="M621 586l-572 0.000976562v112l209 228c38 41.333 69 76.166 93 104.499s42.667 53.666 56 75.999s22.5 43.333 27.5 63s7.5 40.834 7.5 63.501c0 43.333 -11 75.666 -33 96.999s-51 32 -87 32c-34 0 -66.5 -8.33301 -97.5 -25s-61.5 -37.667 -91.5 -63l-78 94
c36 32 76.167 58.833 120.5 80.5s93.833 32.5 148.5 32.5c40 0 76.167 -5.5 108.5 -16.5s59.833 -27 82.5 -48s40.167 -46.667 52.5 -77s18.5 -64.5 18.5 -102.5c0 -33.333 -4.83301 -64.333 -14.5 -93s-23.5 -57.167 -41.5 -85.5s-40.167 -57.666 -66.5 -87.999
l-90.5 -100.5l-148 -157h396v-127z" />
    <glyph glyph-name="threesuperior" unicode="&#xb3;" horiz-adv-x="678" 
d="M590 1255c0 -52 -13.4961 -95.6641 -40.4961 -130.997s-63.5 -61 -109.5 -77c58.667 -15.333 102.667 -40.666 132 -75.999s44 -79 44 -131c0 -40 -6.66699 -76.667 -20 -110s-33.833 -61.833 -61.5 -85.5s-62.5 -42.167 -104.5 -55.5s-91.667 -20 -149 -20
c-46.667 0 -90.5 4.16699 -131.5 12.5s-80.5 22.833 -118.5 43.5v133c42 -22.667 85 -40.334 129 -53.001s83.667 -19 119 -19c65.333 0 112.666 13.833 141.999 41.5s44 65.834 44 114.501c0 49.333 -17.833 85.166 -53.5 107.499s-85.5 33.5 -149.5 33.5h-98v113h98
c61.333 0 106 13.167 134 39.5s42 60.833 42 103.5c0 21.333 -3.33301 39.833 -10 55.5s-15.834 28.5 -27.501 38.5s-25.334 17.333 -41.001 22s-32.5 7 -50.5 7c-39.333 0 -75.166 -6.83301 -107.499 -20.5s-65.5 -32.834 -99.5 -57.501l-69 96
c19.333 15.333 39.166 29.166 59.499 41.499s41.833 22.833 64.5 31.5s46.667 15.5 72 20.5s52.666 7.5 81.999 7.5c46 0 86.5 -5.66699 121.5 -17s64.167 -27 87.5 -47s40.833 -43.833 52.5 -71.5s17.5 -57.834 17.5 -90.501z" />
    <glyph glyph-name="acute" unicode="&#xb4;" horiz-adv-x="1182" 
d="M393 1268c14.667 19.333 29.833 41.668 45.5 67.001l47 78.5c15.667 27 30.5 54 44.5 81s26.333 51.833 37 74.5h219v-21c-10.667 -18 -26.5 -40.5 -47.5 -67.5s-44.333 -55.167 -70 -84.5s-52 -57.833 -79 -85.5s-52.167 -50.834 -75.5 -69.501h-121v27z" />
    <glyph glyph-name="mu" unicode="&#xb5;" horiz-adv-x="1217" 
d="M356 391c0 -86.667 17.667 -151.668 53 -195.001s90 -65 164 -65c54.667 0 100.334 8.66699 137.001 26s66.167 42.833 88.5 76.5s38.166 75.167 47.499 124.5s14 106 14 170v570h182v-1098h-147l-27 147h-10c-32 -55.333 -72 -97 -120 -125s-106.333 -42 -175 -42
c-48 0 -89.667 7.66699 -125 23s-64.666 37 -87.999 65c0.666992 -25.333 1.66699 -51.333 3 -78c1.33301 -23.333 2.16602 -49.166 2.49902 -77.499s0.5 -56.5 0.5 -84.5v-320h-182v1590h182v-707z" />
    <glyph glyph-name="paragraph" unicode="&#xb6;" horiz-adv-x="1341" 
d="M1126 -260h-120v1657h-207v-1657h-121v819c-40.667 -12 -89.334 -18 -146.001 -18c-63.333 0 -120.833 8.5 -172.5 25.5s-95.667 45.167 -132 84.5s-64.5 91 -84.5 155s-30 142.667 -30 236c0 98 10.833 179.833 32.5 245.5s52.334 118.5 92.001 158.5
s87.167 68.333 142.5 85s116.333 25 183 25h563v-1816z" />
    <glyph glyph-name="periodcentered" unicode="&#xb7;" horiz-adv-x="549" 
d="M147 723c0 25.333 3.33301 46.833 10 64.5s15.667 32 27 43s24.666 19 39.999 24s32 7.5 50 7.5c17.333 0 33.833 -2.5 49.5 -7.5s29.167 -13 40.5 -24s20.333 -25.333 27 -43s10 -39.167 10 -64.5c0 -24.667 -3.33301 -45.667 -10 -63s-15.667 -31.666 -27 -42.999
s-24.833 -19.666 -40.5 -24.999s-32.167 -8 -49.5 -8c-18 0 -34.667 2.66699 -50 8s-28.666 13.666 -39.999 24.999s-20.333 25.666 -27 42.999s-10 38.333 -10 63z" />
    <glyph glyph-name="cedilla" unicode="&#xb8;" horiz-adv-x="420" 
d="M408 -287c0 -64.667 -23.498 -115 -70.498 -151s-120.5 -54 -220.5 -54c-14.667 0 -29.5 1 -44.5 3s-27.5 4 -37.5 6v108c10 -2 23.167 -3.5 39.5 -4.5s29.833 -1.5 40.5 -1.5c47.333 0 84.333 7.16699 111 21.5s40 37.833 40 70.5c0 16 -4.33301 29.833 -13 41.5
s-20.667 21.834 -36 30.501s-33.5 16.167 -54.5 22.5s-43.833 12.5 -68.5 18.5l90 176h121l-57 -115c22.667 -5.33301 43.667 -12.333 63 -21s36.166 -19.834 50.499 -33.501s25.666 -30.167 33.999 -49.5s12.5 -42 12.5 -68z" />
    <glyph glyph-name="onesuperior" unicode="&#xb9;" horiz-adv-x="678" 
d="M307 1462l135.001 -0.00292969v-876h-145v516c0 16.667 0.166992 35 0.5 55s1 40 2 60l3 58c1 18.667 1.83301 35.334 2.5 50.001c-9.33301 -11.333 -20.333 -23.666 -33 -36.999s-26.334 -25.666 -41.001 -36.999l-94 -73l-74 96z" />
    <glyph glyph-name="ordmasculine" unicode="&#xba;" horiz-adv-x="717" 
d="M651 1133c0 -55.333 -6.83105 -104.666 -20.498 -147.999s-33.334 -79.833 -59.001 -109.5s-56.667 -52.334 -93 -68.001s-77.166 -23.5 -122.499 -23.5c-42 0 -80.667 7.83301 -116 23.5s-66 38.334 -92 68.001s-46.167 66.167 -60.5 109.5s-21.5 92.666 -21.5 147.999
s6.83301 104.5 20.5 147.5s33.167 79.167 58.5 108.5s56.166 51.666 92.499 66.999s77.166 23 122.499 23c41.333 0 79.833 -7.66699 115.5 -23s66.5 -37.666 92.5 -66.999s46.333 -65.5 61 -108.5s22 -92.167 22 -147.5zM197.002 1133
c0 -79.333 12.5 -139.166 37.5 -179.499s66.167 -60.5 123.5 -60.5c56.667 0 97.5 20.167 122.5 60.5s37.5 100.166 37.5 179.499c0 80 -12.5 139.167 -37.5 177.5s-65.833 57.5 -122.5 57.5c-57.333 0 -98.5 -19.167 -123.5 -57.5s-37.5 -97.5 -37.5 -177.5z" />
    <glyph glyph-name="guillemotright" unicode="&#xbb;" horiz-adv-x="997" 
d="M918 526l-310 -411l-116 78l237 348l-237 348l116 78l310 -414v-27zM510 526l-309 -411l-117 78l238 348l-238 348l117 78l309 -414v-27z" />
    <glyph glyph-name="onequarter" unicode="&#xbc;" horiz-adv-x="1509" 
d="M307 1462l135.001 -0.00292969v-876h-145v516c0 16.667 0.166992 35 0.5 55s1 40 2 60l3 58c1 18.667 1.83301 35.334 2.5 50.001c-9.33301 -11.333 -20.333 -23.666 -33 -36.999s-26.334 -25.666 -41.001 -36.999l-94 -73l-74 96zM1202 1462l-811 -1462h-157l811 1462
h157zM1419 192.997h-125v-192h-143v192h-375v111l377 579h141v-563h125v-127zM1151 319.997v194.999c0 28 0.5 58.5 1.5 91.5s2.5 65.833 4.5 98.5c-3.33301 -7.33301 -8.33301 -17.166 -15 -29.499l-21 -39.5c-7.33301 -14 -15 -27.667 -23 -41l-21 -35l-155 -240h229z" />
    <glyph glyph-name="onehalf" unicode="&#xbd;" horiz-adv-x="1509" 
d="M288 1462l135.001 -0.00292969v-876h-145v516c0 16.667 0.166992 35 0.5 55s1 40 2 60l3 58c1 18.667 1.83301 35.334 2.5 50.001c-9.33301 -11.333 -20.333 -23.666 -33 -36.999s-26.334 -25.666 -41.001 -36.999l-94 -73l-74 96zM1181 1462l-811 -1462h-157l811 1462
h157zM1440 0.99707l-572 0.000976562v112l209 228c38 41.333 69 76.166 93 104.499s42.667 53.666 56 75.999s22.5 43.333 27.5 63s7.5 40.834 7.5 63.501c0 43.333 -11 75.666 -33 96.999s-51 32 -87 32c-34 0 -66.5 -8.33301 -97.5 -25s-61.5 -37.667 -91.5 -63l-78 94
c36 32 76.167 58.833 120.5 80.5s93.833 32.5 148.5 32.5c40 0 76.167 -5.5 108.5 -16.5s59.833 -27 82.5 -48s40.167 -46.667 52.5 -77s18.5 -64.5 18.5 -102.5c0 -33.333 -4.83301 -64.333 -14.5 -93s-23.5 -57.167 -41.5 -85.5s-40.167 -57.666 -66.5 -87.999
l-90.5 -100.5l-148 -157h396v-127z" />
    <glyph glyph-name="threequarters" unicode="&#xbe;" horiz-adv-x="1509" 
d="M590 1255c0 -52 -13.4961 -95.6641 -40.4961 -130.997s-63.5 -61 -109.5 -77c58.667 -15.333 102.667 -40.666 132 -75.999s44 -79 44 -131c0 -40 -6.66699 -76.667 -20 -110s-33.833 -61.833 -61.5 -85.5s-62.5 -42.167 -104.5 -55.5s-91.667 -20 -149 -20
c-46.667 0 -90.5 4.16699 -131.5 12.5s-80.5 22.833 -118.5 43.5v133c42 -22.667 85 -40.334 129 -53.001s83.667 -19 119 -19c65.333 0 112.666 13.833 141.999 41.5s44 65.834 44 114.501c0 49.333 -17.833 85.166 -53.5 107.499s-85.5 33.5 -149.5 33.5h-98v113h98
c61.333 0 106 13.167 134 39.5s42 60.833 42 103.5c0 21.333 -3.33301 39.833 -10 55.5s-15.834 28.5 -27.501 38.5s-25.334 17.333 -41.001 22s-32.5 7 -50.5 7c-39.333 0 -75.166 -6.83301 -107.499 -20.5s-65.5 -32.834 -99.5 -57.501l-69 96
c19.333 15.333 39.166 29.166 59.499 41.499s41.833 22.833 64.5 31.5s46.667 15.5 72 20.5s52.666 7.5 81.999 7.5c46 0 86.5 -5.66699 121.5 -17s64.167 -27 87.5 -47s40.833 -43.833 52.5 -71.5s17.5 -57.834 17.5 -90.501zM1296 1462l-811 -1462h-157l811 1462h157z
M1486 193.003h-125v-192h-143v192h-375v111l377 579h141v-563h125v-127zM1218 320.003v194.999c0 28 0.5 58.5 1.5 91.5s2.5 65.833 4.5 98.5c-3.33301 -7.33301 -8.33301 -17.166 -15 -29.499l-21 -39.5c-7.33301 -14 -15 -27.667 -23 -41l-21 -35l-155 -240h229z" />
    <glyph glyph-name="questiondown" unicode="&#xbf;" horiz-adv-x="872" 
d="M592 676l0.000976562 -37.002c0 -38.667 -2.66699 -73.167 -8 -103.5s-14.5 -59 -27.5 -86s-30.333 -53.167 -52 -78.5s-49.167 -52 -82.5 -80c-32 -27.333 -59.333 -52.166 -82 -74.499s-41.167 -45 -55.5 -68s-25 -47.667 -32 -74s-10.5 -57.166 -10.5 -92.499
c0 -32 5 -61.167 15 -87.5s24.5 -49 43.5 -68s42.667 -33.667 71 -44s60.833 -15.5 97.5 -15.5c56 0 109 8.5 159 25.5s98 37.167 144 60.5l64 -146c-54.667 -28 -113.334 -51.667 -176.001 -71s-126.334 -29 -191.001 -29c-62 0 -117.833 8.5 -167.5 25.5
s-91.667 41.5 -126 73.5s-60.833 71 -79.5 117s-28 98.333 -28 157c0 45.333 4.5 85.333 13.5 120s22.333 67 40 97s40 59 67 87s58.5 57.667 94.5 89c34.667 30 63 56.167 85 78.5s39.333 43.833 52 64.5s21.334 42.167 26.001 64.5s7 47.833 7 76.5v19h139z
M639.001 978.998c0 -25.333 -3.16699 -46.833 -9.5 -64.5s-15.333 -32 -27 -43s-25.167 -19 -40.5 -24s-32 -7.5 -50 -7.5c-17.333 0 -33.666 2.5 -48.999 7.5s-28.833 13 -40.5 24s-20.834 25.333 -27.501 43s-10 39.167 -10 64.5c0 24.667 3.33301 45.667 10 63
s15.834 31.666 27.501 42.999s25.167 19.666 40.5 24.999s31.666 8 48.999 8c18 0 34.667 -2.66699 50 -8s28.833 -13.666 40.5 -24.999s20.667 -25.666 27 -42.999s9.5 -38.333 9.5 -63z" />
    <glyph glyph-name="Agrave" unicode="&#xc0;" horiz-adv-x="1245" 
d="M1055 0l-160 453h-545l-162 -453h-188l537 1468h170l538 -1468h-190zM836 618l-148 424l-14.5 44l-17.5 56l-18 62.5l-17 63.5c-4.66699 -20.667 -10 -42 -16 -64l-18 -63.5c-6 -20.333 -11.833 -39 -17.5 -56l-14.5 -42.5l-145 -424h426zM719 1579l-120.001 -0.00195312
c-23.333 18.667 -48.666 41.834 -75.999 69.501s-53.833 56.167 -79.5 85.5s-49 57.5 -70 84.5s-36.833 49.5 -47.5 67.5v21h219c10.667 -22.667 23.167 -47.5 37.5 -74.5l44.5 -81c15.333 -27 31 -53.167 47 -78.5s31 -47.666 45 -66.999v-27z" />
    <glyph glyph-name="Aacute" unicode="&#xc1;" horiz-adv-x="1245" 
d="M1055 0l-160 453h-545l-162 -453h-188l537 1468h170l538 -1468h-190zM836 618l-148 424l-14.5 44l-17.5 56l-18 62.5l-17 63.5c-4.66699 -20.667 -10 -42 -16 -64l-18 -63.5c-6 -20.333 -11.833 -39 -17.5 -56l-14.5 -42.5l-145 -424h426zM534 1606
c14.667 19.333 29.833 41.668 45.5 67.001l47 78.5c15.667 27 30.5 54 44.5 81s26.333 51.833 37 74.5h219v-21c-10.667 -18 -26.5 -40.5 -47.5 -67.5s-44.333 -55.167 -70 -84.5s-52 -57.833 -79 -85.5s-52.167 -50.834 -75.5 -69.501h-121v27z" />
    <glyph glyph-name="Acircumflex" unicode="&#xc2;" horiz-adv-x="1245" 
d="M1055 0l-160 453h-545l-162 -453h-188l537 1468h170l538 -1468h-190zM836 618l-148 424l-14.5 44l-17.5 56l-18 62.5l-17 63.5c-4.66699 -20.667 -10 -42 -16 -64l-18 -63.5c-6 -20.333 -11.833 -39 -17.5 -56l-14.5 -42.5l-145 -424h426zM953 1579h-121.002
c-34 22.667 -69 50.167 -105 82.5s-71.333 66.833 -106 103.5c-36 -36.667 -71.667 -71.167 -107 -103.5s-70 -59.833 -104 -82.5h-121v27l60 67l67.5 78.5c22.333 27 43.333 54 63 81s34.834 51.833 45.501 74.5h192c10.667 -22.667 25.834 -47.5 45.501 -74.5
s40.667 -54 63 -81l68 -78.5l59.5 -67v-27z" />
    <glyph glyph-name="Atilde" unicode="&#xc3;" horiz-adv-x="1245" 
d="M1055 0l-160 453h-545l-162 -453h-188l537 1468h170l538 -1468h-190zM836 618l-148 424l-14.5 44l-17.5 56l-18 62.5l-17 63.5c-4.66699 -20.667 -10 -42 -16 -64l-18 -63.5c-6 -20.333 -11.833 -39 -17.5 -56l-14.5 -42.5l-145 -424h426zM772 1581
c-26.667 0 -53.1699 5.83398 -79.5029 17.501s-52.166 24.667 -77.499 39s-49.666 27.333 -72.999 39s-45.666 17.5 -66.999 17.5c-30 0 -53 -8.83301 -69 -26.5s-28.667 -47.167 -38 -88.5h-104c3.33301 40 10.5 76.333 21.5 109s25.333 60.5 43 83.5
s38.834 40.667 63.501 53s52.334 18.5 83.001 18.5c28 0 55.5 -5.83301 82.5 -17.5s53.167 -24.5 78.5 -38.5l72.5 -38.5c23 -11.667 44.167 -17.5 63.5 -17.5c30 0 52.667 8.66699 68 26s28 46.666 38 87.999h105c-3.33301 -40 -10.5 -76.167 -21.5 -108.5
s-25.333 -60 -43 -83s-38.834 -40.833 -63.501 -53.5s-52.334 -19 -83.001 -19z" />
    <glyph glyph-name="Adieresis" unicode="&#xc4;" horiz-adv-x="1245" 
d="M1055 0l-160 453h-545l-162 -453h-188l537 1468h170l538 -1468h-190zM836 618l-148 424l-14.5 44l-17.5 56l-18 62.5l-17 63.5c-4.66699 -20.667 -10 -42 -16 -64l-18 -63.5c-6 -20.333 -11.833 -39 -17.5 -56l-14.5 -42.5l-145 -424h426zM340 1733
c0 36 9.33301 61.999 28 77.999s41.334 24 68.001 24c26 0 48.667 -8.16699 68 -24.5s29 -42.166 29 -77.499s-9.66699 -61.333 -29 -78s-42 -25 -68 -25c-26.667 0 -49.334 8.33301 -68.001 25s-28 42.667 -28 78zM715 1733c0 36 9.33008 62 27.9971 78
s41.334 24 68.001 24c12.667 0 24.834 -2 36.501 -6s21.834 -10.167 30.501 -18.5s15.667 -18.833 21 -31.5s8 -28 8 -46c0 -35.333 -9.66699 -61.333 -29 -78s-41.666 -25 -66.999 -25c-26.667 0 -49.334 8.33301 -68.001 25s-28 42.667 -28 78z" />
    <glyph glyph-name="Aring" unicode="&#xc5;" horiz-adv-x="1245" 
d="M1055 0l-160 453h-545l-162 -453h-188l537 1468h170l538 -1468h-190zM836 618l-148 424l-14.5 44l-17.5 56l-18 62.5l-17 63.5c-4.66699 -20.667 -10 -42 -16 -64l-18 -63.5c-6 -20.333 -11.833 -39 -17.5 -56l-14.5 -42.5l-145 -424h426zM848 1583
c0 -34 -5.83398 -64.5029 -17.501 -91.5029s-27.667 -49.833 -48 -68.5s-44.5 -32.834 -72.5 -42.501s-58.333 -14.5 -91 -14.5c-33.333 0 -63.666 4.83301 -90.999 14.5s-50.833 23.834 -70.5 42.501s-34.834 41.167 -45.501 67.5s-16 56.5 -16 90.5
s5.33301 64.167 16 90.5s25.834 48.833 45.501 67.5s43.167 32.834 70.5 42.501s57.666 14.5 90.999 14.5c32 0 62 -4.83301 90 -14.5s52.333 -23.667 73 -42s36.834 -40.666 48.501 -66.999s17.5 -56.166 17.5 -89.499zM730.999 1581c0 35.333 -10.5 63 -31.5 83
s-47.833 30 -80.5 30c-33.333 0 -60.5 -10 -81.5 -30s-31.5 -47.667 -31.5 -83s9.5 -63 28.5 -83s47.167 -30 84.5 -30c32.667 0 59.5 10 80.5 30s31.5 47.667 31.5 83z" />
    <glyph glyph-name="AE" unicode="&#xc6;" horiz-adv-x="1745" 
d="M1622 0h-760v453h-475l-203 -453h-186l655 1462h969v-164h-573v-452h534v-162h-534v-520h573v-164zM459 618h403v680h-108z" />
    <glyph glyph-name="Ccedilla" unicode="&#xc7;" horiz-adv-x="1235" 
d="M793 1319c-71.333 0 -136.002 -13.498 -194.002 -40.498s-107.5 -65.833 -148.5 -116.5s-72.667 -112.334 -95 -185.001s-33.5 -154.667 -33.5 -246c0 -94 9.83301 -177.5 29.5 -250.5s49.167 -134.5 88.5 -184.5s88.333 -88 147 -114s127.334 -39 206.001 -39
c59.333 0 115.666 5.83301 168.999 17.5s106 25.167 158 40.5v-162c-26 -10 -52 -18.833 -78 -26.5s-53.167 -13.834 -81.5 -18.501s-58.666 -8.16699 -90.999 -10.5s-68.166 -3.5 -107.499 -3.5c-109.333 0 -204 18 -284 54s-146.167 87 -198.5 153
s-91.166 145.333 -116.499 238s-38 195.334 -38 308.001c0 110.667 14.5 212 43.5 304s71.667 171 128 237s126.166 117.333 209.499 154s179 55 287 55c72 0 140.667 -7.33301 206 -22s124.333 -36 177 -64l-78 -156c-42 21.333 -87.667 39.666 -137 54.999
s-105.333 23 -168 23zM915.998 -286.998c0 -64.667 -23.498 -115 -70.498 -151s-120.5 -54 -220.5 -54c-14.667 0 -29.5 1 -44.5 3s-27.5 4 -37.5 6v108c10 -2 23.167 -3.5 39.5 -4.5s29.833 -1.5 40.5 -1.5c47.333 0 84.333 7.16699 111 21.5s40 37.833 40 70.5
c0 16 -4.33301 29.833 -13 41.5s-20.667 21.834 -36 30.501s-33.5 16.167 -54.5 22.5s-43.833 12.5 -68.5 18.5l90 176h121l-57 -115c22.667 -5.33301 43.667 -12.333 63 -21s36.166 -19.834 50.499 -33.501s25.666 -30.167 33.999 -49.5s12.5 -42 12.5 -68z" />
    <glyph glyph-name="Egrave" unicode="&#xc8;" horiz-adv-x="1081" 
d="M958 0h-759v1462h759v-164h-573v-452h535v-162h-535v-520h573v-164zM713 1579l-120.001 -0.00195312c-23.333 18.667 -48.666 41.834 -75.999 69.501s-53.833 56.167 -79.5 85.5s-49 57.5 -70 84.5s-36.833 49.5 -47.5 67.5v21h219
c10.667 -22.667 23.167 -47.5 37.5 -74.5l44.5 -81c15.333 -27 31 -53.167 47 -78.5s31 -47.666 45 -66.999v-27z" />
    <glyph glyph-name="Eacute" unicode="&#xc9;" horiz-adv-x="1081" 
d="M958 0h-759v1462h759v-164h-573v-452h535v-162h-535v-520h573v-164zM456 1606c14.667 19.333 29.833 41.668 45.5 67.001l47 78.5c15.667 27 30.5 54 44.5 81s26.333 51.833 37 74.5h219v-21c-10.667 -18 -26.5 -40.5 -47.5 -67.5s-44.333 -55.167 -70 -84.5
s-52 -57.833 -79 -85.5s-52.167 -50.834 -75.5 -69.501h-121v27z" />
    <glyph glyph-name="Ecircumflex" unicode="&#xca;" horiz-adv-x="1081" 
d="M958 0h-759v1462h759v-164h-573v-452h535v-162h-535v-520h573v-164zM907 1579h-121.002c-34 22.667 -69 50.167 -105 82.5s-71.333 66.833 -106 103.5c-36 -36.667 -71.667 -71.167 -107 -103.5s-70 -59.833 -104 -82.5h-121v27l60 67l67.5 78.5
c22.333 27 43.333 54 63 81s34.834 51.833 45.501 74.5h192c10.667 -22.667 25.834 -47.5 45.501 -74.5s40.667 -54 63 -81l68 -78.5l59.5 -67v-27z" />
    <glyph glyph-name="Edieresis" unicode="&#xcb;" horiz-adv-x="1081" 
d="M958 0h-759v1462h759v-164h-573v-452h535v-162h-535v-520h573v-164zM296 1733c0 36 9.33301 61.999 28 77.999s41.334 24 68.001 24c26 0 48.667 -8.16699 68 -24.5s29 -42.166 29 -77.499s-9.66699 -61.333 -29 -78s-42 -25 -68 -25
c-26.667 0 -49.334 8.33301 -68.001 25s-28 42.667 -28 78zM671 1733c0 36 9.33008 62 27.9971 78s41.334 24 68.001 24c12.667 0 24.834 -2 36.501 -6s21.834 -10.167 30.501 -18.5s15.667 -18.833 21 -31.5s8 -28 8 -46c0 -35.333 -9.66699 -61.333 -29 -78
s-41.666 -25 -66.999 -25c-26.667 0 -49.334 8.33301 -68.001 25s-28 42.667 -28 78z" />
    <glyph glyph-name="Igrave" unicode="&#xcc;" horiz-adv-x="694" 
d="M612 0h-530v102l172 41v1176l-172 41v102h530v-102l-172 -41v-1176l172 -41v-102zM455 1579l-120.001 -0.00195312c-23.333 18.667 -48.666 41.834 -75.999 69.501s-53.833 56.167 -79.5 85.5s-49 57.5 -70 84.5s-36.833 49.5 -47.5 67.5v21h219
c10.667 -22.667 23.167 -47.5 37.5 -74.5l44.5 -81c15.333 -27 31 -53.167 47 -78.5s31 -47.666 45 -66.999v-27z" />
    <glyph glyph-name="Iacute" unicode="&#xcd;" horiz-adv-x="694" 
d="M612 0h-530v102l172 41v1176l-172 41v102h530v-102l-172 -41v-1176l172 -41v-102zM257 1606c14.667 19.333 29.833 41.668 45.5 67.001l47 78.5c15.667 27 30.5 54 44.5 81s26.333 51.833 37 74.5h219v-21c-10.667 -18 -26.5 -40.5 -47.5 -67.5
s-44.333 -55.167 -70 -84.5s-52 -57.833 -79 -85.5s-52.167 -50.834 -75.5 -69.501h-121v27z" />
    <glyph glyph-name="Icircumflex" unicode="&#xce;" horiz-adv-x="694" 
d="M612 0h-530v102l172 41v1176l-172 41v102h530v-102l-172 -41v-1176l172 -41v-102zM681 1579h-121.002c-34 22.667 -69 50.167 -105 82.5s-71.333 66.833 -106 103.5c-36 -36.667 -71.667 -71.167 -107 -103.5s-70 -59.833 -104 -82.5h-121v27l60 67l67.5 78.5
c22.333 27 43.333 54 63 81s34.834 51.833 45.501 74.5h192c10.667 -22.667 25.834 -47.5 45.501 -74.5s40.667 -54 63 -81l68 -78.5l59.5 -67v-27z" />
    <glyph glyph-name="Idieresis" unicode="&#xcf;" horiz-adv-x="694" 
d="M612 0h-530v102l172 41v1176l-172 41v102h530v-102l-172 -41v-1176l172 -41v-102zM64 1733c0 36 9.33301 61.999 28 77.999s41.334 24 68.001 24c26 0 48.667 -8.16699 68 -24.5s29 -42.166 29 -77.499s-9.66699 -61.333 -29 -78s-42 -25 -68 -25
c-26.667 0 -49.334 8.33301 -68.001 25s-28 42.667 -28 78zM439 1733c0 36 9.33008 62 27.9971 78s41.334 24 68.001 24c12.667 0 24.834 -2 36.501 -6s21.834 -10.167 30.501 -18.5s15.667 -18.833 21 -31.5s8 -28 8 -46c0 -35.333 -9.66699 -61.333 -29 -78
s-41.666 -25 -66.999 -25c-26.667 0 -49.334 8.33301 -68.001 25s-28 42.667 -28 78z" />
    <glyph glyph-name="Eth" unicode="&#xd0;" horiz-adv-x="1401" 
d="M47 805l152 -0.00292969v657h407c102 0 194.333 -15.333 277 -46s153 -76.167 211 -136.5s102.833 -135.166 134.5 -224.499s47.5 -192.666 47.5 -309.999c0 -123.333 -16 -231.5 -48 -324.5s-78.333 -170.667 -139 -233s-135.167 -109.166 -223.5 -140.499
s-188.5 -47 -300.5 -47h-366v643h-152v162zM1079 738.997c0 97.333 -11 181.501 -33 252.501s-54 129.5 -96 175.5s-93.667 80.167 -155 102.5s-131 33.5 -209 33.5h-201v-498h336v-162h-336v-483h162c176 0 308.667 48.667 398 146s134 241.666 134 432.999z" />
    <glyph glyph-name="Ntilde" unicode="&#xd1;" horiz-adv-x="1493" 
d="M1294 0h-215.001l-719 1210h-8c4 -51.333 7.33301 -102.333 10 -153c2.66699 -43.333 4.83398 -88.666 6.50098 -135.999s2.5 -90 2.5 -128v-793h-172v1462h213l716 -1204h7c-2 50.667 -4.33301 100.667 -7 150c-0.666992 21.333 -1.5 43.166 -2.5 65.499l-3 67
c-1 22.333 -1.66699 43.833 -2 64.5s-0.5 39.667 -0.5 57v800h174v-1462zM904.999 1581c-26.667 0 -53.1699 5.83398 -79.5029 17.501s-52.166 24.667 -77.499 39s-49.666 27.333 -72.999 39s-45.666 17.5 -66.999 17.5c-30 0 -53 -8.83301 -69 -26.5
s-28.667 -47.167 -38 -88.5h-104c3.33301 40 10.5 76.333 21.5 109s25.333 60.5 43 83.5s38.834 40.667 63.501 53s52.334 18.5 83.001 18.5c28 0 55.5 -5.83301 82.5 -17.5s53.167 -24.5 78.5 -38.5l72.5 -38.5c23 -11.667 44.167 -17.5 63.5 -17.5
c30 0 52.667 8.66699 68 26s28 46.666 38 87.999h105c-3.33301 -40 -10.5 -76.167 -21.5 -108.5s-25.333 -60 -43 -83s-38.834 -40.833 -63.501 -53.5s-52.334 -19 -83.001 -19z" />
    <glyph glyph-name="Ograve" unicode="&#xd2;" horiz-adv-x="1520" 
d="M1393 733c0 -112.667 -13.498 -215.33 -40.498 -307.997s-67.167 -172 -120.5 -238s-119.5 -117 -198.5 -153s-170.167 -54 -273.5 -54c-108.667 0 -202.834 18 -282.501 54s-145.667 87 -198 153s-91.166 145.5 -116.499 238.5s-38 196.167 -38 309.5
s12.667 216.166 38 308.499s64.333 171.166 117 236.499s119 115.833 199 151.5s174.333 53.5 283 53.5c103.333 0 194.166 -17.833 272.499 -53.5s144.166 -86.334 197.499 -152.001s93.5 -144.667 120.5 -237s40.5 -195.5 40.5 -309.5zM322.002 733.004
c0 -91.333 8.66602 -173.5 25.999 -246.5s43.833 -135 79.5 -186s81 -90 136 -117s120.5 -40.5 196.5 -40.5s141.5 13.5 196.5 40.5s100.333 66 136 117s61.834 113 78.501 186s25 155.167 25 246.5c0 92 -8.33301 174.333 -25 247s-42.667 134.167 -78 184.5
s-80.333 89 -135 116s-120 40.5 -196 40.5s-141.667 -13.5 -197 -40.5s-101 -65.667 -137 -116s-62.667 -111.833 -80 -184.5s-26 -155 -26 -247zM870.001 1579l-120.001 -0.00195312c-23.333 18.667 -48.666 41.834 -75.999 69.501s-53.833 56.167 -79.5 85.5
s-49 57.5 -70 84.5s-36.833 49.5 -47.5 67.5v21h219c10.667 -22.667 23.167 -47.5 37.5 -74.5l44.5 -81c15.333 -27 31 -53.167 47 -78.5s31 -47.666 45 -66.999v-27z" />
    <glyph glyph-name="Oacute" unicode="&#xd3;" horiz-adv-x="1520" 
d="M1393 733c0 -112.667 -13.498 -215.33 -40.498 -307.997s-67.167 -172 -120.5 -238s-119.5 -117 -198.5 -153s-170.167 -54 -273.5 -54c-108.667 0 -202.834 18 -282.501 54s-145.667 87 -198 153s-91.166 145.5 -116.499 238.5s-38 196.167 -38 309.5
s12.667 216.166 38 308.499s64.333 171.166 117 236.499s119 115.833 199 151.5s174.333 53.5 283 53.5c103.333 0 194.166 -17.833 272.499 -53.5s144.166 -86.334 197.499 -152.001s93.5 -144.667 120.5 -237s40.5 -195.5 40.5 -309.5zM322.002 733.004
c0 -91.333 8.66602 -173.5 25.999 -246.5s43.833 -135 79.5 -186s81 -90 136 -117s120.5 -40.5 196.5 -40.5s141.5 13.5 196.5 40.5s100.333 66 136 117s61.834 113 78.501 186s25 155.167 25 246.5c0 92 -8.33301 174.333 -25 247s-42.667 134.167 -78 184.5
s-80.333 89 -135 116s-120 40.5 -196 40.5s-141.667 -13.5 -197 -40.5s-101 -65.667 -137 -116s-62.667 -111.833 -80 -184.5s-26 -155 -26 -247zM651.001 1606c14.667 19.333 29.833 41.668 45.5 67.001l47 78.5c15.667 27 30.5 54 44.5 81s26.333 51.833 37 74.5h219v-21
c-10.667 -18 -26.5 -40.5 -47.5 -67.5s-44.333 -55.167 -70 -84.5s-52 -57.833 -79 -85.5s-52.167 -50.834 -75.5 -69.501h-121v27z" />
    <glyph glyph-name="Ocircumflex" unicode="&#xd4;" horiz-adv-x="1520" 
d="M1393 733c0 -112.667 -13.498 -215.33 -40.498 -307.997s-67.167 -172 -120.5 -238s-119.5 -117 -198.5 -153s-170.167 -54 -273.5 -54c-108.667 0 -202.834 18 -282.501 54s-145.667 87 -198 153s-91.166 145.5 -116.499 238.5s-38 196.167 -38 309.5
s12.667 216.166 38 308.499s64.333 171.166 117 236.499s119 115.833 199 151.5s174.333 53.5 283 53.5c103.333 0 194.166 -17.833 272.499 -53.5s144.166 -86.334 197.499 -152.001s93.5 -144.667 120.5 -237s40.5 -195.5 40.5 -309.5zM322.002 733.004
c0 -91.333 8.66602 -173.5 25.999 -246.5s43.833 -135 79.5 -186s81 -90 136 -117s120.5 -40.5 196.5 -40.5s141.5 13.5 196.5 40.5s100.333 66 136 117s61.834 113 78.501 186s25 155.167 25 246.5c0 92 -8.33301 174.333 -25 247s-42.667 134.167 -78 184.5
s-80.333 89 -135 116s-120 40.5 -196 40.5s-141.667 -13.5 -197 -40.5s-101 -65.667 -137 -116s-62.667 -111.833 -80 -184.5s-26 -155 -26 -247zM1096 1579h-121.002c-34 22.667 -69 50.167 -105 82.5s-71.333 66.833 -106 103.5c-36 -36.667 -71.667 -71.167 -107 -103.5
s-70 -59.833 -104 -82.5h-121v27l60 67l67.5 78.5c22.333 27 43.333 54 63 81s34.834 51.833 45.501 74.5h192c10.667 -22.667 25.834 -47.5 45.501 -74.5s40.667 -54 63 -81l68 -78.5l59.5 -67v-27z" />
    <glyph glyph-name="Otilde" unicode="&#xd5;" horiz-adv-x="1520" 
d="M1393 733c0 -112.667 -13.498 -215.33 -40.498 -307.997s-67.167 -172 -120.5 -238s-119.5 -117 -198.5 -153s-170.167 -54 -273.5 -54c-108.667 0 -202.834 18 -282.501 54s-145.667 87 -198 153s-91.166 145.5 -116.499 238.5s-38 196.167 -38 309.5
s12.667 216.166 38 308.499s64.333 171.166 117 236.499s119 115.833 199 151.5s174.333 53.5 283 53.5c103.333 0 194.166 -17.833 272.499 -53.5s144.166 -86.334 197.499 -152.001s93.5 -144.667 120.5 -237s40.5 -195.5 40.5 -309.5zM322.002 733.004
c0 -91.333 8.66602 -173.5 25.999 -246.5s43.833 -135 79.5 -186s81 -90 136 -117s120.5 -40.5 196.5 -40.5s141.5 13.5 196.5 40.5s100.333 66 136 117s61.834 113 78.501 186s25 155.167 25 246.5c0 92 -8.33301 174.333 -25 247s-42.667 134.167 -78 184.5
s-80.333 89 -135 116s-120 40.5 -196 40.5s-141.667 -13.5 -197 -40.5s-101 -65.667 -137 -116s-62.667 -111.833 -80 -184.5s-26 -155 -26 -247zM891.001 1581c-26.667 0 -53.1699 5.83398 -79.5029 17.501s-52.166 24.667 -77.499 39s-49.666 27.333 -72.999 39
s-45.666 17.5 -66.999 17.5c-30 0 -53 -8.83301 -69 -26.5s-28.667 -47.167 -38 -88.5h-104c3.33301 40 10.5 76.333 21.5 109s25.333 60.5 43 83.5s38.834 40.667 63.501 53s52.334 18.5 83.001 18.5c28 0 55.5 -5.83301 82.5 -17.5s53.167 -24.5 78.5 -38.5l72.5 -38.5
c23 -11.667 44.167 -17.5 63.5 -17.5c30 0 52.667 8.66699 68 26s28 46.666 38 87.999h105c-3.33301 -40 -10.5 -76.167 -21.5 -108.5s-25.333 -60 -43 -83s-38.834 -40.833 -63.501 -53.5s-52.334 -19 -83.001 -19z" />
    <glyph glyph-name="Odieresis" unicode="&#xd6;" horiz-adv-x="1520" 
d="M1393 733c0 -112.667 -13.498 -215.33 -40.498 -307.997s-67.167 -172 -120.5 -238s-119.5 -117 -198.5 -153s-170.167 -54 -273.5 -54c-108.667 0 -202.834 18 -282.501 54s-145.667 87 -198 153s-91.166 145.5 -116.499 238.5s-38 196.167 -38 309.5
s12.667 216.166 38 308.499s64.333 171.166 117 236.499s119 115.833 199 151.5s174.333 53.5 283 53.5c103.333 0 194.166 -17.833 272.499 -53.5s144.166 -86.334 197.499 -152.001s93.5 -144.667 120.5 -237s40.5 -195.5 40.5 -309.5zM322.002 733.004
c0 -91.333 8.66602 -173.5 25.999 -246.5s43.833 -135 79.5 -186s81 -90 136 -117s120.5 -40.5 196.5 -40.5s141.5 13.5 196.5 40.5s100.333 66 136 117s61.834 113 78.501 186s25 155.167 25 246.5c0 92 -8.33301 174.333 -25 247s-42.667 134.167 -78 184.5
s-80.333 89 -135 116s-120 40.5 -196 40.5s-141.667 -13.5 -197 -40.5s-101 -65.667 -137 -116s-62.667 -111.833 -80 -184.5s-26 -155 -26 -247zM477.001 1733c0 36 9.33301 61.999 28 77.999s41.334 24 68.001 24c26 0 48.667 -8.16699 68 -24.5s29 -42.166 29 -77.499
s-9.66699 -61.333 -29 -78s-42 -25 -68 -25c-26.667 0 -49.334 8.33301 -68.001 25s-28 42.667 -28 78zM852.001 1733c0 36 9.33008 62 27.9971 78s41.334 24 68.001 24c12.667 0 24.834 -2 36.501 -6s21.834 -10.167 30.501 -18.5s15.667 -18.833 21 -31.5s8 -28 8 -46
c0 -35.333 -9.66699 -61.333 -29 -78s-41.666 -25 -66.999 -25c-26.667 0 -49.334 8.33301 -68.001 25s-28 42.667 -28 78z" />
    <glyph glyph-name="multiply" unicode="&#xd7;" 
d="M459 723l-318 319l105 105l317 -318l322 318l104 -103l-321 -321l319 -320l-102 -102l-322 317l-317 -315l-103 103z" />
    <glyph glyph-name="Oslash" unicode="&#xd8;" horiz-adv-x="1520" 
d="M1300 1454l-92.001 -148.997c60.667 -66 106.667 -147.333 138 -244s47 -206 47 -328c0 -112.667 -13.5 -215.334 -40.5 -308.001s-67.167 -172 -120.5 -238s-119.5 -117 -198.5 -153s-170.167 -54 -273.5 -54c-126 0 -233.333 23.667 -322 71l-78 -127l-137 78l90 145
c-64.667 66.667 -112.167 149.667 -142.5 249s-45.5 212.333 -45.5 339c0 113.333 12.667 216.166 38 308.499s64.333 171.166 117 236.499s119 115.833 199 151.5s174.333 53.5 283 53.5c62.667 0 120.834 -7 174.501 -21s102.5 -33.667 146.5 -59l80 127zM321.999 733.003
c0 -87.333 7.66699 -165.833 23 -235.5s39 -130.5 71 -182.5l579 945c-32 19.333 -67 34.333 -105 45s-80.667 16 -128 16c-76 0 -141.667 -13.5 -197 -40.5s-101 -65.667 -137 -116s-62.667 -111.833 -80 -184.5s-26 -155 -26 -247zM1196 733.003
c0 171.333 -29.334 307.333 -88.001 408l-578 -940c31.333 -18.667 66 -33 104 -43s80 -15 126 -15c76 0 141.5 13.5 196.5 40.5s100.333 66 136 117s61.834 113 78.501 186s25 155.167 25 246.5z" />
    <glyph glyph-name="Ugrave" unicode="&#xd9;" horiz-adv-x="1430" 
d="M1245 1464l-0.00195312 -947.998c0 -76 -11 -146.667 -33 -212s-55.167 -122 -99.5 -170s-100 -85.667 -167 -113s-145.833 -41 -236.5 -41c-85.333 0 -160.666 12.833 -225.999 38.5s-120.166 62.167 -164.499 109.5s-77.833 104.166 -100.5 170.499
s-34 140.166 -34 221.499v942h187v-952c0 -116.667 28.833 -207 86.5 -271s144.834 -96 261.501 -96c59.333 0 110.333 9 153 27s77.667 43.333 105 76s47.666 71.667 60.999 117s20.333 95 21 149v952h186zM846.998 1579l-120.001 -0.00195312
c-23.333 18.667 -48.666 41.834 -75.999 69.501s-53.833 56.167 -79.5 85.5s-49 57.5 -70 84.5s-36.833 49.5 -47.5 67.5v21h219c10.667 -22.667 23.167 -47.5 37.5 -74.5l44.5 -81c15.333 -27 31 -53.167 47 -78.5s31 -47.666 45 -66.999v-27z" />
    <glyph glyph-name="Uacute" unicode="&#xda;" horiz-adv-x="1430" 
d="M1245 1464l-0.00195312 -947.998c0 -76 -11 -146.667 -33 -212s-55.167 -122 -99.5 -170s-100 -85.667 -167 -113s-145.833 -41 -236.5 -41c-85.333 0 -160.666 12.833 -225.999 38.5s-120.166 62.167 -164.499 109.5s-77.833 104.166 -100.5 170.499
s-34 140.166 -34 221.499v942h187v-952c0 -116.667 28.833 -207 86.5 -271s144.834 -96 261.501 -96c59.333 0 110.333 9 153 27s77.667 43.333 105 76s47.666 71.667 60.999 117s20.333 95 21 149v952h186zM589.998 1606c14.667 19.333 29.833 41.668 45.5 67.001l47 78.5
c15.667 27 30.5 54 44.5 81s26.333 51.833 37 74.5h219v-21c-10.667 -18 -26.5 -40.5 -47.5 -67.5s-44.333 -55.167 -70 -84.5s-52 -57.833 -79 -85.5s-52.167 -50.834 -75.5 -69.501h-121v27z" />
    <glyph glyph-name="Ucircumflex" unicode="&#xdb;" horiz-adv-x="1430" 
d="M1245 1464l-0.00195312 -947.998c0 -76 -11 -146.667 -33 -212s-55.167 -122 -99.5 -170s-100 -85.667 -167 -113s-145.833 -41 -236.5 -41c-85.333 0 -160.666 12.833 -225.999 38.5s-120.166 62.167 -164.499 109.5s-77.833 104.166 -100.5 170.499
s-34 140.166 -34 221.499v942h187v-952c0 -116.667 28.833 -207 86.5 -271s144.834 -96 261.501 -96c59.333 0 110.333 9 153 27s77.667 43.333 105 76s47.666 71.667 60.999 117s20.333 95 21 149v952h186zM1043 1579h-121.002c-34 22.667 -69 50.167 -105 82.5
s-71.333 66.833 -106 103.5c-36 -36.667 -71.667 -71.167 -107 -103.5s-70 -59.833 -104 -82.5h-121v27l60 67l67.5 78.5c22.333 27 43.333 54 63 81s34.834 51.833 45.501 74.5h192c10.667 -22.667 25.834 -47.5 45.501 -74.5s40.667 -54 63 -81l68 -78.5l59.5 -67v-27z
" />
    <glyph glyph-name="Udieresis" unicode="&#xdc;" horiz-adv-x="1430" 
d="M1245 1464l-0.00195312 -947.998c0 -76 -11 -146.667 -33 -212s-55.167 -122 -99.5 -170s-100 -85.667 -167 -113s-145.833 -41 -236.5 -41c-85.333 0 -160.666 12.833 -225.999 38.5s-120.166 62.167 -164.499 109.5s-77.833 104.166 -100.5 170.499
s-34 140.166 -34 221.499v942h187v-952c0 -116.667 28.833 -207 86.5 -271s144.834 -96 261.501 -96c59.333 0 110.333 9 153 27s77.667 43.333 105 76s47.666 71.667 60.999 117s20.333 95 21 149v952h186zM431.998 1733c0 36 9.33301 61.999 28 77.999
s41.334 24 68.001 24c26 0 48.667 -8.16699 68 -24.5s29 -42.166 29 -77.499s-9.66699 -61.333 -29 -78s-42 -25 -68 -25c-26.667 0 -49.334 8.33301 -68.001 25s-28 42.667 -28 78zM806.998 1733c0 36 9.33008 62 27.9971 78s41.334 24 68.001 24
c12.667 0 24.834 -2 36.501 -6s21.834 -10.167 30.501 -18.5s15.667 -18.833 21 -31.5s8 -28 8 -46c0 -35.333 -9.66699 -61.333 -29 -78s-41.666 -25 -66.999 -25c-26.667 0 -49.334 8.33301 -68.001 25s-28 42.667 -28 78z" />
    <glyph glyph-name="Yacute" unicode="&#xdd;" horiz-adv-x="1079" 
d="M539 723l340 739h200l-446 -893v-569h-187v559l-446 903h203zM442 1606c14.667 19.333 29.833 41.668 45.5 67.001l47 78.5c15.667 27 30.5 54 44.5 81s26.333 51.833 37 74.5h219v-21c-10.667 -18 -26.5 -40.5 -47.5 -67.5s-44.333 -55.167 -70 -84.5
s-52 -57.833 -79 -85.5s-52.167 -50.834 -75.5 -69.501h-121v27z" />
    <glyph glyph-name="Thorn" unicode="&#xde;" horiz-adv-x="1180" 
d="M1075 782c0 -60.667 -9.16699 -119.001 -27.5 -175.001s-48.5 -105.5 -90.5 -148.5s-97.5 -77.333 -166.5 -103s-154.167 -38.5 -255.5 -38.5h-150v-317h-186v1462h186v-252h176c89.333 0 166.333 -9.5 231 -28.5s118 -46.667 160 -83s73 -81.166 93 -134.499
s30 -114 30 -182zM385 474.999l129.002 -0.000976562c62 0 116.167 5.33301 162.5 16s84.666 27.834 114.999 51.501s53.166 54.334 68.499 92.001s23 83.5 23 137.5c0 95.333 -27.333 165.666 -82 210.999s-140 68 -256 68h-160v-576z" />
    <glyph glyph-name="germandbls" unicode="&#xdf;" horiz-adv-x="1233" 
d="M1010 1260c0 -38 -7.16699 -71.832 -21.5 -101.499s-32 -56.667 -53 -81s-44 -46.5 -69 -66.5l-69 -57.5c-21 -18.333 -38.667 -36.5 -53 -54.5s-21.5 -37 -21.5 -57c0 -14 2.33301 -26.5 7 -37.5s13.5 -23 26.5 -36s31.167 -27.667 54.5 -44l92 -62.5
c37.333 -24.667 70.666 -49 99.999 -73s54.166 -49.667 74.499 -77s36 -57 47 -89s16.5 -68.667 16.5 -110c0 -58 -9.33301 -108 -28 -150s-44.834 -76.5 -78.501 -103.5s-74 -47 -121 -60s-98.833 -19.5 -155.5 -19.5c-64.667 0 -120.167 5.83301 -166.5 17.5
s-87.166 28.834 -122.499 51.501v166c17.333 -10.667 36.833 -21.167 58.5 -31.5s44.5 -19.5 68.5 -27.5s48.667 -14.5 74 -19.5s50.333 -7.5 75 -7.5c37.333 0 69.5 4.16699 96.5 12.5s49.167 20 66.5 35s30 33.167 38 54.5s12 45.333 12 72
c0 24 -2.83301 45.833 -8.5 65.5s-15.667 38.834 -30 57.501s-33.5 37.667 -57.5 57s-54.667 40.666 -92 63.999c-42 26.667 -77.167 51.334 -105.5 74.001s-51.333 45.167 -69 67.5s-30.167 45.166 -37.5 68.499s-11 49 -11 77c0 36 6.83301 67.167 20.5 93.5
s30.834 50 51.501 71s43 40.5 67 58.5s46.333 36.667 67 56s37.834 40.166 51.501 62.499s20.5 48.166 20.5 77.499c0 28 -5.5 52.333 -16.5 73s-26.5 37.834 -46.5 51.501s-43.833 23.667 -71.5 30s-58.5 9.5 -92.5 9.5c-32.667 0 -63.667 -3.16699 -93 -9.5
s-55 -17.5 -77 -33.5s-39.5 -37.833 -52.5 -65.5s-19.5 -63.167 -19.5 -106.5v-1202h-182v1200c0 69.333 10.5 127.5 31.5 174.5s50.333 84.667 88 113s82.5 48.666 134.5 60.999s108.667 18.5 170 18.5s117.333 -6.33301 168 -19s94 -31.667 130 -57s64 -57.333 84 -96
s30 -83.667 30 -135z" />
    <glyph glyph-name="agrave" unicode="&#xe0;" horiz-adv-x="1087" 
d="M793 0l-37.001 152h-8c-22 -30 -44 -55.833 -66 -77.5s-46 -39.5 -72 -53.5s-55 -24.333 -87 -31s-69 -10 -111 -10c-46 0 -88.333 6.5 -127 19.5s-72.167 33 -100.5 60s-50.5 61 -66.5 102s-24 89.5 -24 145.5c0 109.333 38.5 193.333 115.5 252
s194.167 90.667 351.5 96l184 7v69c0 44.667 -4.83301 82 -14.5 112s-23.667 54.167 -42 72.5s-41 31.5 -68 39.5s-57.833 12 -92.5 12c-55.333 0 -106.833 -8 -154.5 -24s-93.5 -35.333 -137.5 -58l-64 137c49.333 26.667 104.333 49.334 165 68.001s124.334 28 191.001 28
c68 0 126.833 -6.83301 176.5 -20.5s90.667 -35.334 123 -65.001s56.5 -67.5 72.5 -113.5s24 -101.667 24 -167v-752h-131zM458.999 127c40.667 0 78.334 6.33301 113.001 19s64.667 31.834 90 57.501s45.166 58 59.499 97s21.5 84.833 21.5 137.5v99l-143 -7
c-60 -2.66699 -110.333 -9.33398 -151 -20.001s-73.167 -25.5 -97.5 -44.5s-41.833 -42 -52.5 -69s-16 -57.5 -16 -91.5c0 -61.333 16.167 -106.333 48.5 -135s74.833 -43 127.5 -43zM677.999 1241l-120.001 -0.00195312c-23.333 18.667 -48.666 41.834 -75.999 69.501
s-53.833 56.167 -79.5 85.5s-49 57.5 -70 84.5s-36.833 49.5 -47.5 67.5v21h219c10.667 -22.667 23.167 -47.5 37.5 -74.5l44.5 -81c15.333 -27 31 -53.167 47 -78.5s31 -47.666 45 -66.999v-27z" />
    <glyph glyph-name="aacute" unicode="&#xe1;" horiz-adv-x="1087" 
d="M793 0l-37.001 152h-8c-22 -30 -44 -55.833 -66 -77.5s-46 -39.5 -72 -53.5s-55 -24.333 -87 -31s-69 -10 -111 -10c-46 0 -88.333 6.5 -127 19.5s-72.167 33 -100.5 60s-50.5 61 -66.5 102s-24 89.5 -24 145.5c0 109.333 38.5 193.333 115.5 252
s194.167 90.667 351.5 96l184 7v69c0 44.667 -4.83301 82 -14.5 112s-23.667 54.167 -42 72.5s-41 31.5 -68 39.5s-57.833 12 -92.5 12c-55.333 0 -106.833 -8 -154.5 -24s-93.5 -35.333 -137.5 -58l-64 137c49.333 26.667 104.333 49.334 165 68.001s124.334 28 191.001 28
c68 0 126.833 -6.83301 176.5 -20.5s90.667 -35.334 123 -65.001s56.5 -67.5 72.5 -113.5s24 -101.667 24 -167v-752h-131zM458.999 127c40.667 0 78.334 6.33301 113.001 19s64.667 31.834 90 57.501s45.166 58 59.499 97s21.5 84.833 21.5 137.5v99l-143 -7
c-60 -2.66699 -110.333 -9.33398 -151 -20.001s-73.167 -25.5 -97.5 -44.5s-41.833 -42 -52.5 -69s-16 -57.5 -16 -91.5c0 -61.333 16.167 -106.333 48.5 -135s74.833 -43 127.5 -43zM445.999 1268c14.667 19.333 29.833 41.668 45.5 67.001l47 78.5
c15.667 27 30.5 54 44.5 81s26.333 51.833 37 74.5h219v-21c-10.667 -18 -26.5 -40.5 -47.5 -67.5s-44.333 -55.167 -70 -84.5s-52 -57.833 -79 -85.5s-52.167 -50.834 -75.5 -69.501h-121v27z" />
    <glyph glyph-name="acircumflex" unicode="&#xe2;" horiz-adv-x="1087" 
d="M793 0l-37.001 152h-8c-22 -30 -44 -55.833 -66 -77.5s-46 -39.5 -72 -53.5s-55 -24.333 -87 -31s-69 -10 -111 -10c-46 0 -88.333 6.5 -127 19.5s-72.167 33 -100.5 60s-50.5 61 -66.5 102s-24 89.5 -24 145.5c0 109.333 38.5 193.333 115.5 252
s194.167 90.667 351.5 96l184 7v69c0 44.667 -4.83301 82 -14.5 112s-23.667 54.167 -42 72.5s-41 31.5 -68 39.5s-57.833 12 -92.5 12c-55.333 0 -106.833 -8 -154.5 -24s-93.5 -35.333 -137.5 -58l-64 137c49.333 26.667 104.333 49.334 165 68.001s124.334 28 191.001 28
c68 0 126.833 -6.83301 176.5 -20.5s90.667 -35.334 123 -65.001s56.5 -67.5 72.5 -113.5s24 -101.667 24 -167v-752h-131zM458.999 127c40.667 0 78.334 6.33301 113.001 19s64.667 31.834 90 57.501s45.166 58 59.499 97s21.5 84.833 21.5 137.5v99l-143 -7
c-60 -2.66699 -110.333 -9.33398 -151 -20.001s-73.167 -25.5 -97.5 -44.5s-41.833 -42 -52.5 -69s-16 -57.5 -16 -91.5c0 -61.333 16.167 -106.333 48.5 -135s74.833 -43 127.5 -43zM891.999 1241h-121.002c-34 22.667 -69 50.167 -105 82.5s-71.333 66.833 -106 103.5
c-36 -36.667 -71.667 -71.167 -107 -103.5s-70 -59.833 -104 -82.5h-121v27l60 67l67.5 78.5c22.333 27 43.333 54 63 81s34.834 51.833 45.501 74.5h192c10.667 -22.667 25.834 -47.5 45.501 -74.5s40.667 -54 63 -81l68 -78.5l59.5 -67v-27z" />
    <glyph glyph-name="atilde" unicode="&#xe3;" horiz-adv-x="1087" 
d="M793 0l-37.001 152h-8c-22 -30 -44 -55.833 -66 -77.5s-46 -39.5 -72 -53.5s-55 -24.333 -87 -31s-69 -10 -111 -10c-46 0 -88.333 6.5 -127 19.5s-72.167 33 -100.5 60s-50.5 61 -66.5 102s-24 89.5 -24 145.5c0 109.333 38.5 193.333 115.5 252
s194.167 90.667 351.5 96l184 7v69c0 44.667 -4.83301 82 -14.5 112s-23.667 54.167 -42 72.5s-41 31.5 -68 39.5s-57.833 12 -92.5 12c-55.333 0 -106.833 -8 -154.5 -24s-93.5 -35.333 -137.5 -58l-64 137c49.333 26.667 104.333 49.334 165 68.001s124.334 28 191.001 28
c68 0 126.833 -6.83301 176.5 -20.5s90.667 -35.334 123 -65.001s56.5 -67.5 72.5 -113.5s24 -101.667 24 -167v-752h-131zM458.999 127c40.667 0 78.334 6.33301 113.001 19s64.667 31.834 90 57.501s45.166 58 59.499 97s21.5 84.833 21.5 137.5v99l-143 -7
c-60 -2.66699 -110.333 -9.33398 -151 -20.001s-73.167 -25.5 -97.5 -44.5s-41.833 -42 -52.5 -69s-16 -57.5 -16 -91.5c0 -61.333 16.167 -106.333 48.5 -135s74.833 -43 127.5 -43zM698.999 1243c-26.667 0 -53.1699 5.83398 -79.5029 17.501s-52.166 24.667 -77.499 39
s-49.666 27.333 -72.999 39s-45.666 17.5 -66.999 17.5c-30 0 -53 -8.83301 -69 -26.5s-28.667 -47.167 -38 -88.5h-104c3.33301 40 10.5 76.333 21.5 109s25.333 60.5 43 83.5s38.834 40.667 63.501 53s52.334 18.5 83.001 18.5c28 0 55.5 -5.83301 82.5 -17.5
s53.167 -24.5 78.5 -38.5l72.5 -38.5c23 -11.667 44.167 -17.5 63.5 -17.5c30 0 52.667 8.66699 68 26s28 46.666 38 87.999h105c-3.33301 -40 -10.5 -76.167 -21.5 -108.5s-25.333 -60 -43 -83s-38.834 -40.833 -63.501 -53.5s-52.334 -19 -83.001 -19z" />
    <glyph glyph-name="adieresis" unicode="&#xe4;" horiz-adv-x="1087" 
d="M793 0l-37.001 152h-8c-22 -30 -44 -55.833 -66 -77.5s-46 -39.5 -72 -53.5s-55 -24.333 -87 -31s-69 -10 -111 -10c-46 0 -88.333 6.5 -127 19.5s-72.167 33 -100.5 60s-50.5 61 -66.5 102s-24 89.5 -24 145.5c0 109.333 38.5 193.333 115.5 252
s194.167 90.667 351.5 96l184 7v69c0 44.667 -4.83301 82 -14.5 112s-23.667 54.167 -42 72.5s-41 31.5 -68 39.5s-57.833 12 -92.5 12c-55.333 0 -106.833 -8 -154.5 -24s-93.5 -35.333 -137.5 -58l-64 137c49.333 26.667 104.333 49.334 165 68.001s124.334 28 191.001 28
c68 0 126.833 -6.83301 176.5 -20.5s90.667 -35.334 123 -65.001s56.5 -67.5 72.5 -113.5s24 -101.667 24 -167v-752h-131zM458.999 127c40.667 0 78.334 6.33301 113.001 19s64.667 31.834 90 57.501s45.166 58 59.499 97s21.5 84.833 21.5 137.5v99l-143 -7
c-60 -2.66699 -110.333 -9.33398 -151 -20.001s-73.167 -25.5 -97.5 -44.5s-41.833 -42 -52.5 -69s-16 -57.5 -16 -91.5c0 -61.333 16.167 -106.333 48.5 -135s74.833 -43 127.5 -43zM272.999 1395c0 36 9.33301 61.999 28 77.999s41.334 24 68.001 24
c26 0 48.667 -8.16699 68 -24.5s29 -42.166 29 -77.499s-9.66699 -61.333 -29 -78s-42 -25 -68 -25c-26.667 0 -49.334 8.33301 -68.001 25s-28 42.667 -28 78zM647.999 1395c0 36 9.33008 62 27.9971 78s41.334 24 68.001 24c12.667 0 24.834 -2 36.501 -6
s21.834 -10.167 30.501 -18.5s15.667 -18.833 21 -31.5s8 -28 8 -46c0 -35.333 -9.66699 -61.333 -29 -78s-41.666 -25 -66.999 -25c-26.667 0 -49.334 8.33301 -68.001 25s-28 42.667 -28 78z" />
    <glyph glyph-name="aring" unicode="&#xe5;" horiz-adv-x="1087" 
d="M793 0l-37.001 152h-8c-22 -30 -44 -55.833 -66 -77.5s-46 -39.5 -72 -53.5s-55 -24.333 -87 -31s-69 -10 -111 -10c-46 0 -88.333 6.5 -127 19.5s-72.167 33 -100.5 60s-50.5 61 -66.5 102s-24 89.5 -24 145.5c0 109.333 38.5 193.333 115.5 252
s194.167 90.667 351.5 96l184 7v69c0 44.667 -4.83301 82 -14.5 112s-23.667 54.167 -42 72.5s-41 31.5 -68 39.5s-57.833 12 -92.5 12c-55.333 0 -106.833 -8 -154.5 -24s-93.5 -35.333 -137.5 -58l-64 137c49.333 26.667 104.333 49.334 165 68.001s124.334 28 191.001 28
c68 0 126.833 -6.83301 176.5 -20.5s90.667 -35.334 123 -65.001s56.5 -67.5 72.5 -113.5s24 -101.667 24 -167v-752h-131zM458.999 127c40.667 0 78.334 6.33301 113.001 19s64.667 31.834 90 57.501s45.166 58 59.499 97s21.5 84.833 21.5 137.5v99l-143 -7
c-60 -2.66699 -110.333 -9.33398 -151 -20.001s-73.167 -25.5 -97.5 -44.5s-41.833 -42 -52.5 -69s-16 -57.5 -16 -91.5c0 -61.333 16.167 -106.333 48.5 -135s74.833 -43 127.5 -43zM782.999 1458c0 -34 -5.83398 -64.5029 -17.501 -91.5029s-27.667 -49.833 -48 -68.5
s-44.5 -32.834 -72.5 -42.501s-58.333 -14.5 -91 -14.5c-33.333 0 -63.666 4.83301 -90.999 14.5s-50.833 23.834 -70.5 42.501s-34.834 41.167 -45.501 67.5s-16 56.5 -16 90.5s5.33301 64.167 16 90.5s25.834 48.833 45.501 67.5s43.167 32.834 70.5 42.501
s57.666 14.5 90.999 14.5c32 0 62 -4.83301 90 -14.5s52.333 -23.667 73 -42s36.834 -40.666 48.501 -66.999s17.5 -56.166 17.5 -89.499zM665.998 1456c0 35.333 -10.5 63 -31.5 83s-47.833 30 -80.5 30c-33.333 0 -60.5 -10 -81.5 -30s-31.5 -47.667 -31.5 -83
s9.5 -63 28.5 -83s47.167 -30 84.5 -30c32.667 0 59.5 10 80.5 30s31.5 47.667 31.5 83z" />
    <glyph glyph-name="ae" unicode="&#xe6;" horiz-adv-x="1706" 
d="M94 307c0 109.333 38.498 193.333 115.498 252s194.167 90.667 351.5 96l184 7v69c0 44.667 -4.83301 82 -14.5 112s-23.667 54.167 -42 72.5s-41 31.5 -68 39.5s-57.833 12 -92.5 12c-55.333 0 -106.833 -8 -154.5 -24s-93.5 -35.333 -137.5 -58l-64 137
c49.333 26.667 104.333 49.334 165 68.001s124.334 28 191.001 28c87.333 0 158.666 -14.167 213.999 -42.5s97.333 -73.5 126 -135.5c34 56.667 78.667 100.5 134 131.5s117.333 46.5 186 46.5c64.667 0 122.667 -11.833 174 -35.5s95 -57 131 -100s63.5 -94.667 82.5 -155
s28.5 -127.166 28.5 -200.499v-113h-672c3.33301 -128.667 29.5 -223.334 78.5 -284.001s122.5 -91 220.5 -91c32.667 0 63.167 1.66699 91.5 5s55.5 8.16602 81.5 14.499s51.333 14.333 76 24s49.334 20.5 74.001 32.5v-162c-26 -12.667 -51.5 -23.667 -76.5 -33
s-50.667 -17 -77 -23s-53.666 -10.333 -81.999 -13s-58.833 -4 -91.5 -4c-92 0 -171.667 19 -239 57s-121.666 95.333 -162.999 172c-22.667 -36 -46.667 -68.167 -72 -96.5s-53.833 -52.333 -85.5 -72s-66.834 -34.667 -105.501 -45s-82.667 -15.5 -132 -15.5
c-47.333 0 -91.5 6.5 -132.5 19.5s-76.5 33 -106.5 60s-53.667 61 -71 102s-26 89.5 -26 145.5zM282.998 305c0 -61.333 16.167 -106.333 48.5 -135s74.833 -43 127.5 -43c40.667 0 78.334 6.33301 113.001 19s64.667 31.834 90 57.501s45.166 58 59.499 97
s21.5 84.833 21.5 137.5v99l-143 -7c-60 -2.66699 -110.333 -9.33398 -151 -20.001s-73.167 -25.5 -97.5 -44.5s-41.833 -42 -52.5 -69s-16 -57.5 -16 -91.5zM1184 967c-73.333 0 -131.168 -26.002 -173.501 -78.002s-67.166 -127.667 -74.499 -227h471
c0 45.333 -4.33301 86.833 -13 124.5s-22.167 69.834 -40.5 96.501s-41.5 47.334 -69.5 62.001s-61.333 22 -100 22z" />
    <glyph glyph-name="ccedilla" unicode="&#xe7;" horiz-adv-x="948" 
d="M594 -20c-67.333 0 -130.332 10.499 -188.999 31.499s-109.667 54.333 -153 100s-77.333 104 -102 175s-37 156.5 -37 256.5c0 104.667 12.667 193.5 38 266.5s60.166 132.333 104.499 178s96.166 78.834 155.499 99.501s123 31 191 31c52 0 102.833 -5.66699 152.5 -17
s91.167 -25.333 124.5 -42l-54 -154c-15.333 6.66699 -32.333 13.167 -51 19.5s-38 12 -58 17s-39.667 9 -59 12s-37.666 4.5 -54.999 4.5c-104.667 0 -181 -33.5 -229 -100.5s-72 -171.167 -72 -312.5c0 -140.667 24.167 -243.5 72.5 -308.5s121.833 -97.5 220.5 -97.5
c54 0 102.833 6.16699 146.5 18.5s83.5 26.833 119.5 43.5v-162c-36 -19.333 -74.5 -34 -115.5 -44s-91.167 -15 -150.5 -15zM730.001 -287.001c0 -64.667 -23.498 -115 -70.498 -151s-120.5 -54 -220.5 -54c-14.667 0 -29.5 1 -44.5 3s-27.5 4 -37.5 6v108
c10 -2 23.167 -3.5 39.5 -4.5s29.833 -1.5 40.5 -1.5c47.333 0 84.333 7.16699 111 21.5s40 37.833 40 70.5c0 16 -4.33301 29.833 -13 41.5s-20.667 21.834 -36 30.501s-33.5 16.167 -54.5 22.5s-43.833 12.5 -68.5 18.5l90 176h121l-57 -115
c22.667 -5.33301 43.667 -12.333 63 -21s36.166 -19.834 50.499 -33.501s25.666 -30.167 33.999 -49.5s12.5 -42 12.5 -68z" />
    <glyph glyph-name="egrave" unicode="&#xe8;" horiz-adv-x="1096" 
d="M608 -20c-73.333 0 -140.333 12.334 -201 37.001s-112.834 60.667 -156.501 108s-77.5 106 -101.5 176s-36 150 -36 240c0 90.667 11 171.667 33 243s53 131.833 93 181.5s87.833 87.5 143.5 113.5s117.167 39 184.5 39c66 0 125.333 -11.833 178 -35.5
s97.334 -57 134.001 -100s64.834 -94.667 84.501 -155s29.5 -127.166 29.5 -200.499v-113h-692c3.33301 -128.667 30.5 -223.334 81.5 -284.001s126.833 -91 227.5 -91c34 0 65.5 1.66699 94.5 5s57 8.16602 84 14.499s53.167 14.333 78.5 24s51 20.5 77 32.5v-162
c-26.667 -12.667 -52.834 -23.667 -78.501 -33s-52 -17 -79 -23s-55 -10.333 -84 -13s-60.5 -4 -94.5 -4zM563 967.001c-76 0 -136.169 -26.002 -180.502 -78.002s-70.166 -127.667 -77.499 -227h492c0 45.333 -4.5 86.833 -13.5 124.5s-23 69.834 -42 96.501
s-43.167 47.334 -72.5 62.001s-64.666 22 -105.999 22zM677.998 1241l-120.001 -0.00195312c-23.333 18.667 -48.666 41.834 -75.999 69.501s-53.833 56.167 -79.5 85.5s-49 57.5 -70 84.5s-36.833 49.5 -47.5 67.5v21h219c10.667 -22.667 23.167 -47.5 37.5 -74.5l44.5 -81
c15.333 -27 31 -53.167 47 -78.5s31 -47.666 45 -66.999v-27z" />
    <glyph glyph-name="eacute" unicode="&#xe9;" horiz-adv-x="1096" 
d="M608 -20c-73.333 0 -140.333 12.334 -201 37.001s-112.834 60.667 -156.501 108s-77.5 106 -101.5 176s-36 150 -36 240c0 90.667 11 171.667 33 243s53 131.833 93 181.5s87.833 87.5 143.5 113.5s117.167 39 184.5 39c66 0 125.333 -11.833 178 -35.5
s97.334 -57 134.001 -100s64.834 -94.667 84.501 -155s29.5 -127.166 29.5 -200.499v-113h-692c3.33301 -128.667 30.5 -223.334 81.5 -284.001s126.833 -91 227.5 -91c34 0 65.5 1.66699 94.5 5s57 8.16602 84 14.499s53.167 14.333 78.5 24s51 20.5 77 32.5v-162
c-26.667 -12.667 -52.834 -23.667 -78.501 -33s-52 -17 -79 -23s-55 -10.333 -84 -13s-60.5 -4 -94.5 -4zM563 967.001c-76 0 -136.169 -26.002 -180.502 -78.002s-70.166 -127.667 -77.499 -227h492c0 45.333 -4.5 86.833 -13.5 124.5s-23 69.834 -42 96.501
s-43.167 47.334 -72.5 62.001s-64.666 22 -105.999 22zM474.998 1268c14.667 19.333 29.833 41.668 45.5 67.001l47 78.5c15.667 27 30.5 54 44.5 81s26.333 51.833 37 74.5h219v-21c-10.667 -18 -26.5 -40.5 -47.5 -67.5s-44.333 -55.167 -70 -84.5s-52 -57.833 -79 -85.5
s-52.167 -50.834 -75.5 -69.501h-121v27z" />
    <glyph glyph-name="ecircumflex" unicode="&#xea;" horiz-adv-x="1096" 
d="M608 -20c-73.333 0 -140.333 12.334 -201 37.001s-112.834 60.667 -156.501 108s-77.5 106 -101.5 176s-36 150 -36 240c0 90.667 11 171.667 33 243s53 131.833 93 181.5s87.833 87.5 143.5 113.5s117.167 39 184.5 39c66 0 125.333 -11.833 178 -35.5
s97.334 -57 134.001 -100s64.834 -94.667 84.501 -155s29.5 -127.166 29.5 -200.499v-113h-692c3.33301 -128.667 30.5 -223.334 81.5 -284.001s126.833 -91 227.5 -91c34 0 65.5 1.66699 94.5 5s57 8.16602 84 14.499s53.167 14.333 78.5 24s51 20.5 77 32.5v-162
c-26.667 -12.667 -52.834 -23.667 -78.501 -33s-52 -17 -79 -23s-55 -10.333 -84 -13s-60.5 -4 -94.5 -4zM563 967.001c-76 0 -136.169 -26.002 -180.502 -78.002s-70.166 -127.667 -77.499 -227h492c0 45.333 -4.5 86.833 -13.5 124.5s-23 69.834 -42 96.501
s-43.167 47.334 -72.5 62.001s-64.666 22 -105.999 22zM887.998 1241h-121.002c-34 22.667 -69 50.167 -105 82.5s-71.333 66.833 -106 103.5c-36 -36.667 -71.667 -71.167 -107 -103.5s-70 -59.833 -104 -82.5h-121v27l60 67l67.5 78.5c22.333 27 43.333 54 63 81
s34.834 51.833 45.501 74.5h192c10.667 -22.667 25.834 -47.5 45.501 -74.5s40.667 -54 63 -81l68 -78.5l59.5 -67v-27z" />
    <glyph glyph-name="edieresis" unicode="&#xeb;" horiz-adv-x="1096" 
d="M608 -20c-73.333 0 -140.333 12.334 -201 37.001s-112.834 60.667 -156.501 108s-77.5 106 -101.5 176s-36 150 -36 240c0 90.667 11 171.667 33 243s53 131.833 93 181.5s87.833 87.5 143.5 113.5s117.167 39 184.5 39c66 0 125.333 -11.833 178 -35.5
s97.334 -57 134.001 -100s64.834 -94.667 84.501 -155s29.5 -127.166 29.5 -200.499v-113h-692c3.33301 -128.667 30.5 -223.334 81.5 -284.001s126.833 -91 227.5 -91c34 0 65.5 1.66699 94.5 5s57 8.16602 84 14.499s53.167 14.333 78.5 24s51 20.5 77 32.5v-162
c-26.667 -12.667 -52.834 -23.667 -78.501 -33s-52 -17 -79 -23s-55 -10.333 -84 -13s-60.5 -4 -94.5 -4zM563 967.001c-76 0 -136.169 -26.002 -180.502 -78.002s-70.166 -127.667 -77.499 -227h492c0 45.333 -4.5 86.833 -13.5 124.5s-23 69.834 -42 96.501
s-43.167 47.334 -72.5 62.001s-64.666 22 -105.999 22zM268.998 1395c0 36 9.33301 61.999 28 77.999s41.334 24 68.001 24c26 0 48.667 -8.16699 68 -24.5s29 -42.166 29 -77.499s-9.66699 -61.333 -29 -78s-42 -25 -68 -25c-26.667 0 -49.334 8.33301 -68.001 25
s-28 42.667 -28 78zM643.998 1395c0 36 9.33008 62 27.9971 78s41.334 24 68.001 24c12.667 0 24.834 -2 36.501 -6s21.834 -10.167 30.501 -18.5s15.667 -18.833 21 -31.5s8 -28 8 -46c0 -35.333 -9.66699 -61.333 -29 -78s-41.666 -25 -66.999 -25
c-26.667 0 -49.334 8.33301 -68.001 25s-28 42.667 -28 78z" />
    <glyph glyph-name="igrave" unicode="&#xec;" horiz-adv-x="530" 
d="M356 0h-182v1098h182v-1098zM359 1241l-120.001 -0.00195312c-23.333 18.667 -48.666 41.834 -75.999 69.501s-53.833 56.167 -79.5 85.5s-49 57.5 -70 84.5s-36.833 49.5 -47.5 67.5v21h219c10.667 -22.667 23.167 -47.5 37.5 -74.5l44.5 -81
c15.333 -27 31 -53.167 47 -78.5s31 -47.666 45 -66.999v-27z" />
    <glyph glyph-name="iacute" unicode="&#xed;" horiz-adv-x="530" 
d="M356 0h-182v1098h182v-1098zM185 1268c14.667 19.333 29.833 41.668 45.5 67.001l47 78.5c15.667 27 30.5 54 44.5 81s26.333 51.833 37 74.5h219v-21c-10.667 -18 -26.5 -40.5 -47.5 -67.5s-44.333 -55.167 -70 -84.5s-52 -57.833 -79 -85.5
s-52.167 -50.834 -75.5 -69.501h-121v27z" />
    <glyph glyph-name="icircumflex" unicode="&#xee;" horiz-adv-x="530" 
d="M356 0h-182v1098h182v-1098zM597 1241h-121.002c-34 22.667 -69 50.167 -105 82.5s-71.333 66.833 -106 103.5c-36 -36.667 -71.667 -71.167 -107 -103.5s-70 -59.833 -104 -82.5h-121v27l60 67l67.5 78.5c22.333 27 43.333 54 63 81s34.834 51.833 45.501 74.5h192
c10.667 -22.667 25.834 -47.5 45.501 -74.5s40.667 -54 63 -81l68 -78.5l59.5 -67v-27z" />
    <glyph glyph-name="idieresis" unicode="&#xef;" horiz-adv-x="530" 
d="M356 0h-182v1098h182v-1098zM-18 1395c0 36 9.33301 61.999 28 77.999s41.334 24 68.001 24c26 0 48.667 -8.16699 68 -24.5s29 -42.166 29 -77.499s-9.66699 -61.333 -29 -78s-42 -25 -68 -25c-26.667 0 -49.334 8.33301 -68.001 25s-28 42.667 -28 78zM357 1395
c0 36 9.33008 62 27.9971 78s41.334 24 68.001 24c12.667 0 24.834 -2 36.501 -6s21.834 -10.167 30.501 -18.5s15.667 -18.833 21 -31.5s8 -28 8 -46c0 -35.333 -9.66699 -61.333 -29 -78s-41.666 -25 -66.999 -25c-26.667 0 -49.334 8.33301 -68.001 25s-28 42.667 -28 78
z" />
    <glyph glyph-name="eth" unicode="&#xf0;" horiz-adv-x="1182" 
d="M1069 573c0 -94.667 -11.1699 -178.665 -33.5029 -251.998s-54.333 -135.333 -96 -186s-92.167 -89.167 -151.5 -115.5s-126 -39.5 -200 -39.5c-69.333 0 -133.166 11 -191.499 33s-108.666 54.167 -150.999 96.5s-75.333 94.333 -99 156s-35.5 132.167 -35.5 211.5
s10.5 149.666 31.5 210.999s51.167 113 90.5 155s87 73.833 143 95.5s119 32.5 189 32.5c68 0 127.667 -9.83301 179 -29.5s91.333 -49.5 120 -89.5l8 4c-20.667 78.667 -51 150 -91 214s-90 123 -150 177l-256 -153l-74 114l217 131l-82.5 55.5
c-28.333 18.333 -58.166 36.166 -89.499 53.499l70 123c43.333 -21.333 85.333 -44 126 -68s80.667 -50.667 120 -80l227 138l74 -113l-195 -117c44.667 -43.333 85.5 -91 122.5 -143s68.667 -109.167 95 -171.5s46.833 -130.333 61.5 -204s22 -153.5 22 -239.5z
M880.997 526.002c0 37.333 -5.66992 73.834 -17.0029 109.501s-28.666 67.167 -51.999 94.5s-53.333 49.333 -90 66s-80 25 -130 25c-51.333 0 -95.166 -7.66699 -131.499 -23s-66.166 -37.666 -89.499 -66.999s-40.5 -65.833 -51.5 -109.5s-16.5 -93.834 -16.5 -150.501
c0 -50.667 5.5 -96.834 16.5 -138.501s28.333 -77.5 52 -107.5s53.667 -53.167 90 -69.5s79.833 -24.5 130.5 -24.5c102.667 0 176.5 33.167 221.5 99.5s67.5 164.833 67.5 295.5z" />
    <glyph glyph-name="ntilde" unicode="&#xf1;" horiz-adv-x="1206" 
d="M860 0v707c0 86.667 -17.5 151.667 -52.5 195s-89.833 65 -164.5 65c-54 0 -99.333 -8.66699 -136 -26s-66.167 -43 -88.5 -77s-38.333 -75.667 -48 -125s-14.5 -106 -14.5 -170v-569h-182v1098h148l26 -148h10c16.667 28.667 36.5 53.5 59.5 74.5s48.167 38.5 75.5 52.5
s56.333 24.333 87 31s62 10 94 10c122 0 213.833 -31.833 275.5 -95.5s92.5 -165.5 92.5 -305.5v-717h-182zM759 1243c-26.667 0 -53.1699 5.83398 -79.5029 17.501s-52.166 24.667 -77.499 39s-49.666 27.333 -72.999 39s-45.666 17.5 -66.999 17.5
c-30 0 -53 -8.83301 -69 -26.5s-28.667 -47.167 -38 -88.5h-104c3.33301 40 10.5 76.333 21.5 109s25.333 60.5 43 83.5s38.834 40.667 63.501 53s52.334 18.5 83.001 18.5c28 0 55.5 -5.83301 82.5 -17.5s53.167 -24.5 78.5 -38.5l72.5 -38.5
c23 -11.667 44.167 -17.5 63.5 -17.5c30 0 52.667 8.66699 68 26s28 46.666 38 87.999h105c-3.33301 -40 -10.5 -76.167 -21.5 -108.5s-25.333 -60 -43 -83s-38.834 -40.833 -63.501 -53.5s-52.334 -19 -83.001 -19z" />
    <glyph glyph-name="ograve" unicode="&#xf2;" horiz-adv-x="1182" 
d="M1069 551c0 -91.333 -11.166 -172.5 -33.499 -243.5s-54.333 -130.667 -96 -179s-92.167 -85.166 -151.5 -110.499s-126 -38 -200 -38c-68.667 0 -132 12.667 -190 38s-108.167 62.166 -150.5 110.499s-75.333 108 -99 179s-35.5 152.167 -35.5 243.5
c0 90.667 11.167 171.167 33.5 241.5s54.166 129.666 95.499 177.999s91.833 85 151.5 110s126.5 37.5 200.5 37.5c68.667 0 132 -12.5 190 -37.5s108.167 -61.667 150.5 -110s75.333 -107.666 99 -177.999s35.5 -150.833 35.5 -241.5zM301.001 551
c0 -139.333 22.833 -244.166 68.5 -314.499s119.834 -105.5 222.501 -105.5s176.5 35.167 221.5 105.5s67.5 175.166 67.5 314.499s-22.833 243.5 -68.5 312.5s-119.834 103.5 -222.501 103.5s-176.5 -34.5 -221.5 -103.5s-67.5 -173.167 -67.5 -312.5zM746.001 1241
l-120.001 -0.00195312c-23.333 18.667 -48.666 41.834 -75.999 69.501s-53.833 56.167 -79.5 85.5s-49 57.5 -70 84.5s-36.833 49.5 -47.5 67.5v21h219c10.667 -22.667 23.167 -47.5 37.5 -74.5l44.5 -81c15.333 -27 31 -53.167 47 -78.5s31 -47.666 45 -66.999v-27z" />
    <glyph glyph-name="oacute" unicode="&#xf3;" horiz-adv-x="1182" 
d="M1069 551c0 -91.333 -11.166 -172.5 -33.499 -243.5s-54.333 -130.667 -96 -179s-92.167 -85.166 -151.5 -110.499s-126 -38 -200 -38c-68.667 0 -132 12.667 -190 38s-108.167 62.166 -150.5 110.499s-75.333 108 -99 179s-35.5 152.167 -35.5 243.5
c0 90.667 11.167 171.167 33.5 241.5s54.166 129.666 95.499 177.999s91.833 85 151.5 110s126.5 37.5 200.5 37.5c68.667 0 132 -12.5 190 -37.5s108.167 -61.667 150.5 -110s75.333 -107.666 99 -177.999s35.5 -150.833 35.5 -241.5zM301.001 551
c0 -139.333 22.833 -244.166 68.5 -314.499s119.834 -105.5 222.501 -105.5s176.5 35.167 221.5 105.5s67.5 175.166 67.5 314.499s-22.833 243.5 -68.5 312.5s-119.834 103.5 -222.501 103.5s-176.5 -34.5 -221.5 -103.5s-67.5 -173.167 -67.5 -312.5zM473.001 1268
c14.667 19.333 29.833 41.668 45.5 67.001l47 78.5c15.667 27 30.5 54 44.5 81s26.333 51.833 37 74.5h219v-21c-10.667 -18 -26.5 -40.5 -47.5 -67.5s-44.333 -55.167 -70 -84.5s-52 -57.833 -79 -85.5s-52.167 -50.834 -75.5 -69.501h-121v27z" />
    <glyph glyph-name="ocircumflex" unicode="&#xf4;" horiz-adv-x="1182" 
d="M1069 551c0 -91.333 -11.166 -172.5 -33.499 -243.5s-54.333 -130.667 -96 -179s-92.167 -85.166 -151.5 -110.499s-126 -38 -200 -38c-68.667 0 -132 12.667 -190 38s-108.167 62.166 -150.5 110.499s-75.333 108 -99 179s-35.5 152.167 -35.5 243.5
c0 90.667 11.167 171.167 33.5 241.5s54.166 129.666 95.499 177.999s91.833 85 151.5 110s126.5 37.5 200.5 37.5c68.667 0 132 -12.5 190 -37.5s108.167 -61.667 150.5 -110s75.333 -107.666 99 -177.999s35.5 -150.833 35.5 -241.5zM301.001 551
c0 -139.333 22.833 -244.166 68.5 -314.499s119.834 -105.5 222.501 -105.5s176.5 35.167 221.5 105.5s67.5 175.166 67.5 314.499s-22.833 243.5 -68.5 312.5s-119.834 103.5 -222.501 103.5s-176.5 -34.5 -221.5 -103.5s-67.5 -173.167 -67.5 -312.5zM917.001 1241
h-121.002c-34 22.667 -69 50.167 -105 82.5s-71.333 66.833 -106 103.5c-36 -36.667 -71.667 -71.167 -107 -103.5s-70 -59.833 -104 -82.5h-121v27l60 67l67.5 78.5c22.333 27 43.333 54 63 81s34.834 51.833 45.501 74.5h192c10.667 -22.667 25.834 -47.5 45.501 -74.5
s40.667 -54 63 -81l68 -78.5l59.5 -67v-27z" />
    <glyph glyph-name="otilde" unicode="&#xf5;" horiz-adv-x="1182" 
d="M1069 551c0 -91.333 -11.166 -172.5 -33.499 -243.5s-54.333 -130.667 -96 -179s-92.167 -85.166 -151.5 -110.499s-126 -38 -200 -38c-68.667 0 -132 12.667 -190 38s-108.167 62.166 -150.5 110.499s-75.333 108 -99 179s-35.5 152.167 -35.5 243.5
c0 90.667 11.167 171.167 33.5 241.5s54.166 129.666 95.499 177.999s91.833 85 151.5 110s126.5 37.5 200.5 37.5c68.667 0 132 -12.5 190 -37.5s108.167 -61.667 150.5 -110s75.333 -107.666 99 -177.999s35.5 -150.833 35.5 -241.5zM301.001 551
c0 -139.333 22.833 -244.166 68.5 -314.499s119.834 -105.5 222.501 -105.5s176.5 35.167 221.5 105.5s67.5 175.166 67.5 314.499s-22.833 243.5 -68.5 312.5s-119.834 103.5 -222.501 103.5s-176.5 -34.5 -221.5 -103.5s-67.5 -173.167 -67.5 -312.5zM736.001 1243
c-26.667 0 -53.1699 5.83398 -79.5029 17.501s-52.166 24.667 -77.499 39s-49.666 27.333 -72.999 39s-45.666 17.5 -66.999 17.5c-30 0 -53 -8.83301 -69 -26.5s-28.667 -47.167 -38 -88.5h-104c3.33301 40 10.5 76.333 21.5 109s25.333 60.5 43 83.5
s38.834 40.667 63.501 53s52.334 18.5 83.001 18.5c28 0 55.5 -5.83301 82.5 -17.5s53.167 -24.5 78.5 -38.5l72.5 -38.5c23 -11.667 44.167 -17.5 63.5 -17.5c30 0 52.667 8.66699 68 26s28 46.666 38 87.999h105c-3.33301 -40 -10.5 -76.167 -21.5 -108.5
s-25.333 -60 -43 -83s-38.834 -40.833 -63.501 -53.5s-52.334 -19 -83.001 -19z" />
    <glyph glyph-name="odieresis" unicode="&#xf6;" horiz-adv-x="1182" 
d="M1069 551c0 -91.333 -11.166 -172.5 -33.499 -243.5s-54.333 -130.667 -96 -179s-92.167 -85.166 -151.5 -110.499s-126 -38 -200 -38c-68.667 0 -132 12.667 -190 38s-108.167 62.166 -150.5 110.499s-75.333 108 -99 179s-35.5 152.167 -35.5 243.5
c0 90.667 11.167 171.167 33.5 241.5s54.166 129.666 95.499 177.999s91.833 85 151.5 110s126.5 37.5 200.5 37.5c68.667 0 132 -12.5 190 -37.5s108.167 -61.667 150.5 -110s75.333 -107.666 99 -177.999s35.5 -150.833 35.5 -241.5zM301.001 551
c0 -139.333 22.833 -244.166 68.5 -314.499s119.834 -105.5 222.501 -105.5s176.5 35.167 221.5 105.5s67.5 175.166 67.5 314.499s-22.833 243.5 -68.5 312.5s-119.834 103.5 -222.501 103.5s-176.5 -34.5 -221.5 -103.5s-67.5 -173.167 -67.5 -312.5zM300.001 1395
c0 36 9.33301 61.999 28 77.999s41.334 24 68.001 24c26 0 48.667 -8.16699 68 -24.5s29 -42.166 29 -77.499s-9.66699 -61.333 -29 -78s-42 -25 -68 -25c-26.667 0 -49.334 8.33301 -68.001 25s-28 42.667 -28 78zM675.001 1395c0 36 9.33008 62 27.9971 78
s41.334 24 68.001 24c12.667 0 24.834 -2 36.501 -6s21.834 -10.167 30.501 -18.5s15.667 -18.833 21 -31.5s8 -28 8 -46c0 -35.333 -9.66699 -61.333 -29 -78s-41.666 -25 -66.999 -25c-26.667 0 -49.334 8.33301 -68.001 25s-28 42.667 -28 78z" />
    <glyph glyph-name="divide" unicode="&#xf7;" 
d="M102 647v150h924v-150h-924zM449 373c0 23.333 3 42.833 9 58.5s14.167 28.5 24.5 38.5s22.333 17.167 36 21.5s28.5 6.5 44.5 6.5c15.333 0 30 -2.16699 44 -6.5s26.333 -11.5 37 -21.5s19 -22.833 25 -38.5s9 -35.167 9 -58.5c0 -22 -3 -40.833 -9 -56.5
s-14.333 -28.667 -25 -39s-23 -17.833 -37 -22.5s-28.667 -7 -44 -7c-16 0 -30.833 2.33301 -44.5 7s-25.667 12.167 -36 22.5s-18.5 23.333 -24.5 39s-9 34.5 -9 56.5zM449 1071c0 23.333 3 42.833 9 58.5s14.167 28.5 24.5 38.5s22.333 17.167 36 21.5s28.5 6.5 44.5 6.5
c15.333 0 30 -2.16699 44 -6.5s26.333 -11.5 37 -21.5s19 -22.833 25 -38.5s9 -35.167 9 -58.5c0 -22 -3 -40.833 -9 -56.5s-14.333 -28.667 -25 -39s-23 -17.833 -37 -22.5s-28.667 -7 -44 -7c-16 0 -30.833 2.33301 -44.5 7s-25.667 12.167 -36 22.5
s-18.5 23.333 -24.5 39s-9 34.5 -9 56.5z" />
    <glyph glyph-name="oslash" unicode="&#xf8;" horiz-adv-x="1182" 
d="M1071 551c0 -91.333 -11.168 -172.498 -33.501 -243.498s-54.333 -130.667 -96 -179s-92.167 -85.166 -151.5 -110.499s-126 -38 -200 -38c-83.333 0 -157.666 17.667 -222.999 53l-68 -109l-131 74l80 131c-42 48 -74.667 107.5 -98 178.5s-35 152.167 -35 243.5
c0 90.667 11.167 171.167 33.5 241.5s54.166 129.666 95.499 177.999s91.833 85 151.5 110s126.5 37.5 200.5 37.5c42 0 81.833 -4.83301 119.5 -14.5s72.834 -23.834 105.501 -42.501l68 108l131 -73l-80 -129c41.333 -48.667 73.5 -107.834 96.5 -177.501
s34.5 -149.167 34.5 -238.5zM302.999 551.002c0 -56 3.16699 -105.833 9.5 -149.5s16.833 -82.5 31.5 -116.5l397 647c-19.333 11.333 -41.5 20 -66.5 26s-52.5 9 -82.5 9c-102.667 0 -176.5 -34.5 -221.5 -103.5s-67.5 -173.167 -67.5 -312.5zM882.999 551.002
c0 106 -13 192 -39 258l-398 -645c20.667 -11.333 43 -19.666 67 -24.999s51 -8 81 -8c102.667 0 176.5 35.167 221.5 105.5s67.5 175.166 67.5 314.499z" />
    <glyph glyph-name="ugrave" unicode="&#xf9;" horiz-adv-x="1206" 
d="M885 0l-26.999 147h-10c-16.667 -28.667 -36.5 -53.5 -59.5 -74.5s-48.167 -38.333 -75.5 -52s-56.333 -23.834 -87 -30.501s-62 -10 -94 -10c-60.667 0 -114 7.66699 -160 23s-84.333 39.333 -115 72s-53.834 74.334 -69.501 125.001s-23.5 111 -23.5 181v717h182v-707
c0 -86.667 17.667 -151.667 53 -195s90 -65 164 -65c54 0 99.333 8.66699 136 26s66.167 42.833 88.5 76.5s38.333 75.167 48 124.5s14.5 106 14.5 170v570h182v-1098h-147zM693.001 1241l-120.001 -0.00195312c-23.333 18.667 -48.666 41.834 -75.999 69.501
s-53.833 56.167 -79.5 85.5s-49 57.5 -70 84.5s-36.833 49.5 -47.5 67.5v21h219c10.667 -22.667 23.167 -47.5 37.5 -74.5l44.5 -81c15.333 -27 31 -53.167 47 -78.5s31 -47.666 45 -66.999v-27z" />
    <glyph glyph-name="uacute" unicode="&#xfa;" horiz-adv-x="1206" 
d="M885 0l-26.999 147h-10c-16.667 -28.667 -36.5 -53.5 -59.5 -74.5s-48.167 -38.333 -75.5 -52s-56.333 -23.834 -87 -30.501s-62 -10 -94 -10c-60.667 0 -114 7.66699 -160 23s-84.333 39.333 -115 72s-53.834 74.334 -69.501 125.001s-23.5 111 -23.5 181v717h182v-707
c0 -86.667 17.667 -151.667 53 -195s90 -65 164 -65c54 0 99.333 8.66699 136 26s66.167 42.833 88.5 76.5s38.333 75.167 48 124.5s14.5 106 14.5 170v570h182v-1098h-147zM489.001 1268c14.667 19.333 29.833 41.668 45.5 67.001l47 78.5c15.667 27 30.5 54 44.5 81
s26.333 51.833 37 74.5h219v-21c-10.667 -18 -26.5 -40.5 -47.5 -67.5s-44.333 -55.167 -70 -84.5s-52 -57.833 -79 -85.5s-52.167 -50.834 -75.5 -69.501h-121v27z" />
    <glyph glyph-name="ucircumflex" unicode="&#xfb;" horiz-adv-x="1206" 
d="M885 0l-26.999 147h-10c-16.667 -28.667 -36.5 -53.5 -59.5 -74.5s-48.167 -38.333 -75.5 -52s-56.333 -23.834 -87 -30.501s-62 -10 -94 -10c-60.667 0 -114 7.66699 -160 23s-84.333 39.333 -115 72s-53.834 74.334 -69.501 125.001s-23.5 111 -23.5 181v717h182v-707
c0 -86.667 17.667 -151.667 53 -195s90 -65 164 -65c54 0 99.333 8.66699 136 26s66.167 42.833 88.5 76.5s38.333 75.167 48 124.5s14.5 106 14.5 170v570h182v-1098h-147zM930.001 1241h-121.002c-34 22.667 -69 50.167 -105 82.5s-71.333 66.833 -106 103.5
c-36 -36.667 -71.667 -71.167 -107 -103.5s-70 -59.833 -104 -82.5h-121v27l60 67l67.5 78.5c22.333 27 43.333 54 63 81s34.834 51.833 45.501 74.5h192c10.667 -22.667 25.834 -47.5 45.501 -74.5s40.667 -54 63 -81l68 -78.5l59.5 -67v-27z" />
    <glyph glyph-name="udieresis" unicode="&#xfc;" horiz-adv-x="1206" 
d="M885 0l-26.999 147h-10c-16.667 -28.667 -36.5 -53.5 -59.5 -74.5s-48.167 -38.333 -75.5 -52s-56.333 -23.834 -87 -30.501s-62 -10 -94 -10c-60.667 0 -114 7.66699 -160 23s-84.333 39.333 -115 72s-53.834 74.334 -69.501 125.001s-23.5 111 -23.5 181v717h182v-707
c0 -86.667 17.667 -151.667 53 -195s90 -65 164 -65c54 0 99.333 8.66699 136 26s66.167 42.833 88.5 76.5s38.333 75.167 48 124.5s14.5 106 14.5 170v570h182v-1098h-147zM309.001 1395c0 36 9.33301 61.999 28 77.999s41.334 24 68.001 24c26 0 48.667 -8.16699 68 -24.5
s29 -42.166 29 -77.499s-9.66699 -61.333 -29 -78s-42 -25 -68 -25c-26.667 0 -49.334 8.33301 -68.001 25s-28 42.667 -28 78zM684.001 1395c0 36 9.33008 62 27.9971 78s41.334 24 68.001 24c12.667 0 24.834 -2 36.501 -6s21.834 -10.167 30.501 -18.5
s15.667 -18.833 21 -31.5s8 -28 8 -46c0 -35.333 -9.66699 -61.333 -29 -78s-41.666 -25 -66.999 -25c-26.667 0 -49.334 8.33301 -68.001 25s-28 42.667 -28 78z" />
    <glyph glyph-name="yacute" unicode="&#xfd;" horiz-adv-x="1001" 
d="M10 1098l189.007 -0.00390625l215 -613l28.5 -84c9.66699 -29.333 18.667 -58.666 27 -87.999s15.5 -57.666 21.5 -84.999s10.333 -52.666 13 -75.999h6c3.33301 16.667 8.66602 39.334 15.999 68.001l24.5 91.5c9 32.333 18.333 64.166 28 95.499l25.5 80l199 611h188
l-434 -1241c-18.667 -54 -38.834 -102.5 -60.501 -145.5s-46.834 -79.5 -75.501 -109.5s-62.334 -53.167 -101.001 -69.5s-84.667 -24.5 -138 -24.5c-34.667 0 -64.667 1.83301 -90 5.5s-47 7.5 -65 11.5v145c14 -3.33301 31.667 -6.16602 53 -8.49902
s43.666 -3.5 66.999 -3.5c32 0 59.667 3.83301 83 11.5s43.666 18.834 60.999 33.501s32.166 32.667 44.499 54s23.5 45.666 33.5 72.999l57 160zM407.007 1268c14.667 19.333 29.833 41.668 45.5 67.001l47 78.5c15.667 27 30.5 54 44.5 81s26.333 51.833 37 74.5h219v-21
c-10.667 -18 -26.5 -40.5 -47.5 -67.5s-44.333 -55.167 -70 -84.5s-52 -57.833 -79 -85.5s-52.167 -50.834 -75.5 -69.501h-121v27z" />
    <glyph glyph-name="thorn" unicode="&#xfe;" horiz-adv-x="1200" 
d="M356 950c15.333 23.333 32.668 45.1699 52.001 65.5029s41.833 38 67.5 53s54.5 27 86.5 36s68 13.5 108 13.5c62.667 0 119.667 -12 171 -36s95.166 -59.833 131.499 -107.5s64.5 -106.834 84.5 -177.501s30 -152.667 30 -246c0 -94 -10 -176.5 -30 -247.5
s-48.167 -130.5 -84.5 -178.5s-80.166 -84.167 -131.499 -108.5s-108.333 -36.5 -171 -36.5c-39.333 0 -75 4.33301 -107 13s-60.833 20.167 -86.5 34.5s-48.334 31.166 -68.001 50.499s-37.167 39.666 -52.5 60.999h-12l6 -65l4 -53.5c1.33301 -18.333 2 -32.833 2 -43.5
v-469h-182v2048h182v-458l-8 -148h8zM635.002 967.004c-50.667 0 -93.502 -7.66992 -128.502 -23.0029s-63.333 -38.666 -85 -69.999s-37.667 -70.333 -48 -117s-16.166 -101.667 -17.499 -165v-41c0 -67.333 4.5 -127.166 13.5 -179.499s24.333 -96.333 46 -132
s50.5 -62.667 86.5 -81s81 -27.5 135 -27.5c90 0 156.167 36.333 198.5 109s63.5 177 63.5 313c0 138.667 -21.167 242.334 -63.5 311.001s-109.166 103 -200.499 103z" />
    <glyph glyph-name="ydieresis" unicode="&#xff;" horiz-adv-x="1001" 
d="M10 1098l189.007 -0.00390625l215 -613l28.5 -84c9.66699 -29.333 18.667 -58.666 27 -87.999s15.5 -57.666 21.5 -84.999s10.333 -52.666 13 -75.999h6c3.33301 16.667 8.66602 39.334 15.999 68.001l24.5 91.5c9 32.333 18.333 64.166 28 95.499l25.5 80l199 611h188
l-434 -1241c-18.667 -54 -38.834 -102.5 -60.501 -145.5s-46.834 -79.5 -75.501 -109.5s-62.334 -53.167 -101.001 -69.5s-84.667 -24.5 -138 -24.5c-34.667 0 -64.667 1.83301 -90 5.5s-47 7.5 -65 11.5v145c14 -3.33301 31.667 -6.16602 53 -8.49902
s43.666 -3.5 66.999 -3.5c32 0 59.667 3.83301 83 11.5s43.666 18.834 60.999 33.501s32.166 32.667 44.499 54s23.5 45.666 33.5 72.999l57 160zM228.007 1395c0 36 9.33301 61.999 28 77.999s41.334 24 68.001 24c26 0 48.667 -8.16699 68 -24.5s29 -42.166 29 -77.499
s-9.66699 -61.333 -29 -78s-42 -25 -68 -25c-26.667 0 -49.334 8.33301 -68.001 25s-28 42.667 -28 78zM603.007 1395c0 36 9.33008 62 27.9971 78s41.334 24 68.001 24c12.667 0 24.834 -2 36.501 -6s21.834 -10.167 30.501 -18.5s15.667 -18.833 21 -31.5s8 -28 8 -46
c0 -35.333 -9.66699 -61.333 -29 -78s-41.666 -25 -66.999 -25c-26.667 0 -49.334 8.33301 -68.001 25s-28 42.667 -28 78z" />
    <glyph glyph-name="Amacron" unicode="&#x100;" horiz-adv-x="1245" 
d="M1055 0l-160 453h-545l-162 -453h-188l537 1468h170l538 -1468h-190zM836 618l-148 424l-14.5 44l-17.5 56l-18 62.5l-17 63.5c-4.66699 -20.667 -10 -42 -16 -64l-18 -63.5c-6 -20.333 -11.833 -39 -17.5 -56l-14.5 -42.5l-145 -424h426zM334 1729h575v-150h-575v150z
" />
    <glyph glyph-name="amacron" unicode="&#x101;" horiz-adv-x="1087" 
d="M793 0l-37.001 152h-8c-22 -30 -44 -55.833 -66 -77.5s-46 -39.5 -72 -53.5s-55 -24.333 -87 -31s-69 -10 -111 -10c-46 0 -88.333 6.5 -127 19.5s-72.167 33 -100.5 60s-50.5 61 -66.5 102s-24 89.5 -24 145.5c0 109.333 38.5 193.333 115.5 252
s194.167 90.667 351.5 96l184 7v69c0 44.667 -4.83301 82 -14.5 112s-23.667 54.167 -42 72.5s-41 31.5 -68 39.5s-57.833 12 -92.5 12c-55.333 0 -106.833 -8 -154.5 -24s-93.5 -35.333 -137.5 -58l-64 137c49.333 26.667 104.333 49.334 165 68.001s124.334 28 191.001 28
c68 0 126.833 -6.83301 176.5 -20.5s90.667 -35.334 123 -65.001s56.5 -67.5 72.5 -113.5s24 -101.667 24 -167v-752h-131zM458.999 127c40.667 0 78.334 6.33301 113.001 19s64.667 31.834 90 57.501s45.166 58 59.499 97s21.5 84.833 21.5 137.5v99l-143 -7
c-60 -2.66699 -110.333 -9.33398 -151 -20.001s-73.167 -25.5 -97.5 -44.5s-41.833 -42 -52.5 -69s-16 -57.5 -16 -91.5c0 -61.333 16.167 -106.333 48.5 -135s74.833 -43 127.5 -43zM256.999 1391h575v-150h-575v150z" />
    <glyph glyph-name="Abreve" unicode="&#x102;" horiz-adv-x="1245" 
d="M1055 0l-160 453h-545l-162 -453h-188l537 1468h170l538 -1468h-190zM836 618l-148 424l-14.5 44l-17.5 56l-18 62.5l-17 63.5c-4.66699 -20.667 -10 -42 -16 -64l-18 -63.5c-6 -20.333 -11.833 -39 -17.5 -56l-14.5 -42.5l-145 -424h426zM924 1856
c-2.66699 -40.667 -11.333 -77.8311 -26 -111.498s-34.834 -62.834 -60.501 -87.501s-56.667 -43.834 -93 -57.501s-78.166 -20.5 -125.499 -20.5c-48.667 0 -91.167 6.5 -127.5 19.5s-66.666 31.667 -90.999 56s-43 53.5 -56 87.5s-20.5 72 -22.5 114h108
c2.66699 -28.667 8.66699 -51.334 18 -68.001s22 -29.167 38 -37.5s35.167 -13.666 57.5 -15.999s48.166 -3.5 77.499 -3.5c24 0 46.833 1.5 68.5 4.5s41 9 58 18s31.167 21.667 42.5 38s18.333 37.833 21 64.5h113z" />
    <glyph glyph-name="abreve" unicode="&#x103;" horiz-adv-x="1087" 
d="M793 0l-37.001 152h-8c-22 -30 -44 -55.833 -66 -77.5s-46 -39.5 -72 -53.5s-55 -24.333 -87 -31s-69 -10 -111 -10c-46 0 -88.333 6.5 -127 19.5s-72.167 33 -100.5 60s-50.5 61 -66.5 102s-24 89.5 -24 145.5c0 109.333 38.5 193.333 115.5 252
s194.167 90.667 351.5 96l184 7v69c0 44.667 -4.83301 82 -14.5 112s-23.667 54.167 -42 72.5s-41 31.5 -68 39.5s-57.833 12 -92.5 12c-55.333 0 -106.833 -8 -154.5 -24s-93.5 -35.333 -137.5 -58l-64 137c49.333 26.667 104.333 49.334 165 68.001s124.334 28 191.001 28
c68 0 126.833 -6.83301 176.5 -20.5s90.667 -35.334 123 -65.001s56.5 -67.5 72.5 -113.5s24 -101.667 24 -167v-752h-131zM458.999 127c40.667 0 78.334 6.33301 113.001 19s64.667 31.834 90 57.501s45.166 58 59.499 97s21.5 84.833 21.5 137.5v99l-143 -7
c-60 -2.66699 -110.333 -9.33398 -151 -20.001s-73.167 -25.5 -97.5 -44.5s-41.833 -42 -52.5 -69s-16 -57.5 -16 -91.5c0 -61.333 16.167 -106.333 48.5 -135s74.833 -43 127.5 -43zM846.999 1518c-2.66699 -40.667 -11.333 -77.8311 -26 -111.498
s-34.834 -62.834 -60.501 -87.501s-56.667 -43.834 -93 -57.501s-78.166 -20.5 -125.499 -20.5c-48.667 0 -91.167 6.5 -127.5 19.5s-66.666 31.667 -90.999 56s-43 53.5 -56 87.5s-20.5 72 -22.5 114h108c2.66699 -28.667 8.66699 -51.334 18 -68.001s22 -29.167 38 -37.5
s35.167 -13.666 57.5 -15.999s48.166 -3.5 77.499 -3.5c24 0 46.833 1.5 68.5 4.5s41 9 58 18s31.167 21.667 42.5 38s18.333 37.833 21 64.5h113z" />
    <glyph glyph-name="Aogonek" unicode="&#x104;" horiz-adv-x="1245" 
d="M1055 0l-160 453h-545l-162 -453h-188l537 1468h170l538 -1468h-190zM836 618l-148 424l-14.5 44l-17.5 56l-18 62.5l-17 63.5c-4.66699 -20.667 -10 -42 -16 -64l-18 -63.5c-6 -20.333 -11.833 -39 -17.5 -56l-14.5 -42.5l-145 -424h426zM1046 -238
c0 -30 8.66406 -52.167 25.9971 -66.5s37.333 -21.5 60 -21.5c16.667 0 32.5 0.833008 47.5 2.5s27.167 3.83398 36.5 6.50098v-113c-17.333 -5.33301 -36.666 -9.33301 -57.999 -12s-41.666 -4 -60.999 -4c-66.667 0 -116.667 17.333 -150 52s-50 82 -50 142
c0 28 5 54.5 15 79.5s22.833 48.167 38.5 69.5s32.834 40.666 51.501 57.999s36.667 32.333 54 45h129c-92.667 -88.667 -139 -168 -139 -238z" />
    <glyph glyph-name="aogonek" unicode="&#x105;" horiz-adv-x="1087" 
d="M793 0l-37.001 152h-8c-22 -30 -44 -55.833 -66 -77.5s-46 -39.5 -72 -53.5s-55 -24.333 -87 -31s-69 -10 -111 -10c-46 0 -88.333 6.5 -127 19.5s-72.167 33 -100.5 60s-50.5 61 -66.5 102s-24 89.5 -24 145.5c0 109.333 38.5 193.333 115.5 252
s194.167 90.667 351.5 96l184 7v69c0 44.667 -4.83301 82 -14.5 112s-23.667 54.167 -42 72.5s-41 31.5 -68 39.5s-57.833 12 -92.5 12c-55.333 0 -106.833 -8 -154.5 -24s-93.5 -35.333 -137.5 -58l-64 137c49.333 26.667 104.333 49.334 165 68.001s124.334 28 191.001 28
c68 0 126.833 -6.83301 176.5 -20.5s90.667 -35.334 123 -65.001s56.5 -67.5 72.5 -113.5s24 -101.667 24 -167v-752h-131zM458.999 127c40.667 0 78.334 6.33301 113.001 19s64.667 31.834 90 57.501s45.166 58 59.499 97s21.5 84.833 21.5 137.5v99l-143 -7
c-60 -2.66699 -110.333 -9.33398 -151 -20.001s-73.167 -25.5 -97.5 -44.5s-41.833 -42 -52.5 -69s-16 -57.5 -16 -91.5c0 -61.333 16.167 -106.333 48.5 -135s74.833 -43 127.5 -43zM781.999 -238c0 -30 8.66406 -52.167 25.9971 -66.5s37.333 -21.5 60 -21.5
c16.667 0 32.5 0.833008 47.5 2.5s27.167 3.83398 36.5 6.50098v-113c-17.333 -5.33301 -36.666 -9.33301 -57.999 -12s-41.666 -4 -60.999 -4c-66.667 0 -116.667 17.333 -150 52s-50 82 -50 142c0 28 5 54.5 15 79.5s22.833 48.167 38.5 69.5s32.834 40.666 51.501 57.999
s36.667 32.333 54 45h129c-92.667 -88.667 -139 -168 -139 -238z" />
    <glyph glyph-name="Cacute" unicode="&#x106;" horiz-adv-x="1235" 
d="M793 1319c-71.333 0 -136.002 -13.498 -194.002 -40.498s-107.5 -65.833 -148.5 -116.5s-72.667 -112.334 -95 -185.001s-33.5 -154.667 -33.5 -246c0 -94 9.83301 -177.5 29.5 -250.5s49.167 -134.5 88.5 -184.5s88.333 -88 147 -114s127.334 -39 206.001 -39
c59.333 0 115.666 5.83301 168.999 17.5s106 25.167 158 40.5v-162c-26 -10 -52 -18.833 -78 -26.5s-53.167 -13.834 -81.5 -18.501s-58.666 -8.16699 -90.999 -10.5s-68.166 -3.5 -107.499 -3.5c-109.333 0 -204 18 -284 54s-146.167 87 -198.5 153
s-91.166 145.333 -116.499 238s-38 195.334 -38 308.001c0 110.667 14.5 212 43.5 304s71.667 171 128 237s126.166 117.333 209.499 154s179 55 287 55c72 0 140.667 -7.33301 206 -22s124.333 -36 177 -64l-78 -156c-42 21.333 -87.667 39.666 -137 54.999
s-105.333 23 -168 23zM658.998 1606c14.667 19.333 29.833 41.668 45.5 67.001l47 78.5c15.667 27 30.5 54 44.5 81s26.333 51.833 37 74.5h219v-21c-10.667 -18 -26.5 -40.5 -47.5 -67.5s-44.333 -55.167 -70 -84.5s-52 -57.833 -79 -85.5s-52.167 -50.834 -75.5 -69.501
h-121v27z" />
    <glyph glyph-name="cacute" unicode="&#x107;" horiz-adv-x="948" 
d="M594 -20c-67.333 0 -130.332 10.499 -188.999 31.499s-109.667 54.333 -153 100s-77.333 104 -102 175s-37 156.5 -37 256.5c0 104.667 12.667 193.5 38 266.5s60.166 132.333 104.499 178s96.166 78.834 155.499 99.501s123 31 191 31c52 0 102.833 -5.66699 152.5 -17
s91.167 -25.333 124.5 -42l-54 -154c-15.333 6.66699 -32.333 13.167 -51 19.5s-38 12 -58 17s-39.667 9 -59 12s-37.666 4.5 -54.999 4.5c-104.667 0 -181 -33.5 -229 -100.5s-72 -171.167 -72 -312.5c0 -140.667 24.167 -243.5 72.5 -308.5s121.833 -97.5 220.5 -97.5
c54 0 102.833 6.16699 146.5 18.5s83.5 26.833 119.5 43.5v-162c-36 -19.333 -74.5 -34 -115.5 -44s-91.167 -15 -150.5 -15zM467.001 1268c14.667 19.333 29.833 41.668 45.5 67.001l47 78.5c15.667 27 30.5 54 44.5 81s26.333 51.833 37 74.5h219v-21
c-10.667 -18 -26.5 -40.5 -47.5 -67.5s-44.333 -55.167 -70 -84.5s-52 -57.833 -79 -85.5s-52.167 -50.834 -75.5 -69.501h-121v27z" />
    <glyph glyph-name="Ccircumflex" unicode="&#x108;" horiz-adv-x="1235" 
d="M793 1319c-71.333 0 -136.002 -13.498 -194.002 -40.498s-107.5 -65.833 -148.5 -116.5s-72.667 -112.334 -95 -185.001s-33.5 -154.667 -33.5 -246c0 -94 9.83301 -177.5 29.5 -250.5s49.167 -134.5 88.5 -184.5s88.333 -88 147 -114s127.334 -39 206.001 -39
c59.333 0 115.666 5.83301 168.999 17.5s106 25.167 158 40.5v-162c-26 -10 -52 -18.833 -78 -26.5s-53.167 -13.834 -81.5 -18.501s-58.666 -8.16699 -90.999 -10.5s-68.166 -3.5 -107.499 -3.5c-109.333 0 -204 18 -284 54s-146.167 87 -198.5 153
s-91.166 145.333 -116.499 238s-38 195.334 -38 308.001c0 110.667 14.5 212 43.5 304s71.667 171 128 237s126.166 117.333 209.499 154s179 55 287 55c72 0 140.667 -7.33301 206 -22s124.333 -36 177 -64l-78 -156c-42 21.333 -87.667 39.666 -137 54.999
s-105.333 23 -168 23zM1102 1579h-121.002c-34 22.667 -69 50.167 -105 82.5s-71.333 66.833 -106 103.5c-36 -36.667 -71.667 -71.167 -107 -103.5s-70 -59.833 -104 -82.5h-121v27l60 67l67.5 78.5c22.333 27 43.333 54 63 81s34.834 51.833 45.501 74.5h192
c10.667 -22.667 25.834 -47.5 45.501 -74.5s40.667 -54 63 -81l68 -78.5l59.5 -67v-27z" />
    <glyph glyph-name="ccircumflex" unicode="&#x109;" horiz-adv-x="948" 
d="M594 -20c-67.333 0 -130.332 10.499 -188.999 31.499s-109.667 54.333 -153 100s-77.333 104 -102 175s-37 156.5 -37 256.5c0 104.667 12.667 193.5 38 266.5s60.166 132.333 104.499 178s96.166 78.834 155.499 99.501s123 31 191 31c52 0 102.833 -5.66699 152.5 -17
s91.167 -25.333 124.5 -42l-54 -154c-15.333 6.66699 -32.333 13.167 -51 19.5s-38 12 -58 17s-39.667 9 -59 12s-37.666 4.5 -54.999 4.5c-104.667 0 -181 -33.5 -229 -100.5s-72 -171.167 -72 -312.5c0 -140.667 24.167 -243.5 72.5 -308.5s121.833 -97.5 220.5 -97.5
c54 0 102.833 6.16699 146.5 18.5s83.5 26.833 119.5 43.5v-162c-36 -19.333 -74.5 -34 -115.5 -44s-91.167 -15 -150.5 -15zM911.001 1241h-121.002c-34 22.667 -69 50.167 -105 82.5s-71.333 66.833 -106 103.5c-36 -36.667 -71.667 -71.167 -107 -103.5
s-70 -59.833 -104 -82.5h-121v27l60 67l67.5 78.5c22.333 27 43.333 54 63 81s34.834 51.833 45.501 74.5h192c10.667 -22.667 25.834 -47.5 45.501 -74.5s40.667 -54 63 -81l68 -78.5l59.5 -67v-27z" />
    <glyph glyph-name="Cdot" unicode="&#x10a;" horiz-adv-x="1235" 
d="M793 1319c-71.333 0 -136.002 -13.498 -194.002 -40.498s-107.5 -65.833 -148.5 -116.5s-72.667 -112.334 -95 -185.001s-33.5 -154.667 -33.5 -246c0 -94 9.83301 -177.5 29.5 -250.5s49.167 -134.5 88.5 -184.5s88.333 -88 147 -114s127.334 -39 206.001 -39
c59.333 0 115.666 5.83301 168.999 17.5s106 25.167 158 40.5v-162c-26 -10 -52 -18.833 -78 -26.5s-53.167 -13.834 -81.5 -18.501s-58.666 -8.16699 -90.999 -10.5s-68.166 -3.5 -107.499 -3.5c-109.333 0 -204 18 -284 54s-146.167 87 -198.5 153
s-91.166 145.333 -116.499 238s-38 195.334 -38 308.001c0 110.667 14.5 212 43.5 304s71.667 171 128 237s126.166 117.333 209.499 154s179 55 287 55c72 0 140.667 -7.33301 206 -22s124.333 -36 177 -64l-78 -156c-42 21.333 -87.667 39.666 -137 54.999
s-105.333 23 -168 23zM671.998 1733c0 40 10.166 68.998 30.499 86.998s45.5 27 75.5 27c14.667 0 28.5 -2.16699 41.5 -6.5s24.333 -11.166 34 -20.499s17.334 -21.166 23.001 -35.499s8.5 -31.5 8.5 -51.5c0 -38.667 -10.5 -67.5 -31.5 -86.5s-46.167 -28.5 -75.5 -28.5
c-30 0 -55.167 9.33301 -75.5 28s-30.5 47.667 -30.5 87z" />
    <glyph glyph-name="cdot" unicode="&#x10b;" horiz-adv-x="948" 
d="M594 -20c-67.333 0 -130.332 10.499 -188.999 31.499s-109.667 54.333 -153 100s-77.333 104 -102 175s-37 156.5 -37 256.5c0 104.667 12.667 193.5 38 266.5s60.166 132.333 104.499 178s96.166 78.834 155.499 99.501s123 31 191 31c52 0 102.833 -5.66699 152.5 -17
s91.167 -25.333 124.5 -42l-54 -154c-15.333 6.66699 -32.333 13.167 -51 19.5s-38 12 -58 17s-39.667 9 -59 12s-37.666 4.5 -54.999 4.5c-104.667 0 -181 -33.5 -229 -100.5s-72 -171.167 -72 -312.5c0 -140.667 24.167 -243.5 72.5 -308.5s121.833 -97.5 220.5 -97.5
c54 0 102.833 6.16699 146.5 18.5s83.5 26.833 119.5 43.5v-162c-36 -19.333 -74.5 -34 -115.5 -44s-91.167 -15 -150.5 -15zM467.001 1395c0 40 10.166 68.998 30.499 86.998s45.5 27 75.5 27c14.667 0 28.5 -2.16699 41.5 -6.5s24.333 -11.166 34 -20.499
s17.334 -21.166 23.001 -35.499s8.5 -31.5 8.5 -51.5c0 -38.667 -10.5 -67.5 -31.5 -86.5s-46.167 -28.5 -75.5 -28.5c-30 0 -55.167 9.33301 -75.5 28s-30.5 47.667 -30.5 87z" />
    <glyph glyph-name="Ccaron" unicode="&#x10c;" horiz-adv-x="1235" 
d="M793 1319c-71.333 0 -136.002 -13.498 -194.002 -40.498s-107.5 -65.833 -148.5 -116.5s-72.667 -112.334 -95 -185.001s-33.5 -154.667 -33.5 -246c0 -94 9.83301 -177.5 29.5 -250.5s49.167 -134.5 88.5 -184.5s88.333 -88 147 -114s127.334 -39 206.001 -39
c59.333 0 115.666 5.83301 168.999 17.5s106 25.167 158 40.5v-162c-26 -10 -52 -18.833 -78 -26.5s-53.167 -13.834 -81.5 -18.501s-58.666 -8.16699 -90.999 -10.5s-68.166 -3.5 -107.499 -3.5c-109.333 0 -204 18 -284 54s-146.167 87 -198.5 153
s-91.166 145.333 -116.499 238s-38 195.334 -38 308.001c0 110.667 14.5 212 43.5 304s71.667 171 128 237s126.166 117.333 209.499 154s179 55 287 55c72 0 140.667 -7.33301 206 -22s124.333 -36 177 -64l-78 -156c-42 21.333 -87.667 39.666 -137 54.999
s-105.333 23 -168 23zM1090 1880l-59.498 -67l-68 -78.5c-22.333 -27 -43.333 -53.833 -63 -80.5s-34.834 -51.667 -45.501 -75h-192c-10.667 23.333 -25.834 48.333 -45.501 75s-40.667 53.5 -63 80.5l-67.5 78.5l-60 67v27h121c34 -22.667 68.667 -50.167 104 -82.5
s71 -67.166 107 -104.499c34.667 37.333 70 72.166 106 104.499s71 59.833 105 82.5h121v-27z" />
    <glyph glyph-name="ccaron" unicode="&#x10d;" horiz-adv-x="948" 
d="M594 -20c-67.333 0 -130.332 10.499 -188.999 31.499s-109.667 54.333 -153 100s-77.333 104 -102 175s-37 156.5 -37 256.5c0 104.667 12.667 193.5 38 266.5s60.166 132.333 104.499 178s96.166 78.834 155.499 99.501s123 31 191 31c52 0 102.833 -5.66699 152.5 -17
s91.167 -25.333 124.5 -42l-54 -154c-15.333 6.66699 -32.333 13.167 -51 19.5s-38 12 -58 17s-39.667 9 -59 12s-37.666 4.5 -54.999 4.5c-104.667 0 -181 -33.5 -229 -100.5s-72 -171.167 -72 -312.5c0 -140.667 24.167 -243.5 72.5 -308.5s121.833 -97.5 220.5 -97.5
c54 0 102.833 6.16699 146.5 18.5s83.5 26.833 119.5 43.5v-162c-36 -19.333 -74.5 -34 -115.5 -44s-91.167 -15 -150.5 -15zM928.001 1542l-59.498 -67l-68 -78.5c-22.333 -27 -43.333 -53.833 -63 -80.5s-34.834 -51.667 -45.501 -75h-192
c-10.667 23.333 -25.834 48.333 -45.501 75s-40.667 53.5 -63 80.5l-67.5 78.5l-60 67v27h121c34 -22.667 68.667 -50.167 104 -82.5s71 -67.166 107 -104.499c34.667 37.333 70 72.166 106 104.499s71 59.833 105 82.5h121v-27z" />
    <glyph glyph-name="Dcaron" unicode="&#x10e;" horiz-adv-x="1401" 
d="M1276 745c0 -123.333 -16 -231.503 -48 -324.503s-78.333 -170.667 -139 -233s-135.167 -109.166 -223.5 -140.499s-188.5 -47 -300.5 -47h-366v1462h407c102 0 194.333 -15.333 277 -46s153 -76.167 211 -136.5s102.833 -135.166 134.5 -224.499
s47.5 -192.666 47.5 -309.999zM1079 738.997c0 97.333 -11 181.501 -33 252.501s-54 129.5 -96 175.5s-93.667 80.167 -155 102.5s-131 33.5 -209 33.5h-201v-1143h162c176 0 308.667 48.667 398 146s134 241.666 134 432.999zM996 1880l-59.498 -67l-68 -78.5
c-22.333 -27 -43.333 -53.833 -63 -80.5s-34.834 -51.667 -45.501 -75h-192c-10.667 23.333 -25.834 48.333 -45.501 75s-40.667 53.5 -63 80.5l-67.5 78.5l-60 67v27h121c34 -22.667 68.667 -50.167 104 -82.5s71 -67.166 107 -104.499
c34.667 37.333 70 72.166 106 104.499s71 59.833 105 82.5h121v-27z" />
    <glyph glyph-name="dcaron" unicode="&#x10f;" horiz-adv-x="1200" 
d="M852 147l-7.99805 -0.00195312c-14.667 -22.667 -31.834 -44.167 -51.501 -64.5s-42.334 -38.166 -68.001 -53.499s-54.5 -27.333 -86.5 -36s-68 -13 -108 -13c-62 0 -118.667 12 -170 36s-95.333 59.833 -132 107.5s-65 106.834 -85 177.501s-30 152.667 -30 246
c0 94 10 176.5 30 247.5s48.333 130.5 85 178.5s80.667 84.167 132 108.5s108 36.5 170 36.5c39.333 0 75 -4.33301 107 -13s60.833 -20.334 86.5 -35.001s48.5 -31.667 68.5 -51s37.333 -39.666 52 -60.999h12l-6 65l-4 53.5c-1.33301 18.333 -2 32.833 -2 43.5v436h182
v-1556h-147zM565.002 130.998c50.667 0 93.502 7.66797 128.502 23.001s63.333 38.666 85 69.999s37.667 70.5 48 117.5s16.166 101.833 17.499 164.5v41c0 67.333 -4.5 127.166 -13.5 179.499s-24.333 96.333 -46 132s-50.5 62.667 -86.5 81s-81 27.5 -135 27.5
c-90 0 -156.167 -36.333 -198.5 -109s-63.5 -177 -63.5 -313c0 -139.333 21.167 -243.166 63.5 -311.499s109.166 -102.5 200.499 -102.5zM1120 1255c6 20 11.998 42.834 17.998 68.501s11.833 52 17.5 79s10.834 53.833 15.501 80.5s8.33398 51 11.001 73h180v-20
c-4 -16.667 -11.167 -38 -21.5 -64s-22.333 -53.333 -36 -82s-28.167 -57.334 -43.5 -86.001s-30.333 -53.667 -45 -75h-96v26z" />
    <glyph glyph-name="Dcroat" unicode="&#x110;" horiz-adv-x="1401" 
d="M47 805l152 -0.00292969v657h407c102 0 194.333 -15.333 277 -46s153 -76.167 211 -136.5s102.833 -135.166 134.5 -224.499s47.5 -192.666 47.5 -309.999c0 -123.333 -16 -231.5 -48 -324.5s-78.333 -170.667 -139 -233s-135.167 -109.166 -223.5 -140.499
s-188.5 -47 -300.5 -47h-366v643h-152v162zM1079 738.997c0 97.333 -11 181.501 -33 252.501s-54 129.5 -96 175.5s-93.667 80.167 -155 102.5s-131 33.5 -209 33.5h-201v-498h336v-162h-336v-483h162c176 0 308.667 48.667 398 146s134 241.666 134 432.999z" />
    <glyph glyph-name="dcroat" unicode="&#x111;" horiz-adv-x="1200" 
d="M852 147l-7.99805 -0.00195312c-14.667 -22.667 -31.834 -44.167 -51.501 -64.5s-42.334 -38.166 -68.001 -53.499s-54.5 -27.333 -86.5 -36s-68 -13 -108 -13c-62 0 -118.667 11.667 -170 35s-95.333 58 -132 104s-65 103 -85 171s-30 146.667 -30 236
c0 90 10 169.333 30 238s48.333 126.167 85 172.5s80.667 81.333 132 105s108 35.5 170 35.5c39.333 0 75 -4.16699 107 -12.5s60.833 -19.833 86.5 -34.5s48.5 -31.667 68.5 -51s37.333 -39.666 52 -60.999h12l-6 64l-4 53.5c-1.33301 18.333 -2 32.833 -2 43.5v158h-379
v137h379v182h182v-182h156v-137h-156v-1237h-147zM565.002 130.998c50.667 0 93.502 7.33105 128.502 21.998s63.333 36.834 85 66.501s37.667 66.667 48 111s16.166 96.5 17.499 156.5v39c0 64.667 -4.5 121.834 -13.5 171.501s-24.333 91.5 -46 125.5
s-50.5 59.667 -86.5 77s-81 26 -135 26c-90 0 -156.167 -34.5 -198.5 -103.5s-63.5 -168.5 -63.5 -298.5c0 -132 21.167 -230.5 63.5 -295.5s109.166 -97.5 200.499 -97.5z" />
    <glyph glyph-name="Emacron" unicode="&#x112;" horiz-adv-x="1081" 
d="M958 0h-759v1462h759v-164h-573v-452h535v-162h-535v-520h573v-164zM293 1729h575v-150h-575v150z" />
    <glyph glyph-name="emacron" unicode="&#x113;" horiz-adv-x="1096" 
d="M608 -20c-73.333 0 -140.333 12.334 -201 37.001s-112.834 60.667 -156.501 108s-77.5 106 -101.5 176s-36 150 -36 240c0 90.667 11 171.667 33 243s53 131.833 93 181.5s87.833 87.5 143.5 113.5s117.167 39 184.5 39c66 0 125.333 -11.833 178 -35.5
s97.334 -57 134.001 -100s64.834 -94.667 84.501 -155s29.5 -127.166 29.5 -200.499v-113h-692c3.33301 -128.667 30.5 -223.334 81.5 -284.001s126.833 -91 227.5 -91c34 0 65.5 1.66699 94.5 5s57 8.16602 84 14.499s53.167 14.333 78.5 24s51 20.5 77 32.5v-162
c-26.667 -12.667 -52.834 -23.667 -78.501 -33s-52 -17 -79 -23s-55 -10.333 -84 -13s-60.5 -4 -94.5 -4zM563 967.001c-76 0 -136.169 -26.002 -180.502 -78.002s-70.166 -127.667 -77.499 -227h492c0 45.333 -4.5 86.833 -13.5 124.5s-23 69.834 -42 96.501
s-43.167 47.334 -72.5 62.001s-64.666 22 -105.999 22zM282.998 1391h575v-150h-575v150z" />
    <glyph glyph-name="Ebreve" unicode="&#x114;" horiz-adv-x="1081" 
d="M958 0h-759v1462h759v-164h-573v-452h535v-162h-535v-520h573v-164zM886 1856c-2.66699 -40.667 -11.333 -77.8311 -26 -111.498s-34.834 -62.834 -60.501 -87.501s-56.667 -43.834 -93 -57.501s-78.166 -20.5 -125.499 -20.5c-48.667 0 -91.167 6.5 -127.5 19.5
s-66.666 31.667 -90.999 56s-43 53.5 -56 87.5s-20.5 72 -22.5 114h108c2.66699 -28.667 8.66699 -51.334 18 -68.001s22 -29.167 38 -37.5s35.167 -13.666 57.5 -15.999s48.166 -3.5 77.499 -3.5c24 0 46.833 1.5 68.5 4.5s41 9 58 18s31.167 21.667 42.5 38
s18.333 37.833 21 64.5h113z" />
    <glyph glyph-name="ebreve" unicode="&#x115;" horiz-adv-x="1096" 
d="M608 -20c-73.333 0 -140.333 12.334 -201 37.001s-112.834 60.667 -156.501 108s-77.5 106 -101.5 176s-36 150 -36 240c0 90.667 11 171.667 33 243s53 131.833 93 181.5s87.833 87.5 143.5 113.5s117.167 39 184.5 39c66 0 125.333 -11.833 178 -35.5
s97.334 -57 134.001 -100s64.834 -94.667 84.501 -155s29.5 -127.166 29.5 -200.499v-113h-692c3.33301 -128.667 30.5 -223.334 81.5 -284.001s126.833 -91 227.5 -91c34 0 65.5 1.66699 94.5 5s57 8.16602 84 14.499s53.167 14.333 78.5 24s51 20.5 77 32.5v-162
c-26.667 -12.667 -52.834 -23.667 -78.501 -33s-52 -17 -79 -23s-55 -10.333 -84 -13s-60.5 -4 -94.5 -4zM563 967.001c-76 0 -136.169 -26.002 -180.502 -78.002s-70.166 -127.667 -77.499 -227h492c0 45.333 -4.5 86.833 -13.5 124.5s-23 69.834 -42 96.501
s-43.167 47.334 -72.5 62.001s-64.666 22 -105.999 22zM868.998 1518c-2.66699 -40.667 -11.333 -77.8311 -26 -111.498s-34.834 -62.834 -60.501 -87.501s-56.667 -43.834 -93 -57.501s-78.166 -20.5 -125.499 -20.5c-48.667 0 -91.167 6.5 -127.5 19.5
s-66.666 31.667 -90.999 56s-43 53.5 -56 87.5s-20.5 72 -22.5 114h108c2.66699 -28.667 8.66699 -51.334 18 -68.001s22 -29.167 38 -37.5s35.167 -13.666 57.5 -15.999s48.166 -3.5 77.499 -3.5c24 0 46.833 1.5 68.5 4.5s41 9 58 18s31.167 21.667 42.5 38
s18.333 37.833 21 64.5h113z" />
    <glyph glyph-name="Edotaccent" unicode="&#x116;" horiz-adv-x="1081" 
d="M958 0h-759v1462h759v-164h-573v-452h535v-162h-535v-520h573v-164zM479 1704c0 40 10.166 68.998 30.499 86.998s45.5 27 75.5 27c14.667 0 28.5 -2.16699 41.5 -6.5s24.333 -11.166 34 -20.499s17.334 -21.166 23.001 -35.499s8.5 -31.5 8.5 -51.5
c0 -38.667 -10.5 -67.5 -31.5 -86.5s-46.167 -28.5 -75.5 -28.5c-30 0 -55.167 9.33301 -75.5 28s-30.5 47.667 -30.5 87z" />
    <glyph glyph-name="edotaccent" unicode="&#x117;" horiz-adv-x="1096" 
d="M608 -20c-73.333 0 -140.333 12.334 -201 37.001s-112.834 60.667 -156.501 108s-77.5 106 -101.5 176s-36 150 -36 240c0 90.667 11 171.667 33 243s53 131.833 93 181.5s87.833 87.5 143.5 113.5s117.167 39 184.5 39c66 0 125.333 -11.833 178 -35.5
s97.334 -57 134.001 -100s64.834 -94.667 84.501 -155s29.5 -127.166 29.5 -200.499v-113h-692c3.33301 -128.667 30.5 -223.334 81.5 -284.001s126.833 -91 227.5 -91c34 0 65.5 1.66699 94.5 5s57 8.16602 84 14.499s53.167 14.333 78.5 24s51 20.5 77 32.5v-162
c-26.667 -12.667 -52.834 -23.667 -78.501 -33s-52 -17 -79 -23s-55 -10.333 -84 -13s-60.5 -4 -94.5 -4zM563 967.001c-76 0 -136.169 -26.002 -180.502 -78.002s-70.166 -127.667 -77.499 -227h492c0 45.333 -4.5 86.833 -13.5 124.5s-23 69.834 -42 96.501
s-43.167 47.334 -72.5 62.001s-64.666 22 -105.999 22zM458.998 1395c0 40 10.166 68.998 30.499 86.998s45.5 27 75.5 27c14.667 0 28.5 -2.16699 41.5 -6.5s24.333 -11.166 34 -20.499s17.334 -21.166 23.001 -35.499s8.5 -31.5 8.5 -51.5
c0 -38.667 -10.5 -67.5 -31.5 -86.5s-46.167 -28.5 -75.5 -28.5c-30 0 -55.167 9.33301 -75.5 28s-30.5 47.667 -30.5 87z" />
    <glyph glyph-name="Eogonek" unicode="&#x118;" horiz-adv-x="1081" 
d="M958 0h-759v1462h759v-164h-573v-452h535v-162h-535v-520h573v-164zM725 -238c0 -30 8.66406 -52.167 25.9971 -66.5s37.333 -21.5 60 -21.5c16.667 0 32.5 0.833008 47.5 2.5s27.167 3.83398 36.5 6.50098v-113c-17.333 -5.33301 -36.666 -9.33301 -57.999 -12
s-41.666 -4 -60.999 -4c-66.667 0 -116.667 17.333 -150 52s-50 82 -50 142c0 28 5 54.5 15 79.5s22.833 48.167 38.5 69.5s32.834 40.666 51.501 57.999s36.667 32.333 54 45h129c-92.667 -88.667 -139 -168 -139 -238z" />
    <glyph glyph-name="eogonek" unicode="&#x119;" horiz-adv-x="1096" 
d="M608 -20c-73.333 0 -140.333 12.334 -201 37.001s-112.834 60.667 -156.501 108s-77.5 106 -101.5 176s-36 150 -36 240c0 90.667 11 171.667 33 243s53 131.833 93 181.5s87.833 87.5 143.5 113.5s117.167 39 184.5 39c66 0 125.333 -11.833 178 -35.5
s97.334 -57 134.001 -100s64.834 -94.667 84.501 -155s29.5 -127.166 29.5 -200.499v-113h-692c3.33301 -128.667 30.5 -223.334 81.5 -284.001s126.833 -91 227.5 -91c34 0 65.5 1.66699 94.5 5s57 8.16602 84 14.499s53.167 14.333 78.5 24s51 20.5 77 32.5v-162
c-26.667 -12.667 -52.834 -23.667 -78.501 -33s-52 -17 -79 -23s-55 -10.333 -84 -13s-60.5 -4 -94.5 -4zM563 967.001c-76 0 -136.169 -26.002 -180.502 -78.002s-70.166 -127.667 -77.499 -227h492c0 45.333 -4.5 86.833 -13.5 124.5s-23 69.834 -42 96.501
s-43.167 47.334 -72.5 62.001s-64.666 22 -105.999 22zM750.998 -207.001c0 -30 8.66406 -52.167 25.9971 -66.5s37.333 -21.5 60 -21.5c16.667 0 32.5 0.833008 47.5 2.5s27.167 3.83398 36.5 6.50098v-113c-17.333 -5.33301 -36.666 -9.33301 -57.999 -12
s-41.666 -4 -60.999 -4c-66.667 0 -116.667 17.333 -150 52s-50 82 -50 142c0 28 5 54.5 15 79.5s22.833 48.167 38.5 69.5s32.834 40.666 51.501 57.999s36.667 32.333 54 45h129c-92.667 -88.667 -139 -168 -139 -238z" />
    <glyph glyph-name="Ecaron" unicode="&#x11a;" horiz-adv-x="1081" 
d="M958 0h-759v1462h759v-164h-573v-452h535v-162h-535v-520h573v-164zM915 1880l-59.498 -67l-68 -78.5c-22.333 -27 -43.333 -53.833 -63 -80.5s-34.834 -51.667 -45.501 -75h-192c-10.667 23.333 -25.834 48.333 -45.501 75s-40.667 53.5 -63 80.5l-67.5 78.5l-60 67v27
h121c34 -22.667 68.667 -50.167 104 -82.5s71 -67.166 107 -104.499c34.667 37.333 70 72.166 106 104.499s71 59.833 105 82.5h121v-27z" />
    <glyph glyph-name="ecaron" unicode="&#x11b;" horiz-adv-x="1096" 
d="M608 -20c-73.333 0 -140.333 12.334 -201 37.001s-112.834 60.667 -156.501 108s-77.5 106 -101.5 176s-36 150 -36 240c0 90.667 11 171.667 33 243s53 131.833 93 181.5s87.833 87.5 143.5 113.5s117.167 39 184.5 39c66 0 125.333 -11.833 178 -35.5
s97.334 -57 134.001 -100s64.834 -94.667 84.501 -155s29.5 -127.166 29.5 -200.499v-113h-692c3.33301 -128.667 30.5 -223.334 81.5 -284.001s126.833 -91 227.5 -91c34 0 65.5 1.66699 94.5 5s57 8.16602 84 14.499s53.167 14.333 78.5 24s51 20.5 77 32.5v-162
c-26.667 -12.667 -52.834 -23.667 -78.501 -33s-52 -17 -79 -23s-55 -10.333 -84 -13s-60.5 -4 -94.5 -4zM563 967.001c-76 0 -136.169 -26.002 -180.502 -78.002s-70.166 -127.667 -77.499 -227h492c0 45.333 -4.5 86.833 -13.5 124.5s-23 69.834 -42 96.501
s-43.167 47.334 -72.5 62.001s-64.666 22 -105.999 22zM893.998 1542l-59.498 -67l-68 -78.5c-22.333 -27 -43.333 -53.833 -63 -80.5s-34.834 -51.667 -45.501 -75h-192c-10.667 23.333 -25.834 48.333 -45.501 75s-40.667 53.5 -63 80.5l-67.5 78.5l-60 67v27h121
c34 -22.667 68.667 -50.167 104 -82.5s71 -67.166 107 -104.499c34.667 37.333 70 72.166 106 104.499s71 59.833 105 82.5h121v-27z" />
    <glyph glyph-name="Gcircumflex" unicode="&#x11c;" horiz-adv-x="1413" 
d="M782 772l484 -0.00488281v-717c-36.667 -12 -73.667 -22.667 -111 -32s-75.666 -17.166 -114.999 -23.499s-80.666 -11.166 -123.999 -14.499s-90 -5 -140 -5c-104.667 0 -197.334 17.5 -278.001 52.5s-148.667 85 -204 150s-97.333 144 -126 237s-43 197.5 -43 313.5
c0 114.667 15.833 218.334 47.5 311.001s77.834 171.5 138.501 236.5s135.5 115 224.5 150s190.5 52.5 304.5 52.5c74 0 145 -7.33301 213 -22s131.333 -36 190 -64l-72 -162c-24 11.333 -49.833 22 -77.5 32s-56.167 18.833 -85.5 26.5s-59.5 13.834 -90.5 18.501
s-61.833 7 -92.5 7c-81.333 0 -153.333 -13.5 -216 -40.5s-115.167 -65.833 -157.5 -116.5s-74.5 -112.334 -96.5 -185.001s-33 -154.667 -33 -246c0 -86.667 9.16699 -166 27.5 -238s47.5 -134 87.5 -186s91.667 -92.333 155 -121s139.666 -43 228.999 -43
c29.333 0 56.166 0.833008 80.499 2.5s46.833 3.83398 67.5 6.50098s40.167 5.83398 58.5 9.50098l53.5 10.5v436h-299v164zM1137 1579h-121.002c-34 22.667 -69 50.167 -105 82.5s-71.333 66.833 -106 103.5c-36 -36.667 -71.667 -71.167 -107 -103.5
s-70 -59.833 -104 -82.5h-121v27l60 67l67.5 78.5c22.333 27 43.333 54 63 81s34.834 51.833 45.501 74.5h192c10.667 -22.667 25.834 -47.5 45.501 -74.5s40.667 -54 63 -81l68 -78.5l59.5 -67v-27z" />
    <glyph glyph-name="gcircumflex" unicode="&#x11d;" horiz-adv-x="1061" 
d="M1020 1098l-0.00292969 -113.002l-197 -27c18.667 -23.333 34.334 -53.166 47.001 -89.499s19 -77.5 19 -123.5c0 -50.667 -7.83301 -97.5 -23.5 -140.5s-39.334 -80.167 -71.001 -111.5s-70.834 -55.833 -117.501 -73.5s-101 -26.5 -163 -26.5
c-14.667 0 -29.334 0.166992 -44.001 0.5s-26.667 1.5 -36 3.5c-11.333 -6.66699 -22.5 -14.167 -33.5 -22.5s-21 -17.833 -30 -28.5s-16.333 -22.667 -22 -36s-8.5 -28 -8.5 -44c0 -18 4 -32.5 12 -43.5s18.833 -19.5 32.5 -25.5s29.834 -10 48.501 -12
s38.334 -3 59.001 -3h176c62 0 114.333 -7.83301 157 -23.5s77.5 -36.834 104.5 -63.501s46.5 -58.167 58.5 -94.5s18 -74.833 18 -115.5c0 -58.667 -10.833 -111.334 -32.5 -158.001s-54.834 -86.167 -99.501 -118.5s-101.167 -57.166 -169.5 -74.499
s-148.833 -26 -241.5 -26c-71.333 0 -133.666 7 -186.999 21s-97.666 34.333 -132.999 61s-61.833 58.834 -79.5 96.501s-26.5 80.167 -26.5 127.5c0 40 6.5 75.167 19.5 105.5s30.5 56.5 52.5 78.5s47.5 40 76.5 54s59.167 24.667 90.5 32c-28 12.667 -51 32.667 -69 60
s-27 58.666 -27 93.999c0 40.667 10.667 75.834 32 105.501s55 58.5 101 86.5c-28.667 12 -54.834 28.5 -78.501 49.5s-43.667 45 -60 72s-29 56.5 -38 88.5s-13.5 65 -13.5 99c0 59.333 8.33301 112.333 25 159s41.334 86.334 74.001 119.001s73.334 57.667 122.001 75
s105.334 26 170.001 26c24.667 0 50.167 -1.83301 76.5 -5.5s48.5 -8.5 66.5 -14.5h363zM208.997 -180.002c0 -24.667 4.33105 -47.666 12.998 -68.999s22.834 -39.666 42.501 -54.999s45.667 -27.5 78 -36.5s72.5 -13.5 120.5 -13.5c124 0 216.833 19.167 278.5 57.5
s92.5 93.5 92.5 165.5c0 30.667 -4 55.667 -12 75s-21.167 34.5 -39.5 45.5s-42.5 18.5 -72.5 22.5s-66.667 6 -110 6h-176c-23.333 0 -47.666 -2.66699 -72.999 -8s-48.5 -15.333 -69.5 -30s-38.333 -34.834 -52 -60.501s-20.5 -58.834 -20.5 -99.501zM300.995 744.999
c0 -76.667 18 -133.667 54 -171s87 -56 153 -56c66.667 0 117.167 18.5 151.5 55.5s51.5 95.167 51.5 174.5c0 82 -17.5 142.333 -52.5 181s-85.833 58 -152.5 58c-66 0 -116.667 -20 -152 -60s-53 -100.667 -53 -182zM863.995 1241h-121.002
c-34 22.667 -69 50.167 -105 82.5s-71.333 66.833 -106 103.5c-36 -36.667 -71.667 -71.167 -107 -103.5s-70 -59.833 -104 -82.5h-121v27l60 67l67.5 78.5c22.333 27 43.333 54 63 81s34.834 51.833 45.501 74.5h192c10.667 -22.667 25.834 -47.5 45.501 -74.5
s40.667 -54 63 -81l68 -78.5l59.5 -67v-27z" />
    <glyph glyph-name="Gbreve" unicode="&#x11e;" horiz-adv-x="1413" 
d="M782 772l484 -0.00488281v-717c-36.667 -12 -73.667 -22.667 -111 -32s-75.666 -17.166 -114.999 -23.499s-80.666 -11.166 -123.999 -14.499s-90 -5 -140 -5c-104.667 0 -197.334 17.5 -278.001 52.5s-148.667 85 -204 150s-97.333 144 -126 237s-43 197.5 -43 313.5
c0 114.667 15.833 218.334 47.5 311.001s77.834 171.5 138.501 236.5s135.5 115 224.5 150s190.5 52.5 304.5 52.5c74 0 145 -7.33301 213 -22s131.333 -36 190 -64l-72 -162c-24 11.333 -49.833 22 -77.5 32s-56.167 18.833 -85.5 26.5s-59.5 13.834 -90.5 18.501
s-61.833 7 -92.5 7c-81.333 0 -153.333 -13.5 -216 -40.5s-115.167 -65.833 -157.5 -116.5s-74.5 -112.334 -96.5 -185.001s-33 -154.667 -33 -246c0 -86.667 9.16699 -166 27.5 -238s47.5 -134 87.5 -186s91.667 -92.333 155 -121s139.666 -43 228.999 -43
c29.333 0 56.166 0.833008 80.499 2.5s46.833 3.83398 67.5 6.50098s40.167 5.83398 58.5 9.50098l53.5 10.5v436h-299v164zM1092 1856c-2.66699 -40.667 -11.333 -77.8311 -26 -111.498s-34.834 -62.834 -60.501 -87.501s-56.667 -43.834 -93 -57.501
s-78.166 -20.5 -125.499 -20.5c-48.667 0 -91.167 6.5 -127.5 19.5s-66.666 31.667 -90.999 56s-43 53.5 -56 87.5s-20.5 72 -22.5 114h108c2.66699 -28.667 8.66699 -51.334 18 -68.001s22 -29.167 38 -37.5s35.167 -13.666 57.5 -15.999s48.166 -3.5 77.499 -3.5
c24 0 46.833 1.5 68.5 4.5s41 9 58 18s31.167 21.667 42.5 38s18.333 37.833 21 64.5h113z" />
    <glyph glyph-name="gbreve" unicode="&#x11f;" horiz-adv-x="1061" 
d="M1020 1098l-0.00292969 -113.002l-197 -27c18.667 -23.333 34.334 -53.166 47.001 -89.499s19 -77.5 19 -123.5c0 -50.667 -7.83301 -97.5 -23.5 -140.5s-39.334 -80.167 -71.001 -111.5s-70.834 -55.833 -117.501 -73.5s-101 -26.5 -163 -26.5
c-14.667 0 -29.334 0.166992 -44.001 0.5s-26.667 1.5 -36 3.5c-11.333 -6.66699 -22.5 -14.167 -33.5 -22.5s-21 -17.833 -30 -28.5s-16.333 -22.667 -22 -36s-8.5 -28 -8.5 -44c0 -18 4 -32.5 12 -43.5s18.833 -19.5 32.5 -25.5s29.834 -10 48.501 -12
s38.334 -3 59.001 -3h176c62 0 114.333 -7.83301 157 -23.5s77.5 -36.834 104.5 -63.501s46.5 -58.167 58.5 -94.5s18 -74.833 18 -115.5c0 -58.667 -10.833 -111.334 -32.5 -158.001s-54.834 -86.167 -99.501 -118.5s-101.167 -57.166 -169.5 -74.499
s-148.833 -26 -241.5 -26c-71.333 0 -133.666 7 -186.999 21s-97.666 34.333 -132.999 61s-61.833 58.834 -79.5 96.501s-26.5 80.167 -26.5 127.5c0 40 6.5 75.167 19.5 105.5s30.5 56.5 52.5 78.5s47.5 40 76.5 54s59.167 24.667 90.5 32c-28 12.667 -51 32.667 -69 60
s-27 58.666 -27 93.999c0 40.667 10.667 75.834 32 105.501s55 58.5 101 86.5c-28.667 12 -54.834 28.5 -78.501 49.5s-43.667 45 -60 72s-29 56.5 -38 88.5s-13.5 65 -13.5 99c0 59.333 8.33301 112.333 25 159s41.334 86.334 74.001 119.001s73.334 57.667 122.001 75
s105.334 26 170.001 26c24.667 0 50.167 -1.83301 76.5 -5.5s48.5 -8.5 66.5 -14.5h363zM208.997 -180.002c0 -24.667 4.33105 -47.666 12.998 -68.999s22.834 -39.666 42.501 -54.999s45.667 -27.5 78 -36.5s72.5 -13.5 120.5 -13.5c124 0 216.833 19.167 278.5 57.5
s92.5 93.5 92.5 165.5c0 30.667 -4 55.667 -12 75s-21.167 34.5 -39.5 45.5s-42.5 18.5 -72.5 22.5s-66.667 6 -110 6h-176c-23.333 0 -47.666 -2.66699 -72.999 -8s-48.5 -15.333 -69.5 -30s-38.333 -34.834 -52 -60.501s-20.5 -58.834 -20.5 -99.501zM300.995 744.999
c0 -76.667 18 -133.667 54 -171s87 -56 153 -56c66.667 0 117.167 18.5 151.5 55.5s51.5 95.167 51.5 174.5c0 82 -17.5 142.333 -52.5 181s-85.833 58 -152.5 58c-66 0 -116.667 -20 -152 -60s-53 -100.667 -53 -182zM811.995 1518
c-2.66699 -40.667 -11.333 -77.8311 -26 -111.498s-34.834 -62.834 -60.501 -87.501s-56.667 -43.834 -93 -57.501s-78.166 -20.5 -125.499 -20.5c-48.667 0 -91.167 6.5 -127.5 19.5s-66.666 31.667 -90.999 56s-43 53.5 -56 87.5s-20.5 72 -22.5 114h108
c2.66699 -28.667 8.66699 -51.334 18 -68.001s22 -29.167 38 -37.5s35.167 -13.666 57.5 -15.999s48.166 -3.5 77.499 -3.5c24 0 46.833 1.5 68.5 4.5s41 9 58 18s31.167 21.667 42.5 38s18.333 37.833 21 64.5h113z" />
    <glyph glyph-name="Gdot" unicode="&#x120;" horiz-adv-x="1413" 
d="M782 772l484 -0.00488281v-717c-36.667 -12 -73.667 -22.667 -111 -32s-75.666 -17.166 -114.999 -23.499s-80.666 -11.166 -123.999 -14.499s-90 -5 -140 -5c-104.667 0 -197.334 17.5 -278.001 52.5s-148.667 85 -204 150s-97.333 144 -126 237s-43 197.5 -43 313.5
c0 114.667 15.833 218.334 47.5 311.001s77.834 171.5 138.501 236.5s135.5 115 224.5 150s190.5 52.5 304.5 52.5c74 0 145 -7.33301 213 -22s131.333 -36 190 -64l-72 -162c-24 11.333 -49.833 22 -77.5 32s-56.167 18.833 -85.5 26.5s-59.5 13.834 -90.5 18.501
s-61.833 7 -92.5 7c-81.333 0 -153.333 -13.5 -216 -40.5s-115.167 -65.833 -157.5 -116.5s-74.5 -112.334 -96.5 -185.001s-33 -154.667 -33 -246c0 -86.667 9.16699 -166 27.5 -238s47.5 -134 87.5 -186s91.667 -92.333 155 -121s139.666 -43 228.999 -43
c29.333 0 56.166 0.833008 80.499 2.5s46.833 3.83398 67.5 6.50098s40.167 5.83398 58.5 9.50098l53.5 10.5v436h-299v164zM684 1733c0 40 10.166 68.998 30.499 86.998s45.5 27 75.5 27c14.667 0 28.5 -2.16699 41.5 -6.5s24.333 -11.166 34 -20.499
s17.334 -21.166 23.001 -35.499s8.5 -31.5 8.5 -51.5c0 -38.667 -10.5 -67.5 -31.5 -86.5s-46.167 -28.5 -75.5 -28.5c-30 0 -55.167 9.33301 -75.5 28s-30.5 47.667 -30.5 87z" />
    <glyph glyph-name="gdot" unicode="&#x121;" horiz-adv-x="1061" 
d="M1020 1098l-0.00292969 -113.002l-197 -27c18.667 -23.333 34.334 -53.166 47.001 -89.499s19 -77.5 19 -123.5c0 -50.667 -7.83301 -97.5 -23.5 -140.5s-39.334 -80.167 -71.001 -111.5s-70.834 -55.833 -117.501 -73.5s-101 -26.5 -163 -26.5
c-14.667 0 -29.334 0.166992 -44.001 0.5s-26.667 1.5 -36 3.5c-11.333 -6.66699 -22.5 -14.167 -33.5 -22.5s-21 -17.833 -30 -28.5s-16.333 -22.667 -22 -36s-8.5 -28 -8.5 -44c0 -18 4 -32.5 12 -43.5s18.833 -19.5 32.5 -25.5s29.834 -10 48.501 -12
s38.334 -3 59.001 -3h176c62 0 114.333 -7.83301 157 -23.5s77.5 -36.834 104.5 -63.501s46.5 -58.167 58.5 -94.5s18 -74.833 18 -115.5c0 -58.667 -10.833 -111.334 -32.5 -158.001s-54.834 -86.167 -99.501 -118.5s-101.167 -57.166 -169.5 -74.499
s-148.833 -26 -241.5 -26c-71.333 0 -133.666 7 -186.999 21s-97.666 34.333 -132.999 61s-61.833 58.834 -79.5 96.501s-26.5 80.167 -26.5 127.5c0 40 6.5 75.167 19.5 105.5s30.5 56.5 52.5 78.5s47.5 40 76.5 54s59.167 24.667 90.5 32c-28 12.667 -51 32.667 -69 60
s-27 58.666 -27 93.999c0 40.667 10.667 75.834 32 105.501s55 58.5 101 86.5c-28.667 12 -54.834 28.5 -78.501 49.5s-43.667 45 -60 72s-29 56.5 -38 88.5s-13.5 65 -13.5 99c0 59.333 8.33301 112.333 25 159s41.334 86.334 74.001 119.001s73.334 57.667 122.001 75
s105.334 26 170.001 26c24.667 0 50.167 -1.83301 76.5 -5.5s48.5 -8.5 66.5 -14.5h363zM208.997 -180.002c0 -24.667 4.33105 -47.666 12.998 -68.999s22.834 -39.666 42.501 -54.999s45.667 -27.5 78 -36.5s72.5 -13.5 120.5 -13.5c124 0 216.833 19.167 278.5 57.5
s92.5 93.5 92.5 165.5c0 30.667 -4 55.667 -12 75s-21.167 34.5 -39.5 45.5s-42.5 18.5 -72.5 22.5s-66.667 6 -110 6h-176c-23.333 0 -47.666 -2.66699 -72.999 -8s-48.5 -15.333 -69.5 -30s-38.333 -34.834 -52 -60.501s-20.5 -58.834 -20.5 -99.501zM300.995 744.999
c0 -76.667 18 -133.667 54 -171s87 -56 153 -56c66.667 0 117.167 18.5 151.5 55.5s51.5 95.167 51.5 174.5c0 82 -17.5 142.333 -52.5 181s-85.833 58 -152.5 58c-66 0 -116.667 -20 -152 -60s-53 -100.667 -53 -182zM401.995 1395c0 40 10.166 68.998 30.499 86.998
s45.5 27 75.5 27c14.667 0 28.5 -2.16699 41.5 -6.5s24.333 -11.166 34 -20.499s17.334 -21.166 23.001 -35.499s8.5 -31.5 8.5 -51.5c0 -38.667 -10.5 -67.5 -31.5 -86.5s-46.167 -28.5 -75.5 -28.5c-30 0 -55.167 9.33301 -75.5 28s-30.5 47.667 -30.5 87z" />
    <glyph glyph-name="Gcommaaccent" unicode="&#x122;" horiz-adv-x="1413" 
d="M782 772l484 -0.00488281v-717c-36.667 -12 -73.667 -22.667 -111 -32s-75.666 -17.166 -114.999 -23.499s-80.666 -11.166 -123.999 -14.499s-90 -5 -140 -5c-104.667 0 -197.334 17.5 -278.001 52.5s-148.667 85 -204 150s-97.333 144 -126 237s-43 197.5 -43 313.5
c0 114.667 15.833 218.334 47.5 311.001s77.834 171.5 138.501 236.5s135.5 115 224.5 150s190.5 52.5 304.5 52.5c74 0 145 -7.33301 213 -22s131.333 -36 190 -64l-72 -162c-24 11.333 -49.833 22 -77.5 32s-56.167 18.833 -85.5 26.5s-59.5 13.834 -90.5 18.501
s-61.833 7 -92.5 7c-81.333 0 -153.333 -13.5 -216 -40.5s-115.167 -65.833 -157.5 -116.5s-74.5 -112.334 -96.5 -185.001s-33 -154.667 -33 -246c0 -86.667 9.16699 -166 27.5 -238s47.5 -134 87.5 -186s91.667 -92.333 155 -121s139.666 -43 228.999 -43
c29.333 0 56.166 0.833008 80.499 2.5s46.833 3.83398 67.5 6.50098s40.167 5.83398 58.5 9.50098l53.5 10.5v436h-299v164zM646 -426.005c7.33301 16.667 15.333 37.668 24 63.001s17 52 25 80s15.167 55.833 21.5 83.5s10.833 52.5 13.5 74.5h178v-20
c-4 -16.667 -11.167 -37.834 -21.5 -63.501s-22.833 -53 -37.5 -82s-31 -57.833 -49 -86.5s-36.667 -54 -56 -76h-98v27z" />
    <glyph glyph-name="gcommaaccent" unicode="&#x123;" horiz-adv-x="1061" 
d="M1020 1098l-0.00292969 -113.002l-197 -27c18.667 -23.333 34.334 -53.166 47.001 -89.499s19 -77.5 19 -123.5c0 -50.667 -7.83301 -97.5 -23.5 -140.5s-39.334 -80.167 -71.001 -111.5s-70.834 -55.833 -117.501 -73.5s-101 -26.5 -163 -26.5
c-14.667 0 -29.334 0.166992 -44.001 0.5s-26.667 1.5 -36 3.5c-11.333 -6.66699 -22.5 -14.167 -33.5 -22.5s-21 -17.833 -30 -28.5s-16.333 -22.667 -22 -36s-8.5 -28 -8.5 -44c0 -18 4 -32.5 12 -43.5s18.833 -19.5 32.5 -25.5s29.834 -10 48.501 -12
s38.334 -3 59.001 -3h176c62 0 114.333 -7.83301 157 -23.5s77.5 -36.834 104.5 -63.501s46.5 -58.167 58.5 -94.5s18 -74.833 18 -115.5c0 -58.667 -10.833 -111.334 -32.5 -158.001s-54.834 -86.167 -99.501 -118.5s-101.167 -57.166 -169.5 -74.499
s-148.833 -26 -241.5 -26c-71.333 0 -133.666 7 -186.999 21s-97.666 34.333 -132.999 61s-61.833 58.834 -79.5 96.501s-26.5 80.167 -26.5 127.5c0 40 6.5 75.167 19.5 105.5s30.5 56.5 52.5 78.5s47.5 40 76.5 54s59.167 24.667 90.5 32c-28 12.667 -51 32.667 -69 60
s-27 58.666 -27 93.999c0 40.667 10.667 75.834 32 105.501s55 58.5 101 86.5c-28.667 12 -54.834 28.5 -78.501 49.5s-43.667 45 -60 72s-29 56.5 -38 88.5s-13.5 65 -13.5 99c0 59.333 8.33301 112.333 25 159s41.334 86.334 74.001 119.001s73.334 57.667 122.001 75
s105.334 26 170.001 26c24.667 0 50.167 -1.83301 76.5 -5.5s48.5 -8.5 66.5 -14.5h363zM208.997 -180.002c0 -24.667 4.33105 -47.666 12.998 -68.999s22.834 -39.666 42.501 -54.999s45.667 -27.5 78 -36.5s72.5 -13.5 120.5 -13.5c124 0 216.833 19.167 278.5 57.5
s92.5 93.5 92.5 165.5c0 30.667 -4 55.667 -12 75s-21.167 34.5 -39.5 45.5s-42.5 18.5 -72.5 22.5s-66.667 6 -110 6h-176c-23.333 0 -47.666 -2.66699 -72.999 -8s-48.5 -15.333 -69.5 -30s-38.333 -34.834 -52 -60.501s-20.5 -58.834 -20.5 -99.501zM300.995 744.999
c0 -76.667 18 -133.667 54 -171s87 -56 153 -56c66.667 0 117.167 18.5 151.5 55.5s51.5 95.167 51.5 174.5c0 82 -17.5 142.333 -52.5 181s-85.833 58 -152.5 58c-66 0 -116.667 -20 -152 -60s-53 -100.667 -53 -182zM687.995 1542
c-8 -16.667 -16.332 -37.668 -24.999 -63.001s-17 -52 -25 -80s-15 -55.833 -21 -83.5s-10.333 -52.5 -13 -74.5h-178v21c3.33301 16 10.166 37 20.499 63s23 53.333 38 82s31.667 57.334 50 86.001s36.833 54 55.5 76h98v-27z" />
    <glyph glyph-name="Hcircumflex" unicode="&#x124;" horiz-adv-x="1436" 
d="M1237 0h-186v682h-666v-682h-186v1462h186v-616h666v616h186v-1462zM1049 1579h-121.002c-34 22.667 -69 50.167 -105 82.5s-71.333 66.833 -106 103.5c-36 -36.667 -71.667 -71.167 -107 -103.5s-70 -59.833 -104 -82.5h-121v27l60 67l67.5 78.5
c22.333 27 43.333 54 63 81s34.834 51.833 45.501 74.5h192c10.667 -22.667 25.834 -47.5 45.501 -74.5s40.667 -54 63 -81l68 -78.5l59.5 -67v-27z" />
    <glyph glyph-name="hcircumflex" unicode="&#x125;" horiz-adv-x="1206" 
d="M860 0v707c0 86.667 -17.5 151.667 -52.5 195s-89.833 65 -164.5 65c-54 0 -99.333 -8.66699 -136 -26s-66.167 -43 -88.5 -77s-38.333 -75.667 -48 -125s-14.5 -106 -14.5 -170v-569h-182v1556h182v-462l-8 -144h10c16.667 28.667 36.5 53.5 59.5 74.5
s48.167 38.5 75.5 52.5s56.333 24.333 87 31s62 10 94 10c122 0 213.833 -31.833 275.5 -95.5s92.5 -165.5 92.5 -305.5v-717h-182zM965 1634h-121.002c-34 22.667 -69 50.167 -105 82.5s-71.333 66.833 -106 103.5c-36 -36.667 -71.667 -71.167 -107 -103.5
s-70 -59.833 -104 -82.5h-121v27l60 67l67.5 78.5c22.333 27 43.333 54 63 81s34.834 51.833 45.501 74.5h192c10.667 -22.667 25.834 -47.5 45.501 -74.5s40.667 -54 63 -81l68 -78.5l59.5 -67v-27z" />
    <glyph glyph-name="Hbar" unicode="&#x126;" horiz-adv-x="1436" 
d="M199 1219v243h186v-243h666v243h186v-243h199v-150h-199v-1069h-186v682h-666v-682h-186v1069h-199v150h199zM1051 846v223h-666v-223h666z" />
    <glyph glyph-name="hbar" unicode="&#x127;" horiz-adv-x="1206" 
d="M860 0v666c0 86.667 -17.5 151.667 -52.5 195s-89.833 65 -164.5 65c-54 0 -99.333 -8.66699 -136 -26s-66.167 -43 -88.5 -77s-38.333 -75.667 -48 -125s-14.5 -106 -14.5 -170v-528h-182v1237h-156v137h156v182h182v-182h379v-137h-379v-184l-8 -144h10
c16.667 28.667 36.5 53.5 59.5 74.5s48.167 38.5 75.5 52.5s56.333 24.333 87 31s62 10 94 10c122 0 213.833 -31.833 275.5 -95.5s92.5 -165.5 92.5 -305.5v-676h-182z" />
    <glyph glyph-name="Itilde" unicode="&#x128;" horiz-adv-x="694" 
d="M612 0h-530v102l172 41v1176l-172 41v102h530v-102l-172 -41v-1176l172 -41v-102zM497 1581c-26.667 0 -53.1699 5.83398 -79.5029 17.501s-52.166 24.667 -77.499 39s-49.666 27.333 -72.999 39s-45.666 17.5 -66.999 17.5c-30 0 -53 -8.83301 -69 -26.5
s-28.667 -47.167 -38 -88.5h-104c3.33301 40 10.5 76.333 21.5 109s25.333 60.5 43 83.5s38.834 40.667 63.501 53s52.334 18.5 83.001 18.5c28 0 55.5 -5.83301 82.5 -17.5s53.167 -24.5 78.5 -38.5l72.5 -38.5c23 -11.667 44.167 -17.5 63.5 -17.5
c30 0 52.667 8.66699 68 26s28 46.666 38 87.999h105c-3.33301 -40 -10.5 -76.167 -21.5 -108.5s-25.333 -60 -43 -83s-38.834 -40.833 -63.501 -53.5s-52.334 -19 -83.001 -19z" />
    <glyph glyph-name="itilde" unicode="&#x129;" horiz-adv-x="530" 
d="M356 0h-182v1098h182v-1098zM415 1243c-26.667 0 -53.1699 5.83398 -79.5029 17.501s-52.166 24.667 -77.499 39s-49.666 27.333 -72.999 39s-45.666 17.5 -66.999 17.5c-30 0 -53 -8.83301 -69 -26.5s-28.667 -47.167 -38 -88.5h-104c3.33301 40 10.5 76.333 21.5 109
s25.333 60.5 43 83.5s38.834 40.667 63.501 53s52.334 18.5 83.001 18.5c28 0 55.5 -5.83301 82.5 -17.5s53.167 -24.5 78.5 -38.5l72.5 -38.5c23 -11.667 44.167 -17.5 63.5 -17.5c30 0 52.667 8.66699 68 26s28 46.666 38 87.999h105
c-3.33301 -40 -10.5 -76.167 -21.5 -108.5s-25.333 -60 -43 -83s-38.834 -40.833 -63.501 -53.5s-52.334 -19 -83.001 -19z" />
    <glyph glyph-name="Imacron" unicode="&#x12a;" horiz-adv-x="694" 
d="M612 0h-530v102l172 41v1176l-172 41v102h530v-102l-172 -41v-1176l172 -41v-102zM61 1729h575v-150h-575v150z" />
    <glyph glyph-name="imacron" unicode="&#x12b;" horiz-adv-x="530" 
d="M356 0h-182v1098h182v-1098zM-21 1391h575v-150h-575v150z" />
    <glyph glyph-name="Ibreve" unicode="&#x12c;" horiz-adv-x="694" 
d="M612 0h-530v102l172 41v1176l-172 41v102h530v-102l-172 -41v-1176l172 -41v-102zM650 1856c-2.66699 -40.667 -11.333 -77.8311 -26 -111.498s-34.834 -62.834 -60.501 -87.501s-56.667 -43.834 -93 -57.501s-78.166 -20.5 -125.499 -20.5
c-48.667 0 -91.167 6.5 -127.5 19.5s-66.666 31.667 -90.999 56s-43 53.5 -56 87.5s-20.5 72 -22.5 114h108c2.66699 -28.667 8.66699 -51.334 18 -68.001s22 -29.167 38 -37.5s35.167 -13.666 57.5 -15.999s48.166 -3.5 77.499 -3.5c24 0 46.833 1.5 68.5 4.5s41 9 58 18
s31.167 21.667 42.5 38s18.333 37.833 21 64.5h113z" />
    <glyph glyph-name="ibreve" unicode="&#x12d;" horiz-adv-x="530" 
d="M356 0h-182v1098h182v-1098zM568 1518c-2.66699 -40.667 -11.333 -77.8311 -26 -111.498s-34.834 -62.834 -60.501 -87.501s-56.667 -43.834 -93 -57.501s-78.166 -20.5 -125.499 -20.5c-48.667 0 -91.167 6.5 -127.5 19.5s-66.666 31.667 -90.999 56s-43 53.5 -56 87.5
s-20.5 72 -22.5 114h108c2.66699 -28.667 8.66699 -51.334 18 -68.001s22 -29.167 38 -37.5s35.167 -13.666 57.5 -15.999s48.166 -3.5 77.499 -3.5c24 0 46.833 1.5 68.5 4.5s41 9 58 18s31.167 21.667 42.5 38s18.333 37.833 21 64.5h113z" />
    <glyph glyph-name="Iogonek" unicode="&#x12e;" horiz-adv-x="694" 
d="M612 0h-530v102l172 41v1176l-172 41v102h530v-102l-172 -41v-1176l172 -41v-102zM336 -238c0 -30 8.66406 -52.167 25.9971 -66.5s37.333 -21.5 60 -21.5c16.667 0 32.5 0.833008 47.5 2.5s27.167 3.83398 36.5 6.50098v-113
c-17.333 -5.33301 -36.666 -9.33301 -57.999 -12s-41.666 -4 -60.999 -4c-66.667 0 -116.667 17.333 -150 52s-50 82 -50 142c0 28 5 54.5 15 79.5s22.833 48.167 38.5 69.5s32.834 40.666 51.501 57.999s36.667 32.333 54 45h129c-92.667 -88.667 -139 -168 -139 -238z" />
    <glyph glyph-name="iogonek" unicode="&#x12f;" horiz-adv-x="530" 
d="M356 0h-182v1098h182v-1098zM160 1395c0 40 10.166 68.998 30.499 86.998s45.5 27 75.5 27c14.667 0 28.5 -2.16699 41.5 -6.5s24.333 -11.166 34 -20.499s17.334 -21.166 23.001 -35.499s8.5 -31.5 8.5 -51.5c0 -38.667 -10.5 -67.5 -31.5 -86.5
s-46.167 -28.5 -75.5 -28.5c-30 0 -55.167 9.33301 -75.5 28s-30.5 47.667 -30.5 87zM216.999 -238.002c0 -30 8.66406 -52.167 25.9971 -66.5s37.333 -21.5 60 -21.5c16.667 0 32.5 0.833008 47.5 2.5s27.167 3.83398 36.5 6.50098v-113
c-17.333 -5.33301 -36.666 -9.33301 -57.999 -12s-41.666 -4 -60.999 -4c-66.667 0 -116.667 17.333 -150 52s-50 82 -50 142c0 28 5 54.5 15 79.5s22.833 48.167 38.5 69.5s32.834 40.666 51.501 57.999s36.667 32.333 54 45h129c-92.667 -88.667 -139 -168 -139 -238z" />
    <glyph glyph-name="Idotaccent" unicode="&#x130;" horiz-adv-x="694" 
d="M612 0h-530v102l172 41v1176l-172 41v102h530v-102l-172 -41v-1176l172 -41v-102zM240 1733c0 40 10.166 68.998 30.499 86.998s45.5 27 75.5 27c14.667 0 28.5 -2.16699 41.5 -6.5s24.333 -11.166 34 -20.499s17.334 -21.166 23.001 -35.499s8.5 -31.5 8.5 -51.5
c0 -38.667 -10.5 -67.5 -31.5 -86.5s-46.167 -28.5 -75.5 -28.5c-30 0 -55.167 9.33301 -75.5 28s-30.5 47.667 -30.5 87z" />
    <glyph glyph-name="dotlessi" unicode="&#x131;" horiz-adv-x="530" 
d="M356 0h-182v1098h182v-1098z" />
    <glyph glyph-name="IJ" unicode="&#x132;" horiz-adv-x="1249" 
d="M612 0h-530v102l172 41v1176l-172 41v102h530v-102l-172 -41v-1176l172 -41v-102zM665 -389c-34 0 -63.667 2.16895 -89 6.50195s-47.333 10.166 -66 17.499v160c22.667 -6 47 -10.833 73 -14.5s54 -5.5 84 -5.5c24.667 0 49.5 3.16699 74.5 9.5s47.667 17.833 68 34.5
s36.833 39.667 49.5 69s19 66.666 19 111.999v1462h187v-1442c0 -70 -9.83301 -130.667 -29.5 -182s-47 -93.833 -82 -127.5s-77 -58.667 -126 -75s-103.167 -24.5 -162.5 -24.5z" />
    <glyph glyph-name="ij" unicode="&#x133;" horiz-adv-x="1061" 
d="M356 0h-182v1098h182v-1098zM160 1395c0 40 10.166 68.998 30.499 86.998s45.5 27 75.5 27c14.667 0 28.5 -2.16699 41.5 -6.5s24.333 -11.166 34 -20.499s17.334 -21.166 23.001 -35.499s8.5 -31.5 8.5 -51.5c0 -38.667 -10.5 -67.5 -31.5 -86.5
s-46.167 -28.5 -75.5 -28.5c-30 0 -55.167 9.33301 -75.5 28s-30.5 47.667 -30.5 87zM595.999 -492.002c-32 0 -58.5 2.33398 -79.5 7.00098s-39.167 10.667 -54.5 18v148c17.333 -6.66699 35 -11.834 53 -15.501s38.667 -5.5 62 -5.5c18 0 34.667 2.5 50 7.5
s28.833 14 40.5 27s20.667 30.333 27 52s9.5 49.5 9.5 83.5v1268h182v-1256c0 -51.333 -5.66699 -97.5 -17 -138.5s-29 -76 -53 -105s-54.167 -51.333 -90.5 -67s-79.5 -23.5 -129.5 -23.5zM689.999 1395c0 40 10.166 68.998 30.499 86.998s45.5 27 75.5 27
c14.667 0 28.5 -2.16699 41.5 -6.5s24.333 -11.166 34 -20.499s17.334 -21.166 23.001 -35.499s8.5 -31.5 8.5 -51.5c0 -38.667 -10.5 -67.5 -31.5 -86.5s-46.167 -28.5 -75.5 -28.5c-30 0 -55.167 9.33301 -75.5 28s-30.5 47.667 -30.5 87z" />
    <glyph glyph-name="Jcircumflex" unicode="&#x134;" horiz-adv-x="555" 
d="M-29 -389c-34 0 -63.667 2.16895 -89 6.50195s-47.333 10.166 -66 17.499v160c22.667 -6 47 -10.833 73 -14.5s54 -5.5 84 -5.5c24.667 0 49.5 3.16699 74.5 9.5s47.667 17.833 68 34.5s36.833 39.667 49.5 69s19 66.666 19 111.999v1462h187v-1442
c0 -70 -9.83301 -130.667 -29.5 -182s-47 -93.833 -82 -127.5s-77 -58.667 -126 -75s-103.167 -24.5 -162.5 -24.5zM612 1579h-121.002c-34 22.667 -69 50.167 -105 82.5s-71.333 66.833 -106 103.5c-36 -36.667 -71.667 -71.167 -107 -103.5s-70 -59.833 -104 -82.5h-121
v27l60 67l67.5 78.5c22.333 27 43.333 54 63 81s34.834 51.833 45.501 74.5h192c10.667 -22.667 25.834 -47.5 45.501 -74.5s40.667 -54 63 -81l68 -78.5l59.5 -67v-27z" />
    <glyph glyph-name="jcircumflex" unicode="&#x135;" horiz-adv-x="530" 
d="M66 -492c-32 0 -58.5 2.33398 -79.5 7.00098s-39.167 10.667 -54.5 18v148c17.333 -6.66699 35 -11.834 53 -15.501s38.667 -5.5 62 -5.5c18 0 34.667 2.5 50 7.5s28.833 14 40.5 27s20.667 30.333 27 52s9.5 49.5 9.5 83.5v1268h182v-1256
c0 -51.333 -5.66699 -97.5 -17 -138.5s-29 -76 -53 -105s-54.167 -51.333 -90.5 -67s-79.5 -23.5 -129.5 -23.5zM599 1241h-121.002c-34 22.667 -69 50.167 -105 82.5s-71.333 66.833 -106 103.5c-36 -36.667 -71.667 -71.167 -107 -103.5s-70 -59.833 -104 -82.5h-121v27
l60 67l67.5 78.5c22.333 27 43.333 54 63 81s34.834 51.833 45.501 74.5h192c10.667 -22.667 25.834 -47.5 45.501 -74.5s40.667 -54 63 -81l68 -78.5l59.5 -67v-27z" />
    <glyph glyph-name="Kcommaaccent" unicode="&#x136;" horiz-adv-x="1186" 
d="M1186 0h-211l-451 698l-139 -114v-584h-186v1462h186v-731l121 168l452 563h209l-520 -637zM482 -426c7.33301 16.667 15.333 37.668 24 63.001s17 52 25 80s15.167 55.833 21.5 83.5s10.833 52.5 13.5 74.5h178v-20c-4 -16.667 -11.167 -37.834 -21.5 -63.501
s-22.833 -53 -37.5 -82s-31 -57.833 -49 -86.5s-36.667 -54 -56 -76h-98v27z" />
    <glyph glyph-name="kcommaaccent" unicode="&#x137;" horiz-adv-x="1016" 
d="M342 567l135 170l293 361h211l-401 -475l428 -623h-209l-336 504l-109 -82v-422h-180v1556h180v-714l-16 -275h4zM400 -426c7.33301 16.667 15.333 37.668 24 63.001s17 52 25 80s15.167 55.833 21.5 83.5s10.833 52.5 13.5 74.5h178v-20
c-4 -16.667 -11.167 -37.834 -21.5 -63.501s-22.833 -53 -37.5 -82s-31 -57.833 -49 -86.5s-36.667 -54 -56 -76h-98v27z" />
    <glyph glyph-name="kgreenlandic" unicode="&#x138;" horiz-adv-x="1016" 
d="M803 0l-339.999 489l-109 -81v-408h-180v1098h180v-281c0 -40 -0.833008 -77 -2.5 -111s-3.5 -63.667 -5.5 -89c-2.66699 -29.333 -5.33398 -56 -8.00098 -80l131 176l307 385h205l-401 -490l428 -608h-205z" />
    <glyph glyph-name="Lacute" unicode="&#x139;" horiz-adv-x="1006" 
d="M199 0v1462h186v-1296h573v-166h-759zM238 1606c14.667 19.333 29.833 41.668 45.5 67.001l47 78.5c15.667 27 30.5 54 44.5 81s26.333 51.833 37 74.5h219v-21c-10.667 -18 -26.5 -40.5 -47.5 -67.5s-44.333 -55.167 -70 -84.5s-52 -57.833 -79 -85.5
s-52.167 -50.834 -75.5 -69.501h-121v27z" />
    <glyph glyph-name="lacute" unicode="&#x13a;" horiz-adv-x="530" 
d="M356 0h-182v1556h182v-1556zM171 1663c14.667 19.333 29.833 41.668 45.5 67.001l47 78.5c15.667 27 30.5 54 44.5 81s26.333 51.833 37 74.5h219v-21c-10.667 -18 -26.5 -40.5 -47.5 -67.5s-44.333 -55.167 -70 -84.5s-52 -57.833 -79 -85.5
s-52.167 -50.834 -75.5 -69.501h-121v27z" />
    <glyph glyph-name="Lcommaaccent" unicode="&#x13b;" horiz-adv-x="1006" 
d="M199 0v1462h186v-1296h573v-166h-759zM412 -426c7.33301 16.667 15.333 37.668 24 63.001s17 52 25 80s15.167 55.833 21.5 83.5s10.833 52.5 13.5 74.5h178v-20c-4 -16.667 -11.167 -37.834 -21.5 -63.501s-22.833 -53 -37.5 -82s-31 -57.833 -49 -86.5
s-36.667 -54 -56 -76h-98v27z" />
    <glyph glyph-name="lcommaaccent" unicode="&#x13c;" horiz-adv-x="530" 
d="M356 0h-182v1556h182v-1556zM102 -426c7.33301 16.667 15.333 37.668 24 63.001s17 52 25 80s15.167 55.833 21.5 83.5s10.833 52.5 13.5 74.5h178v-20c-4 -16.667 -11.167 -37.834 -21.5 -63.501s-22.833 -53 -37.5 -82s-31 -57.833 -49 -86.5s-36.667 -54 -56 -76h-98
v27z" />
    <glyph glyph-name="Lcaron" unicode="&#x13d;" horiz-adv-x="1006" 
d="M199 0v1462h186v-1296h573v-166h-759zM647 1162c6 20 11.998 42.834 17.998 68.501s11.833 52 17.5 79s10.834 53.833 15.501 80.5s8.33398 51 11.001 73h180v-20c-4 -16.667 -11.167 -38 -21.5 -64s-22.333 -53.333 -36 -82s-28.167 -57.334 -43.5 -86.001
s-30.333 -53.667 -45 -75h-96v26z" />
    <glyph glyph-name="lcaron" unicode="&#x13e;" horiz-adv-x="530" 
d="M356 0h-182v1556h182v-1556zM450 1255c6 20 11.998 42.834 17.998 68.501s11.833 52 17.5 79s10.834 53.833 15.501 80.5s8.33398 51 11.001 73h180v-20c-4 -16.667 -11.167 -38 -21.5 -64s-22.333 -53.333 -36 -82s-28.167 -57.334 -43.5 -86.001
s-30.333 -53.667 -45 -75h-96v26z" />
    <glyph glyph-name="Ldot" unicode="&#x13f;" horiz-adv-x="1006" 
d="M199 0v1462h186v-1296h573v-166h-759zM643 728c0 40 10.166 68.998 30.499 86.998s45.5 27 75.5 27c14.667 0 28.5 -2.16699 41.5 -6.5s24.333 -11.166 34 -20.499s17.334 -21.166 23.001 -35.499s8.5 -31.5 8.5 -51.5c0 -38.667 -10.5 -67.5 -31.5 -86.5
s-46.167 -28.5 -75.5 -28.5c-30 0 -55.167 9.33301 -75.5 28s-30.5 47.667 -30.5 87z" />
    <glyph glyph-name="ldot" unicode="&#x140;" horiz-adv-x="614" 
d="M356 0h-182v1556h182v-1556zM461 683c0 40 10.166 68.998 30.499 86.998s45.5 27 75.5 27c14.667 0 28.5 -2.16699 41.5 -6.5s24.333 -11.166 34 -20.499s17.334 -21.166 23.001 -35.499s8.5 -31.5 8.5 -51.5c0 -38.667 -10.5 -67.5 -31.5 -86.5
s-46.167 -28.5 -75.5 -28.5c-30 0 -55.167 9.33301 -75.5 28s-30.5 47.667 -30.5 87z" />
    <glyph glyph-name="Lslash" unicode="&#x141;" horiz-adv-x="1006" 
d="M199 676v786h186v-669l227 143l78 -125l-305 -190v-455h573v-166h-759v504l-97 -60l-73 125z" />
    <glyph glyph-name="lslash" unicode="&#x142;" horiz-adv-x="530" 
d="M174 758v798h182v-679l107 69l78 -121l-185 -120v-705h-182v586l-106 -70l-78 121z" />
    <glyph glyph-name="Nacute" unicode="&#x143;" horiz-adv-x="1493" 
d="M1294 0h-215.001l-719 1210h-8c4 -51.333 7.33301 -102.333 10 -153c2.66699 -43.333 4.83398 -88.666 6.50098 -135.999s2.5 -90 2.5 -128v-793h-172v1462h213l716 -1204h7c-2 50.667 -4.33301 100.667 -7 150c-0.666992 21.333 -1.5 43.166 -2.5 65.499l-3 67
c-1 22.333 -1.66699 43.833 -2 64.5s-0.5 39.667 -0.5 57v800h174v-1462zM634.999 1606c14.667 19.333 29.833 41.668 45.5 67.001l47 78.5c15.667 27 30.5 54 44.5 81s26.333 51.833 37 74.5h219v-21c-10.667 -18 -26.5 -40.5 -47.5 -67.5s-44.333 -55.167 -70 -84.5
s-52 -57.833 -79 -85.5s-52.167 -50.834 -75.5 -69.501h-121v27z" />
    <glyph glyph-name="nacute" unicode="&#x144;" horiz-adv-x="1206" 
d="M860 0v707c0 86.667 -17.5 151.667 -52.5 195s-89.833 65 -164.5 65c-54 0 -99.333 -8.66699 -136 -26s-66.167 -43 -88.5 -77s-38.333 -75.667 -48 -125s-14.5 -106 -14.5 -170v-569h-182v1098h148l26 -148h10c16.667 28.667 36.5 53.5 59.5 74.5s48.167 38.5 75.5 52.5
s56.333 24.333 87 31s62 10 94 10c122 0 213.833 -31.833 275.5 -95.5s92.5 -165.5 92.5 -305.5v-717h-182zM504 1268c14.667 19.333 29.833 41.668 45.5 67.001l47 78.5c15.667 27 30.5 54 44.5 81s26.333 51.833 37 74.5h219v-21c-10.667 -18 -26.5 -40.5 -47.5 -67.5
s-44.333 -55.167 -70 -84.5s-52 -57.833 -79 -85.5s-52.167 -50.834 -75.5 -69.501h-121v27z" />
    <glyph glyph-name="Ncommaaccent" unicode="&#x145;" horiz-adv-x="1493" 
d="M1294 0h-215.001l-719 1210h-8c4 -51.333 7.33301 -102.333 10 -153c2.66699 -43.333 4.83398 -88.666 6.50098 -135.999s2.5 -90 2.5 -128v-793h-172v1462h213l716 -1204h7c-2 50.667 -4.33301 100.667 -7 150c-0.666992 21.333 -1.5 43.166 -2.5 65.499l-3 67
c-1 22.333 -1.66699 43.833 -2 64.5s-0.5 39.667 -0.5 57v800h174v-1462zM583.999 -426c7.33301 16.667 15.333 37.668 24 63.001s17 52 25 80s15.167 55.833 21.5 83.5s10.833 52.5 13.5 74.5h178v-20c-4 -16.667 -11.167 -37.834 -21.5 -63.501s-22.833 -53 -37.5 -82
s-31 -57.833 -49 -86.5s-36.667 -54 -56 -76h-98v27z" />
    <glyph glyph-name="ncommaaccent" unicode="&#x146;" horiz-adv-x="1206" 
d="M860 0v707c0 86.667 -17.5 151.667 -52.5 195s-89.833 65 -164.5 65c-54 0 -99.333 -8.66699 -136 -26s-66.167 -43 -88.5 -77s-38.333 -75.667 -48 -125s-14.5 -106 -14.5 -170v-569h-182v1098h148l26 -148h10c16.667 28.667 36.5 53.5 59.5 74.5s48.167 38.5 75.5 52.5
s56.333 24.333 87 31s62 10 94 10c122 0 213.833 -31.833 275.5 -95.5s92.5 -165.5 92.5 -305.5v-717h-182zM443 -426c7.33301 16.667 15.333 37.668 24 63.001s17 52 25 80s15.167 55.833 21.5 83.5s10.833 52.5 13.5 74.5h178v-20
c-4 -16.667 -11.167 -37.834 -21.5 -63.501s-22.833 -53 -37.5 -82s-31 -57.833 -49 -86.5s-36.667 -54 -56 -76h-98v27z" />
    <glyph glyph-name="Ncaron" unicode="&#x147;" horiz-adv-x="1493" 
d="M1294 0h-215.001l-719 1210h-8c4 -51.333 7.33301 -102.333 10 -153c2.66699 -43.333 4.83398 -88.666 6.50098 -135.999s2.5 -90 2.5 -128v-793h-172v1462h213l716 -1204h7c-2 50.667 -4.33301 100.667 -7 150c-0.666992 21.333 -1.5 43.166 -2.5 65.499l-3 67
c-1 22.333 -1.66699 43.833 -2 64.5s-0.5 39.667 -0.5 57v800h174v-1462zM1078 1880l-59.498 -67l-68 -78.5c-22.333 -27 -43.333 -53.833 -63 -80.5s-34.834 -51.667 -45.501 -75h-192c-10.667 23.333 -25.834 48.333 -45.501 75s-40.667 53.5 -63 80.5l-67.5 78.5l-60 67
v27h121c34 -22.667 68.667 -50.167 104 -82.5s71 -67.166 107 -104.499c34.667 37.333 70 72.166 106 104.499s71 59.833 105 82.5h121v-27z" />
    <glyph glyph-name="ncaron" unicode="&#x148;" horiz-adv-x="1206" 
d="M860 0v707c0 86.667 -17.5 151.667 -52.5 195s-89.833 65 -164.5 65c-54 0 -99.333 -8.66699 -136 -26s-66.167 -43 -88.5 -77s-38.333 -75.667 -48 -125s-14.5 -106 -14.5 -170v-569h-182v1098h148l26 -148h10c16.667 28.667 36.5 53.5 59.5 74.5s48.167 38.5 75.5 52.5
s56.333 24.333 87 31s62 10 94 10c122 0 213.833 -31.833 275.5 -95.5s92.5 -165.5 92.5 -305.5v-717h-182zM934 1542l-59.498 -67l-68 -78.5c-22.333 -27 -43.333 -53.833 -63 -80.5s-34.834 -51.667 -45.501 -75h-192c-10.667 23.333 -25.834 48.333 -45.501 75
s-40.667 53.5 -63 80.5l-67.5 78.5l-60 67v27h121c34 -22.667 68.667 -50.167 104 -82.5s71 -67.166 107 -104.499c34.667 37.333 70 72.166 106 104.499s71 59.833 105 82.5h121v-27z" />
    <glyph glyph-name="napostrophe" unicode="&#x149;" horiz-adv-x="1350" 
d="M1003 0v707c0 86.667 -17.5 151.667 -52.5 195s-89.833 65 -164.5 65c-54 0 -99.333 -8.66699 -136 -26s-66.167 -43 -88.5 -77s-38.333 -75.667 -48 -125s-14.5 -106 -14.5 -170v-569h-182v1098h148l26 -148h10c16.667 28.667 36.5 53.5 59.5 74.5
s48.167 38.5 75.5 52.5s56.333 24.333 87 31s62 10 94 10c122 0 213.833 -31.833 275.5 -95.5s92.5 -165.5 92.5 -305.5v-717h-182zM298 1462l14.001 -21.998c-9.33301 -36.667 -20.5 -75.167 -33.5 -115.5s-27.333 -81.333 -43 -123s-32 -82.834 -49 -123.501l-50.5 -117
h-137l28.5 126l28 132c9 44 17.167 86.667 24.5 128s13.666 79.666 18.999 114.999h199z" />
    <glyph glyph-name="Eng" unicode="&#x14a;" horiz-adv-x="1493" 
d="M907 -389c-34 0 -63.835 2.16797 -89.502 6.50098s-47.5 10.166 -65.5 17.499v160c22.667 -6 47 -10.833 73 -14.5s54 -5.5 84 -5.5c24.667 0 49.5 3.16699 74.5 9.5s47.667 17.833 68 34.5s36.833 39.667 49.5 69s19 66.666 19 111.999l-760 1210h-8
c4 -51.333 7.33301 -102.333 10 -153c2.66699 -43.333 4.83398 -88.666 6.50098 -135.999s2.5 -90 2.5 -128v-793h-172v1462h213l716 -1163h7c-2 43.333 -4.33301 86.666 -7 129.999c-2 37.333 -3.83301 76.833 -5.5 118.5s-2.5 79.834 -2.5 114.501v800h174v-1442
c0 -70 -9.16699 -130.667 -27.5 -182s-44.166 -93.833 -77.499 -127.5s-73.833 -58.667 -121.5 -75s-101.167 -24.5 -160.5 -24.5z" />
    <glyph glyph-name="eng" unicode="&#x14b;" horiz-adv-x="1206" 
d="M750 -492c-32 0 -58.5 2.33398 -79.5 7.00098s-39.167 10.667 -54.5 18v148c17.333 -6.66699 35 -11.834 53 -15.501s38.667 -5.5 62 -5.5c18 0 34.667 2.5 50 7.5s28.833 14 40.5 27s20.667 30.333 27 52s9.5 49.5 9.5 83.5l2 877c0 86.667 -17.5 151.667 -52.5 195
s-89.833 65 -164.5 65c-54 0 -99.333 -8.66699 -136 -26s-66.167 -43 -88.5 -77s-38.333 -75.667 -48 -125s-14.5 -106 -14.5 -170v-569h-182v1098h148l26 -148h10c16.667 28.667 36.5 53.5 59.5 74.5s48.167 38.5 75.5 52.5s56.333 24.333 87 31s62 10 94 10
c122 0 213.833 -31.833 275.5 -95.5s92.5 -165.5 92.5 -305.5l-2 -875c0 -51.333 -5.66699 -97.5 -17 -138.5s-29 -76 -53 -105s-54.167 -51.333 -90.5 -67s-79.5 -23.5 -129.5 -23.5z" />
    <glyph glyph-name="Omacron" unicode="&#x14c;" horiz-adv-x="1520" 
d="M1393 733c0 -112.667 -13.498 -215.33 -40.498 -307.997s-67.167 -172 -120.5 -238s-119.5 -117 -198.5 -153s-170.167 -54 -273.5 -54c-108.667 0 -202.834 18 -282.501 54s-145.667 87 -198 153s-91.166 145.5 -116.499 238.5s-38 196.167 -38 309.5
s12.667 216.166 38 308.499s64.333 171.166 117 236.499s119 115.833 199 151.5s174.333 53.5 283 53.5c103.333 0 194.166 -17.833 272.499 -53.5s144.166 -86.334 197.499 -152.001s93.5 -144.667 120.5 -237s40.5 -195.5 40.5 -309.5zM322.002 733.004
c0 -91.333 8.66602 -173.5 25.999 -246.5s43.833 -135 79.5 -186s81 -90 136 -117s120.5 -40.5 196.5 -40.5s141.5 13.5 196.5 40.5s100.333 66 136 117s61.834 113 78.501 186s25 155.167 25 246.5c0 92 -8.33301 174.333 -25 247s-42.667 134.167 -78 184.5
s-80.333 89 -135 116s-120 40.5 -196 40.5s-141.667 -13.5 -197 -40.5s-101 -65.667 -137 -116s-62.667 -111.833 -80 -184.5s-26 -155 -26 -247zM471.001 1729h575v-150h-575v150z" />
    <glyph glyph-name="omacron" unicode="&#x14d;" horiz-adv-x="1182" 
d="M1069 551c0 -91.333 -11.166 -172.5 -33.499 -243.5s-54.333 -130.667 -96 -179s-92.167 -85.166 -151.5 -110.499s-126 -38 -200 -38c-68.667 0 -132 12.667 -190 38s-108.167 62.166 -150.5 110.499s-75.333 108 -99 179s-35.5 152.167 -35.5 243.5
c0 90.667 11.167 171.167 33.5 241.5s54.166 129.666 95.499 177.999s91.833 85 151.5 110s126.5 37.5 200.5 37.5c68.667 0 132 -12.5 190 -37.5s108.167 -61.667 150.5 -110s75.333 -107.666 99 -177.999s35.5 -150.833 35.5 -241.5zM301.001 551
c0 -139.333 22.833 -244.166 68.5 -314.499s119.834 -105.5 222.501 -105.5s176.5 35.167 221.5 105.5s67.5 175.166 67.5 314.499s-22.833 243.5 -68.5 312.5s-119.834 103.5 -222.501 103.5s-176.5 -34.5 -221.5 -103.5s-67.5 -173.167 -67.5 -312.5zM303.001 1391h575
v-150h-575v150z" />
    <glyph glyph-name="Obreve" unicode="&#x14e;" horiz-adv-x="1520" 
d="M1393 733c0 -112.667 -13.498 -215.33 -40.498 -307.997s-67.167 -172 -120.5 -238s-119.5 -117 -198.5 -153s-170.167 -54 -273.5 -54c-108.667 0 -202.834 18 -282.501 54s-145.667 87 -198 153s-91.166 145.5 -116.499 238.5s-38 196.167 -38 309.5
s12.667 216.166 38 308.499s64.333 171.166 117 236.499s119 115.833 199 151.5s174.333 53.5 283 53.5c103.333 0 194.166 -17.833 272.499 -53.5s144.166 -86.334 197.499 -152.001s93.5 -144.667 120.5 -237s40.5 -195.5 40.5 -309.5zM322.002 733.004
c0 -91.333 8.66602 -173.5 25.999 -246.5s43.833 -135 79.5 -186s81 -90 136 -117s120.5 -40.5 196.5 -40.5s141.5 13.5 196.5 40.5s100.333 66 136 117s61.834 113 78.501 186s25 155.167 25 246.5c0 92 -8.33301 174.333 -25 247s-42.667 134.167 -78 184.5
s-80.333 89 -135 116s-120 40.5 -196 40.5s-141.667 -13.5 -197 -40.5s-101 -65.667 -137 -116s-62.667 -111.833 -80 -184.5s-26 -155 -26 -247zM1061 1856c-2.66699 -40.667 -11.333 -77.8311 -26 -111.498s-34.834 -62.834 -60.501 -87.501s-56.667 -43.834 -93 -57.501
s-78.166 -20.5 -125.499 -20.5c-48.667 0 -91.167 6.5 -127.5 19.5s-66.666 31.667 -90.999 56s-43 53.5 -56 87.5s-20.5 72 -22.5 114h108c2.66699 -28.667 8.66699 -51.334 18 -68.001s22 -29.167 38 -37.5s35.167 -13.666 57.5 -15.999s48.166 -3.5 77.499 -3.5
c24 0 46.833 1.5 68.5 4.5s41 9 58 18s31.167 21.667 42.5 38s18.333 37.833 21 64.5h113z" />
    <glyph glyph-name="obreve" unicode="&#x14f;" horiz-adv-x="1182" 
d="M1069 551c0 -91.333 -11.166 -172.5 -33.499 -243.5s-54.333 -130.667 -96 -179s-92.167 -85.166 -151.5 -110.499s-126 -38 -200 -38c-68.667 0 -132 12.667 -190 38s-108.167 62.166 -150.5 110.499s-75.333 108 -99 179s-35.5 152.167 -35.5 243.5
c0 90.667 11.167 171.167 33.5 241.5s54.166 129.666 95.499 177.999s91.833 85 151.5 110s126.5 37.5 200.5 37.5c68.667 0 132 -12.5 190 -37.5s108.167 -61.667 150.5 -110s75.333 -107.666 99 -177.999s35.5 -150.833 35.5 -241.5zM301.001 551
c0 -139.333 22.833 -244.166 68.5 -314.499s119.834 -105.5 222.501 -105.5s176.5 35.167 221.5 105.5s67.5 175.166 67.5 314.499s-22.833 243.5 -68.5 312.5s-119.834 103.5 -222.501 103.5s-176.5 -34.5 -221.5 -103.5s-67.5 -173.167 -67.5 -312.5zM891.001 1518
c-2.66699 -40.667 -11.333 -77.8311 -26 -111.498s-34.834 -62.834 -60.501 -87.501s-56.667 -43.834 -93 -57.501s-78.166 -20.5 -125.499 -20.5c-48.667 0 -91.167 6.5 -127.5 19.5s-66.666 31.667 -90.999 56s-43 53.5 -56 87.5s-20.5 72 -22.5 114h108
c2.66699 -28.667 8.66699 -51.334 18 -68.001s22 -29.167 38 -37.5s35.167 -13.666 57.5 -15.999s48.166 -3.5 77.499 -3.5c24 0 46.833 1.5 68.5 4.5s41 9 58 18s31.167 21.667 42.5 38s18.333 37.833 21 64.5h113z" />
    <glyph glyph-name="Ohungarumlaut" unicode="&#x150;" horiz-adv-x="1520" 
d="M1393 733c0 -112.667 -13.498 -215.33 -40.498 -307.997s-67.167 -172 -120.5 -238s-119.5 -117 -198.5 -153s-170.167 -54 -273.5 -54c-108.667 0 -202.834 18 -282.501 54s-145.667 87 -198 153s-91.166 145.5 -116.499 238.5s-38 196.167 -38 309.5
s12.667 216.166 38 308.499s64.333 171.166 117 236.499s119 115.833 199 151.5s174.333 53.5 283 53.5c103.333 0 194.166 -17.833 272.499 -53.5s144.166 -86.334 197.499 -152.001s93.5 -144.667 120.5 -237s40.5 -195.5 40.5 -309.5zM322.002 733.004
c0 -91.333 8.66602 -173.5 25.999 -246.5s43.833 -135 79.5 -186s81 -90 136 -117s120.5 -40.5 196.5 -40.5s141.5 13.5 196.5 40.5s100.333 66 136 117s61.834 113 78.501 186s25 155.167 25 246.5c0 92 -8.33301 174.333 -25 247s-42.667 134.167 -78 184.5
s-80.333 89 -135 116s-120 40.5 -196 40.5s-141.667 -13.5 -197 -40.5s-101 -65.667 -137 -116s-62.667 -111.833 -80 -184.5s-26 -155 -26 -247zM459.001 1606c14.667 19.333 29.833 41.668 45.5 67.001l47 78.5c15.667 27 30.5 54 44.5 81s26.333 51.833 37 74.5h199v-21
c-10.667 -18 -26.5 -40.5 -47.5 -67.5s-44.333 -55.167 -70 -84.5s-52 -57.833 -79 -85.5s-52.167 -50.834 -75.5 -69.501h-101v27zM822 1606.01c14 19.333 29 41.668 45 67.001l47.5 78.5c15.667 27 30.5 54 44.5 81s26.333 51.833 37 74.5h198v-21
c-10.667 -18 -26.5 -40.5 -47.5 -67.5s-44.333 -55.167 -70 -84.5s-52 -57.833 -79 -85.5s-52.167 -50.834 -75.5 -69.501h-100v27z" />
    <glyph glyph-name="ohungarumlaut" unicode="&#x151;" horiz-adv-x="1182" 
d="M1069 551c0 -91.333 -11.166 -172.5 -33.499 -243.5s-54.333 -130.667 -96 -179s-92.167 -85.166 -151.5 -110.499s-126 -38 -200 -38c-68.667 0 -132 12.667 -190 38s-108.167 62.166 -150.5 110.499s-75.333 108 -99 179s-35.5 152.167 -35.5 243.5
c0 90.667 11.167 171.167 33.5 241.5s54.166 129.666 95.499 177.999s91.833 85 151.5 110s126.5 37.5 200.5 37.5c68.667 0 132 -12.5 190 -37.5s108.167 -61.667 150.5 -110s75.333 -107.666 99 -177.999s35.5 -150.833 35.5 -241.5zM301.001 551
c0 -139.333 22.833 -244.166 68.5 -314.499s119.834 -105.5 222.501 -105.5s176.5 35.167 221.5 105.5s67.5 175.166 67.5 314.499s-22.833 243.5 -68.5 312.5s-119.834 103.5 -222.501 103.5s-176.5 -34.5 -221.5 -103.5s-67.5 -173.167 -67.5 -312.5zM293.001 1268
c14.667 19.333 29.833 41.668 45.5 67.001l47 78.5c15.667 27 30.5 54 44.5 81s26.333 51.833 37 74.5h199v-21c-10.667 -18 -26.5 -40.5 -47.5 -67.5s-44.333 -55.167 -70 -84.5s-52 -57.833 -79 -85.5s-52.167 -50.834 -75.5 -69.501h-101v27zM656 1268
c14 19.333 29 41.668 45 67.001l47.5 78.5c15.667 27 30.5 54 44.5 81s26.333 51.833 37 74.5h198v-21c-10.667 -18 -26.5 -40.5 -47.5 -67.5s-44.333 -55.167 -70 -84.5s-52 -57.833 -79 -85.5s-52.167 -50.834 -75.5 -69.501h-100v27z" />
    <glyph glyph-name="OE" unicode="&#x152;" horiz-adv-x="1823" 
d="M1700 0l-758 0.00195312c-28.667 -6 -58.167 -10.833 -88.5 -14.5s-61.5 -5.5 -93.5 -5.5c-108.667 0 -202.834 18 -282.501 54s-145.667 87 -198 153s-91.166 145.5 -116.499 238.5s-38 196.167 -38 309.5s12.667 216.166 38 308.499s64.333 171.166 117 236.499
s119 115.833 199 151.5s174.333 53.5 283 53.5c65.333 0 126 -7.66699 182 -23h756v-164h-574v-452h535v-162h-535v-520h574v-164zM762 1321c-76 0 -141.667 -13.501 -197 -40.501s-101 -65.667 -137 -116s-62.667 -111.833 -80 -184.5s-26 -155 -26 -247
c0 -91.333 8.66699 -173.5 26 -246.5s43.833 -135 79.5 -186s81 -90 136 -117s120.5 -40.5 196.5 -40.5c34.667 0 67 3 97 9s57.667 14 83 24v1112c-25.333 10.667 -52.833 18.834 -82.5 24.501s-61.5 8.5 -95.5 8.5z" />
    </font>
</defs>
</svg>
